<?xml version="1.0" encoding="utf-8"?>
<!-- Generator: Adobe Illustrator 24.3.0, SVG Export Plug-In . SVG Version: 6.00 Build 0)  -->
<svg version="1.1" xmlns="http://www.w3.org/2000/svg" xmlns:xlink="http://www.w3.org/1999/xlink" x="0px" y="0px"
	 viewBox="0 0 1122 1122" style="enable-background:new 0 0 1122 1122;" xml:space="preserve">
<style type="text/css">
	.st0{fill:#FFFFFF;}
	.st1{fill:#A75D20;}
	.st2{fill:#6D5E47;}
	.st3{fill:#FFF8D7;}
	.st4{fill:#E3C4A3;}
	.st5{fill:#594934;}
	.st6{fill:#DDD3AB;}
	.st7{fill:none;}
	.st8{fill:#A0816A;}
	.st9{fill:#7F471D;}
	.st10{fill:#332520;}
	.st11{fill:#42342E;}
	.st12{fill:#254051;}
	.st13{fill:#D0D5D8;}
	.st14{fill:#976E48;}
	.st15{fill:#89603E;}
	.st16{fill:#272525;}
	.st17{fill:#1E343F;}
	.st18{fill:#A7ACAF;}
	.st19{fill:#FFD366;}
	.st20{fill:#DDAC4A;}
	.st21{fill:#DCF3F7;}
	.st22{fill:#BDD9E0;}
	.st23{fill:#D8A9A0;}
	.st24{fill:#E8CCAA;}
	.st25{fill:#DBC05E;}
	.st26{fill:#F1DEC3;}
	.st27{fill:#A3C2C9;}
	.st28{fill:#9AB9C1;}
	.st29{fill:#BCA14B;}
	.st30{fill:#AA876A;}
	.st31{fill:#686D56;}
	.st32{fill:#272525;stroke:#272525;stroke-linecap:round;stroke-linejoin:round;stroke-miterlimit:10;}
	.st33{fill:#EFEEED;}
	.st34{fill:#D3D3D3;}
	.st35{fill:#B89574;stroke:#272525;stroke-linecap:round;stroke-linejoin:round;stroke-miterlimit:10;}
	.st36{fill:#B89574;}
	.st37{fill:#50543E;}
	.st38{fill:#89613F;}
	.st39{fill:#756545;}
	.st40{fill:#A07A3D;}
	.st41{fill:#307996;}
	.st42{fill:#353535;}
	.st43{fill:#DDAD83;}
	.st44{fill:#256477;}
	.st45{fill:#A58062;}
	.st46{fill:#E2C28F;}
	.st47{fill:#86AAB5;}
	.st48{fill:#4F4A46;}
	.st49{fill:#5D8F9B;}
	.st50{fill:#F5E9A9;}
	.st51{fill:#EAD2A5;}
	.st52{fill:#847F79;}
	.st53{fill:#E2D28D;}
	.st54{fill:#3F3934;}
	.st55{fill:#684D36;}
	.st56{fill:#3D6687;}
	.st57{fill:#6F8E7C;}
	.st58{fill:#E8D3BA;}
	.st59{fill:#5D7C6A;}
	.st60{fill:#2F5670;}
	.st61{fill:#D6BFA3;}
</style>
<g id="Bg">
	<rect class="st0" width="1122" height="1122"/>
</g>
<g id="Object">
	<g id="XMLID_7905_">
		<g id="XMLID_8323_">
			<g id="XMLID_8330_">
				<path id="XMLID_8417_" class="st1" d="M465.1,818.3c0,0-3.8,3.7-2.2,20.9c0,0,2.8,26.5,25.5,24.9c16.9-1.1,13.6-11.8,13.6-11.8
					s0-4.5-3.4-10c-3.4-5.5-5-14.9-6.3-18.2s-1.6-4.9-1.6-4.9s-1-6.2-9.8-6.1S465.1,818.3,465.1,818.3z"/>
				<path id="XMLID_8416_" class="st1" d="M428,825.6c0,0-3.4,6.9-1.4,20.1l1.4,2.9h3.1c0,0-2.3,20.5,28.3,19s3.3-28.3,1.8-30.7
					c-1.5-2.3-8.8-17.3-8.8-17.3s-3.8-3-10-2.7C436.1,817.4,428,825.6,428,825.6z"/>
				<path id="XMLID_8415_" class="st2" d="M407.8,538.8c0,0-2.3,66.8,2.1,95.1c0,0-0.6,14.8,2,20s1.1,20.5,0,26s-2.7,25.3-1.6,38.5
					c1,13.3,1,50.3,7,73l4.3,15.5c0,0-1.5,6.7,1.5,12.1c1.6,2.9,3.4,5.1,4.8,6.5c1,1.1,2.7,1.2,3.8,0.2c3.2-2.8,9.9-8.2,13.4-7.4
					c4.8,1.1,7.3,1.4,7.3,1.4s1.3-18.3,0-20.6c-1.3-2.3-5.8-8.5-5.3-17.8s2.3-15.3,0.3-30s1-49.6,3-59.7s14.8-60.3,14.8-60.3
					s4.5,18.4,2.8,33.3s2.3,25.9,2,31.3c-0.3,5.4-1.8,33.9-1.8,33.9s-0.5,59-0.5,63s-2,6.3-3,8.3s-4.3,11.4,0.5,17.2
					c0,0,9.8-1.2,14.8-3.1c5-1.9,11,4,11,4s5.8-5.4,5.8-10.8c0-5.3-4.3-5.6,0-14.3s6-48.5,6-48.5s2.5-38.7,4.3-44s2.8-8.8,1.8-13.5
					s-1.3-7-1.3-7s7.5-17.8,8.5-24.8s7.8-83.3,8-85.9c0.3-2.6,5.5-15.9,4.5-21.8c-1-5.8-5.5-15.6-5.5-15.6L407.8,538.8z"/>
				<path id="XMLID_8414_" class="st3" d="M446.1,328.9c0,0-4.4,5.4-6,6.3c-1.6,0.9-30.6,7.7-39.6,11c-9,3.3-16.6,8.1-16.6,8.1
					s-12.7,42.9,3.3,55.1s27.9,60,27.9,60s5.2,25.1-16,54.3c0,0,1,18.4,19.8,26.6c18.8,8.2,32,9.3,32,9.3l6.5-17.8v18.9
					c0,0,20.8,0.4,30.3-2.5c9.5-2.9,27.5-12.6,31.8-19.3c4.3-6.7,4.8-7.9,4.8-7.9s-1.8-39.3-4.5-43s-9.3-26.5-6.8-53.8
					c2.5-27.3,17.3-27.3,19-41.3s-12.8-46.7-12.8-46.7l-34.8-9.6L446.1,328.9z"/>
				<path id="XMLID_8413_" class="st4" d="M501.3,298.6c0,0,2.2-2.2,3.4-0.8s-3.9,20.4-7.8,20.4S495,314,495,314L501.3,298.6z"/>
				<path id="XMLID_8412_" class="st4" d="M447.1,318.9l-1.7,17.7c0,0,2.1,11,19.8,14.5c14.8,2.9,19.7-11.3,19.2-14.5L447.1,318.9z"
					/>
				<g id="XMLID_8410_">
					<path id="XMLID_8411_" class="st5" d="M473.1,597.2c-0.1,0-0.3-0.1-0.4-0.1c-0.1-0.1-0.2-0.4-0.1-0.5
						c5.5-13.4,1.8-34.5,1.8-34.7c0-0.3,0.1-0.5,0.4-0.6c0.3,0,0.5,0.1,0.6,0.4c0,0.2,3.6,20.3-1.4,33.9c2.2-1.5,6.8-5.9,7.5-16.4
						c0.9-13.5,0.1-15.4,0.1-15.5c-0.2-0.2-0.1-0.5,0.1-0.7c0.2-0.2,0.6-0.1,0.7,0.1c0.2,0.3,1.1,2.3,0.1,16.1
						c-1,14.5-9,17.8-9.3,17.9C473.2,597.2,473.2,597.2,473.1,597.2z"/>
				</g>
				<g id="XMLID_8408_">
					<path id="XMLID_8409_" class="st6" d="M457.4,542.2c-0.3,0-0.5-0.2-0.5-0.5c0-0.3-2.6-30.7-1.8-42.7c0.1-2.1,0.3-5.5,0.6-9.8
						c1.2-21.2,3.5-60.5,4.3-64.3c1-4.6,2.8-15.8,2.3-21c-0.3-3.5-1-12.3,0.1-18.6l0.2-1.4c0.8-4.9,1.5-8.8-0.2-12.2
						c-2-4,1.8-15.6,1.9-16c0.1-0.3,0.4-0.4,0.6-0.3c0.3,0.1,0.4,0.4,0.3,0.6c0,0.1-3.8,11.7-2,15.3c1.8,3.7,1.1,7.9,0.3,12.8
						l-0.2,1.4c-1,6.3-0.4,14.9-0.1,18.4c0.5,5.4-1.3,16.5-2.3,21.3c-0.8,3.7-3.2,44.5-4.3,64.2c-0.2,4.3-0.4,7.7-0.6,9.8
						c-0.7,12,1.8,42.3,1.8,42.6C457.9,542,457.7,542.2,457.4,542.2C457.4,542.2,457.4,542.2,457.4,542.2z"/>
				</g>
				<g id="XMLID_8404_">
					<path id="XMLID_8405_" class="st6" d="M468.1,357c-1.2,0-2.1-1-2.1-2.1s1-2.1,2.1-2.1s2.1,1,2.1,2.1S469.3,357,468.1,357z
						 M468.1,353.8c-0.6,0-1.1,0.5-1.1,1.1c0,0.6,0.5,1.1,1.1,1.1c0.6,0,1.1-0.5,1.1-1.1C469.3,354.3,468.7,353.8,468.1,353.8z"/>
				</g>
				<g id="XMLID_8400_">
					<path id="XMLID_8401_" class="st6" d="M465.9,397.8c-1.2,0-2.1-1-2.1-2.1c0-1.2,1-2.1,2.1-2.1s2.1,1,2.1,2.1
						C468,396.9,467,397.8,465.9,397.8z M465.9,394.6c-0.6,0-1.1,0.5-1.1,1.1c0,0.6,0.5,1.1,1.1,1.1c0.6,0,1.1-0.5,1.1-1.1
						C467,395.1,466.5,394.6,465.9,394.6z"/>
				</g>
				<g id="XMLID_8396_">
					<path id="XMLID_8397_" class="st6" d="M465.9,425.5c-1.2,0-2.1-1-2.1-2.1c0-1.2,1-2.1,2.1-2.1s2.1,1,2.1,2.1
						C468,424.5,467,425.5,465.9,425.5z M465.9,422.2c-0.6,0-1.1,0.5-1.1,1.1c0,0.6,0.5,1.1,1.1,1.1c0.6,0,1.1-0.5,1.1-1.1
						C467,422.7,466.5,422.2,465.9,422.2z"/>
				</g>
				<g id="XMLID_8392_">
					<path id="XMLID_8393_" class="st6" d="M464.3,455c-1.2,0-2.1-1-2.1-2.1s1-2.1,2.1-2.1s2.1,1,2.1,2.1S465.4,455,464.3,455z
						 M464.3,451.8c-0.6,0-1.1,0.5-1.1,1.1c0,0.6,0.5,1.1,1.1,1.1c0.6,0,1.1-0.5,1.1-1.1C465.4,452.3,464.9,451.8,464.3,451.8z"/>
				</g>
				<g id="XMLID_8388_">
					<path id="XMLID_8389_" class="st6" d="M462.6,484.6c-1.2,0-2.1-1-2.1-2.1c0-1.2,1-2.1,2.1-2.1s2.1,1,2.1,2.1
						C464.8,483.6,463.8,484.6,462.6,484.6z M462.6,481.3c-0.6,0-1.1,0.5-1.1,1.1c0,0.6,0.5,1.1,1.1,1.1c0.6,0,1.1-0.5,1.1-1.1
						C463.8,481.8,463.2,481.3,462.6,481.3z"/>
				</g>
				<g id="XMLID_8384_">
					<path id="XMLID_8385_" class="st6" d="M461,515.1c-1.2,0-2.1-1-2.1-2.1c0-1.2,1-2.1,2.1-2.1s2.1,1,2.1,2.1
						C463.1,514.2,462.2,515.1,461,515.1z M461,511.9c-0.6,0-1.1,0.5-1.1,1.1c0,0.6,0.5,1.1,1.1,1.1c0.6,0,1.1-0.5,1.1-1.1
						C462.1,512.4,461.6,511.9,461,511.9z"/>
				</g>
				<g id="XMLID_8380_">
					<path id="XMLID_8381_" class="st6" d="M466.5,371c-1.2,0-2.1-1-2.1-2.1s1-2.1,2.1-2.1s2.1,1,2.1,2.1S467.7,371,466.5,371z
						 M466.5,367.8c-0.6,0-1.1,0.5-1.1,1.1c0,0.6,0.5,1.1,1.1,1.1c0.6,0,1.1-0.5,1.1-1.1C467.6,368.3,467.1,367.8,466.5,367.8z"/>
				</g>
				<g id="XMLID_8376_">
					<path id="XMLID_8377_" class="st6" d="M496.6,436.7c-0.1,0-0.1,0-0.2,0c-1.1-0.5-10.5-4.9-11.7-6.5c-1.2-1.6-0.7-6,0.6-13.1
						c1.1-6.2,0-27.7,0-27.9c0-0.1,0-0.3,0.1-0.4c0.1-0.1,0.2-0.2,0.4-0.1l31.9,2.2c0.1,0,0.3,0.1,0.4,0.2c0.1,0.1,0.1,0.2,0.1,0.4
						c-0.6,4-5.9,38.9-7.1,40.9C509.8,434.6,498.9,436.4,496.6,436.7C496.7,436.7,496.7,436.7,496.6,436.7z M486.3,389.8
						c0.2,3.5,1,21.7,0,27.6c-0.7,3.7-2,10.7-0.8,12.3c0.8,1,7.1,4.2,11.2,6.1c5.2-0.8,12.8-2.5,13.5-3.7c0.8-1.4,4.5-24.5,6.9-40.1
						L486.3,389.8z"/>
				</g>
				<g id="XMLID_8374_">
					<path id="XMLID_8375_" class="st6" d="M515.5,400.6C515.4,400.6,515.4,400.6,515.5,400.6l-26.9-1.8c-0.3,0-0.5-0.3-0.5-0.5
						c0-0.3,0.2-0.5,0.5-0.5l26.8,1.8c0.3,0,0.5,0.3,0.5,0.5C515.9,400.4,515.7,400.6,515.5,400.6z"/>
				</g>
				<g id="XMLID_8372_">
					<path id="XMLID_8373_" class="st6" d="M461.1,357c-0.1,0-0.1,0-0.2,0c-21.6-7.4-20.6-16.7-20.5-17.1c0-0.3,0.3-0.5,0.6-0.4
						c0.3,0,0.5,0.3,0.4,0.6c0,0.1-0.9,8.9,19.8,16c0.3,0.1,0.4,0.4,0.3,0.6C461.5,356.9,461.3,357,461.1,357z"/>
				</g>
				<g id="XMLID_8370_">
					<path id="XMLID_8371_" class="st6" d="M474,357c-0.2,0-0.5-0.2-0.5-0.4c0-0.3,0.2-0.5,0.4-0.6c8.3-1,12.7-4.7,15-7.5
						c2.4-3.1,2.9-6,2.9-6.1c0-0.3,0.3-0.5,0.6-0.4c0.3,0,0.5,0.3,0.4,0.6c0,0.1-0.5,3.2-3.1,6.5C487.4,352.1,482.7,355.9,474,357
						C474,357,474,357,474,357z"/>
				</g>
				<g id="XMLID_8368_">
					<path id="XMLID_8369_" class="st6" d="M399.5,392.7c-0.2,0-0.4-0.1-0.5-0.4c-6.1-21.3,3.1-42,3.2-42.2c0.1-0.3,0.4-0.4,0.7-0.2
						c0.3,0.1,0.4,0.4,0.2,0.7c-0.1,0.2-9.2,20.6-3.1,41.5c0.1,0.3-0.1,0.5-0.3,0.6C399.6,392.7,399.5,392.7,399.5,392.7z"/>
				</g>
				<g id="XMLID_8363_">
					<polygon id="XMLID_8367_" class="st7" points="447,284.4 447,284.4 447,284.4 					"/>
					<path id="XMLID_8366_" class="st0" d="M446.6,283.8l0.4,0.6C447,284.4,446.8,284.1,446.6,283.8z"/>
					<path id="XMLID_8365_" class="st4" d="M501.3,287.6c-0.5-2.4,0.4-9.4,0-13.1c-0.4-3.7-7.4-4.9-9.1-5.5
						c-1.7-0.6-22.8-7.2-25.6-8c-2.9-0.8-6.2,7.5-6.4,9.6c-0.2,2.1-9.1,19.6-9.1,19.6l-4-5.8l0,0l0,0l-0.4-0.6
						c-0.8-1-2.5-2.8-4.6-2.1c-2.8,1-3.3,9.1-2.9,13s0.6,9.2,5.8,9.4c0,0,2.5,2.9,2.1,12.4s6.4,25.9,21.5,27.2
						c15.1,1.4,24.6-19.9,25.1-21.6c0.3-1.2,4-12,6.6-20.2C500.8,296.6,501.6,289.1,501.3,287.6z"/>
					<path id="XMLID_8364_" class="st8" d="M485.8,256.3c-22.9-8.5-39.9,16.1-38.8,28.1l4,5.8c0,0,8.9-17.5,9.1-19.6
						c0.2-2.1,3.5-10.4,6.4-9.6c2.9,0.8,24,7.4,25.6,8c1.7,0.6,8.7,1.8,9.1,5.5c0.4,3.7-0.5,10.7,0,13.1c0.3,1.5-0.5,9.1-1,14.2
						c1.2-3.9,2.3-7.2,2.6-8.7C504,288.5,508.6,264.8,485.8,256.3z"/>
				</g>
				<g id="XMLID_8361_">
					<path id="XMLID_8362_" class="st9" d="M445.3,841.1c-0.1,0-0.3,0-0.4-0.1c-0.2-0.2-0.2-0.5,0-0.7c0.1-0.1,3.5-3.6,4.6-4.4
						c0.2-0.2,0.5-0.4,0.8-0.6c1.6-1.2,3.7-2.9,5.5-2.2c0.3,0.1,0.4,0.4,0.3,0.6c-0.1,0.3-0.4,0.4-0.6,0.3c-1.3-0.5-3.3,1-4.6,2.1
						c-0.3,0.2-0.6,0.5-0.8,0.6c-1,0.8-4.5,4.2-4.5,4.3C445.6,841,445.4,841.1,445.3,841.1z"/>
				</g>
				<g id="XMLID_8359_">
					<path id="XMLID_8360_" class="st9" d="M443.5,837.2c-0.1,0-0.3-0.1-0.4-0.2c-0.2-0.2-0.2-0.5,0-0.7c0.2-0.1,3.7-3.4,4.9-4.1
						c0.2-0.2,0.5-0.3,0.8-0.6c1.6-1.2,3.8-2.8,5.7-1.9c0.3,0.1,0.4,0.4,0.2,0.7c-0.1,0.3-0.4,0.4-0.7,0.2c-1.3-0.6-3.3,0.9-4.7,1.8
						c-0.3,0.2-0.6,0.4-0.8,0.6c-1.1,0.7-4.7,4-4.7,4C443.7,837.1,443.6,837.2,443.5,837.2z"/>
				</g>
				<g id="XMLID_8357_">
					<path id="XMLID_8358_" class="st9" d="M442.1,833.5c-0.1,0-0.3-0.1-0.4-0.2c-0.2-0.2-0.1-0.5,0.1-0.7c0.2-0.1,3.9-3.2,5.1-3.9
						c0.2-0.1,0.5-0.3,0.8-0.5c1.7-1.1,4-2.6,5.7-1.7c0.2,0.1,0.3,0.4,0.2,0.7c-0.1,0.2-0.4,0.3-0.7,0.2c-1.3-0.6-3.4,0.7-4.7,1.6
						c-0.3,0.2-0.6,0.4-0.9,0.5c-1.1,0.6-4.9,3.8-4.9,3.8C442.3,833.5,442.2,833.5,442.1,833.5z"/>
				</g>
				<g id="XMLID_8355_">
					<path id="XMLID_8356_" class="st9" d="M440.2,829.4c-0.1,0-0.3-0.1-0.4-0.2c-0.2-0.2-0.1-0.5,0.1-0.7c0.2-0.1,3.9-3.2,5.1-3.9
						c0.2-0.1,0.5-0.3,0.8-0.5c1.7-1.1,4-2.6,5.7-1.7c0.2,0.1,0.3,0.4,0.2,0.7c-0.1,0.2-0.4,0.3-0.7,0.2c-1.3-0.6-3.4,0.7-4.7,1.6
						c-0.3,0.2-0.6,0.4-0.9,0.5c-1.1,0.6-4.9,3.8-4.9,3.8C440.5,829.3,440.3,829.4,440.2,829.4z"/>
				</g>
				<g id="XMLID_8353_">
					<path id="XMLID_8354_" class="st9" d="M438.4,825.7c-0.1,0-0.3-0.1-0.4-0.2c-0.2-0.2-0.1-0.5,0.1-0.7c0.2-0.1,3.9-3.2,5.1-3.9
						c0.2-0.1,0.5-0.3,0.8-0.5c1.7-1.1,4-2.6,5.7-1.7c0.2,0.1,0.3,0.4,0.2,0.7c-0.1,0.2-0.4,0.3-0.7,0.2c-1.3-0.6-3.4,0.7-4.7,1.6
						c-0.3,0.2-0.6,0.4-0.9,0.5c-1.1,0.6-4.9,3.8-4.9,3.8C438.6,825.7,438.5,825.7,438.4,825.7z"/>
				</g>
				<g id="XMLID_8351_">
					<path id="XMLID_8352_" class="st9" d="M439.6,849.5c-0.2,0-0.4-0.1-0.4-0.3c-0.1-0.2,0-0.5,0.2-0.7c0,0,3.5-1.8,6.9-5.2
						c3.2-3.2,1.4-6.4,1.4-6.4c0-0.1-3.9-7.5-5.5-11c-1.4-3-3-2.8-3-2.8c-0.3,0-0.5-0.1-0.6-0.4c0-0.3,0.1-0.5,0.4-0.6
						c0.1,0,2.3-0.4,4.1,3.4c1.6,3.4,5.5,10.8,5.5,10.9c0,0,2.1,3.9-1.6,7.6c-3.5,3.5-7,5.3-7.1,5.3
						C439.8,849.5,439.7,849.5,439.6,849.5z"/>
				</g>
				<g id="XMLID_8349_">
					<path id="XMLID_8350_" class="st9" d="M461.8,839.6c-0.1,0-0.1,0-0.2,0c-0.6-0.2-6-2.4-6.9-3c-0.8-0.6-3.4-2.4-4.1-6.8
						c-0.7-4.1-1.4-8.8-1.4-8.8l1-0.2c0,0,0.8,4.7,1.4,8.8c0.6,3.9,3,5.6,3.7,6.1c0.6,0.4,4.4,2,6.7,2.9c0.3,0.1,0.4,0.4,0.3,0.6
						C462.2,839.5,462,839.6,461.8,839.6z"/>
				</g>
				<g id="XMLID_8347_">
					<path id="XMLID_8348_" class="st9" d="M454,865.3c-11.7,0-19.1-5.8-19.2-5.9c-0.2-0.2-0.2-0.5-0.1-0.7c0.2-0.2,0.5-0.2,0.7-0.1
						c0.1,0.1,10.1,7.9,25.2,5c5.4-1,8.9-3,10.2-5.8c1.4-3-0.1-5.9-0.2-6c-0.1-0.2,0-0.5,0.2-0.7c0.2-0.1,0.5,0,0.7,0.2
						c0.1,0.1,1.8,3.4,0.2,6.9c-1.5,3.1-5.1,5.2-10.9,6.3C458.4,865.2,456.1,865.3,454,865.3z"/>
				</g>
				<g id="XMLID_8345_">
					<path id="XMLID_8346_" class="st9" d="M489.1,836.3c-0.1,0-0.2,0-0.3-0.1c0,0-2.1-1.3-5-2.2c-2.8-0.9-5.1,0.6-5.1,0.6
						c-0.2,0.1-0.5,0.1-0.7-0.1c-0.1-0.2-0.1-0.5,0.1-0.7c0.1-0.1,2.7-1.7,6-0.7c3.1,1,5.2,2.3,5.3,2.3c0.2,0.1,0.3,0.5,0.2,0.7
						C489.5,836.2,489.3,836.3,489.1,836.3z"/>
				</g>
				<g id="XMLID_8343_">
					<path id="XMLID_8344_" class="st9" d="M489.1,832.5c-0.1,0-0.2,0-0.3-0.1c0,0-2-1.6-5.4-2.4c-3.4-0.7-5.7,0.7-5.7,0.7
						c-0.2,0.1-0.5,0.1-0.7-0.2c-0.1-0.2-0.1-0.5,0.2-0.7c0.1-0.1,2.6-1.6,6.5-0.8c3.7,0.8,5.8,2.5,5.9,2.6c0.2,0.2,0.2,0.5,0.1,0.7
						C489.4,832.5,489.3,832.5,489.1,832.5z"/>
				</g>
				<g id="XMLID_8341_">
					<path id="XMLID_8342_" class="st9" d="M488.7,828.6c-0.1,0-0.3-0.1-0.4-0.2c0,0-1.6-1.9-5.9-2.5c-4.2-0.6-6.3,1.3-6.3,1.3
						c-0.2,0.2-0.5,0.2-0.7,0c-0.2-0.2-0.2-0.5,0-0.7c0.1-0.1,2.4-2.2,7.1-1.6c4.7,0.6,6.5,2.8,6.5,2.9c0.2,0.2,0.1,0.5-0.1,0.7
						C488.9,828.5,488.8,828.6,488.7,828.6z"/>
				</g>
				<g id="XMLID_8339_">
					<path id="XMLID_8340_" class="st9" d="M488.3,824.8c-0.3,0-0.5-0.2-0.5-0.5v0c0,0-0.4-1.2-4.6-1.8c-4.7-0.7-7.7,1-7.7,1
						c-0.2,0.1-0.5,0.1-0.7-0.2c-0.1-0.2-0.1-0.5,0.2-0.7c0.1-0.1,3.4-1.9,8.4-1.2c5,0.8,5.4,2.4,5.4,2.7
						C488.8,824.6,488.6,824.8,488.3,824.8C488.3,824.8,488.3,824.8,488.3,824.8z"/>
				</g>
				<g id="XMLID_8337_">
					<path id="XMLID_8338_" class="st9" d="M488.3,820.6c-0.1,0-0.2,0-0.3-0.1c-4.7-3.7-14.5-0.7-14.6-0.7c-0.3,0.1-0.5-0.1-0.6-0.3
						c-0.1-0.3,0.1-0.5,0.3-0.6c0.4-0.1,10.3-3.1,15.5,0.9c0.2,0.2,0.3,0.5,0.1,0.7C488.5,820.6,488.4,820.6,488.3,820.6z"/>
				</g>
				<g id="XMLID_8335_">
					<path id="XMLID_8336_" class="st9" d="M472.3,842.5c-0.2,0-0.3-0.1-0.4-0.2c-0.2-0.2-0.1-0.5,0.1-0.7c0.2-0.2,5.1-3.7,6.6-4.5
						l0.1-0.1c1.5-0.7,3.9-2,3-5.5c-1-3.9-6.6-14.2-6.7-14.3c-0.1-0.2,0-0.5,0.2-0.7c0.2-0.1,0.5,0,0.7,0.2
						c0.2,0.4,5.7,10.6,6.8,14.6c1.1,4.3-2,5.9-3.5,6.6l-0.1,0.1c-1.4,0.7-6.4,4.3-6.5,4.4C472.5,842.5,472.4,842.5,472.3,842.5z"/>
				</g>
				<g id="XMLID_8333_">
					<path id="XMLID_8334_" class="st9" d="M495.7,843.1c-0.1,0-0.1,0-0.2,0c-0.8-0.3-8.1-3.1-9.2-5.3c-1.1-2.2-1.4-17.1-1.5-18.8
						c0-0.3,0.2-0.5,0.5-0.5c0.3,0,0.5,0.2,0.5,0.5c0.1,4.5,0.6,16.7,1.4,18.4c0.8,1.6,6.5,4,8.6,4.8c0.3,0.1,0.4,0.4,0.3,0.6
						C496.1,843,495.9,843.1,495.7,843.1z"/>
				</g>
				<g id="XMLID_8331_">
					<path id="XMLID_8332_" class="st9" d="M468.5,841.8c-0.2,0-0.4-0.2-0.5-0.4c-0.5-2.9-5-6.8-5-6.8c-0.2-0.2-0.2-0.5,0-0.7
						c0.2-0.2,0.5-0.2,0.7,0c0.2,0.2,4.7,4.2,5.3,7.4C469,841.5,468.8,841.7,468.5,841.8C468.5,841.8,468.5,841.8,468.5,841.8z"/>
				</g>
			</g>
			<g id="XMLID_8327_">
				<g id="XMLID_8328_">
					
						<rect id="XMLID_8329_" x="453.3" y="616.6" transform="matrix(0.1883 -0.9821 0.9821 0.1883 -226.2745 960.3549)" class="st5" width="29.1" height="1"/>
				</g>
			</g>
			<g id="XMLID_8324_">
				<g id="XMLID_8325_">
					
						<rect id="XMLID_8326_" x="522.8" y="539.7" transform="matrix(0.8142 -0.5806 0.5806 0.8142 -219.0211 405.0444)" class="st5" width="1" height="9.9"/>
				</g>
			</g>
		</g>
		<g id="XMLID_8213_">
			<g id="XMLID_8267_">
				<path id="XMLID_8322_" class="st10" d="M699,839.6v6.8c0,0-0.7,1.4,1.7,3.5c2.4,2.1,8,5.8,11.3,4.3
					C712,854.1,712.8,845.1,699,839.6z"/>
				<path id="XMLID_8321_" class="st11" d="M699.7,831.3c0,0-2.5,3.5-0.9,7.9c1.7,4.4,11.5,6.9,12.8,12.7c1.3,5.8-0.7,19.8,20.8,24
					c21.5,4.2,19.3-4,17.5-10.8c-1.8-6.8-7.8-14.7-11-17.8c-3.2-3.2-10.5-17.9-10.5-17.9S711,827.9,699.7,831.3z"/>
				<path id="XMLID_8320_" class="st11" d="M619.2,826.6c0,0-8.6,17.1-11.1,19.7c-2.5,2.7-16.8,27.1,4.3,29.2
					c21.2,2.1,22.7-8.6,23.7-14.2s3.5-17.9,7.2-20.9c3.7-3.1,1-7.7,1-7.7S627.3,817.9,619.2,826.6z"/>
				<path id="XMLID_8319_" class="st10" d="M644.4,839.2v7.2c0,0-1.4,5-6.5,6.6C637.9,853,640,841.8,644.4,839.2z"/>
				<path id="XMLID_8318_" class="st12" d="M615.8,556.6c0,0-6,47.8-3.6,63.4c2.3,15.7,3.6,18.3,3.6,18.3s-2.2,22.6-2.3,30
					c0,7.4,2.4,17.4,4.5,21.7c2.1,4.3-4.5,34.7-4.5,34.7s-10.9,24-7.8,36.7c3.1,12.7,12.7,43.8,12.7,43.8s-7,6-6.6,10.1
					c0.3,4.1,4.1,10.5,4.1,10.5s0.7,1.5,4.7,0.7c4-0.9,9.2-2.5,13.3,1.3c4.2,3.8,8.8,6.2,10.3,5c1.5-1.2,7.5-10.7,7.3-13.8
					c-0.2-3.1-10.7-17.1-6.7-34.7c4-17.7,8.7-32.3,8.3-55.2c-0.3-22.8,9-75.5,9-75.5l10.7-36.7h1.8c0,0,5.8,45.2,10.2,66.5
					c4.3,21.3,7.3,25.3,6.7,46.5c-0.7,21.2,0.2,30.8,2.2,38.3s-2.5,37.6-2.7,42.7c-0.2,5.1,1.7,11.5,5.2,15.7s6.2,9.4,6.2,9.4
					s9.5-1.2,14.3-4.2c4.8-3,11.7-2.5,11.7-2.5s5.7-9.4,5.7-12.1c0-2.7-9.5-8-6.7-14.7c2.8-6.7,4.5-21.7,4.5-30.4
					s-0.5-31.9-3.5-43.6c-3-11.7-6.2-16.8-4.8-29.2c1.3-12.3,2.5-58.5,5-66s6-23.3,6.2-35.3c0.2-12-3-44.3-3-44.3L615.8,556.6z"/>
				<path id="XMLID_8317_" class="st13" d="M645.7,343.6c0,0-11.2,4.6-13,6.4s-10.6-1.8-18.1,0s-23.5,27.8-23.5,27.8l2.3,16.3
					c0,0,13.1-1.5,21.2,5.1c8.1,6.6,14.8,74.6,14.8,74.6s-10.8,31.6-11.1,37.6c-0.3,6-2.7,45.3-2.7,45.3s13.4,7,53,3.2
					c39.7-3.8,64-6,64-6l-3-12.1c0,0,6.7-5.7,4.7-11c-2-5.3-10.7-21.7-7.3-40.7c3.3-19,10.3-43.7,11.3-49.7s2.3-17.1,2.3-17.1
					l13,8.7c0,0-1.7-40.7-5-50.3c-3.3-9.7-5.3-39.9-21.7-41.8c-16.3-1.9-22,0.6-24.7,0c-2.7-0.6-7.6-4.5-15-2.2L645.7,343.6z"/>
				<path id="XMLID_8316_" class="st14" d="M628.5,302.3c0,0-4.6-1.5-2.4,5.6s3.2,13.9,9.2,14.1L628.5,302.3z"/>
				<path id="XMLID_8315_" class="st14" d="M684.4,290.7c0,0,1.2-2.6,2.3,0c1.1,2.6,0.6,16.2,0.6,16.2S684.1,295.3,684.4,290.7z"/>
				<path id="XMLID_8314_" class="st15" d="M644.6,338.2c0,0,1.9,6.2,0.9,8.1c0,0,5.9,9.1,23.6,5.9s19.5-7,19.6-10.1
					s-1.3-4.4-1.3-4.4s-1.5,0.9-2.2,0s-1.8-8.9-1.8-8.9L644.6,338.2z"/>
				<g id="XMLID_8312_">
					<path id="XMLID_8313_" class="st10" d="M613.2,873.7c-10.1,0-12-8.8-12-8.9c-0.1-0.3,0.1-0.5,0.4-0.6c0.3-0.1,0.5,0.1,0.6,0.4
						c0.1,0.4,1.8,8.6,11.9,8.1c10.4-0.5,18.8-6.1,18.9-6.2c0.2-0.2,0.5-0.1,0.7,0.1c0.2,0.2,0.1,0.5-0.1,0.7
						c-0.1,0.1-8.7,5.8-19.4,6.4C613.8,873.7,613.5,873.7,613.2,873.7z"/>
				</g>
				<g id="XMLID_8310_">
					<path id="XMLID_8311_" class="st10" d="M742.6,874.1c-2.1,0-4.7-0.2-7.8-0.6c-10.6-1.3-17.4-7.2-17.7-7.5
						c-0.2-0.2-0.2-0.5,0-0.7c0.2-0.2,0.5-0.2,0.7,0c0.1,0.1,6.9,6,17.1,7.3c8.1,1,12.5,0.7,14.1-0.9c0.6-0.6,0.8-1.3,0.8-2.3
						c0-0.3,0.2-0.5,0.5-0.5c0.3,0,0.5,0.2,0.5,0.5c0.1,1.3-0.3,2.3-1.1,3.1C748.5,873.5,746.2,874.1,742.6,874.1z"/>
				</g>
				<g id="XMLID_8308_">
					<path id="XMLID_8309_" class="st10" d="M722.2,847.6c-4.7,0-7.6-0.6-9.2-1.9c-2-1.6-6.9-8.2-7.1-8.5c-0.2-0.2-0.1-0.5,0.1-0.7
						c0.2-0.2,0.5-0.1,0.7,0.1c0,0.1,5,6.7,6.9,8.3c1.6,1.3,5.1,1.9,10.7,1.7c4.1-0.1,7.1-0.6,8.8-0.9l0.7-0.1
						c0.5-0.1,0.8-0.2,0.9-0.5c0.1-0.2,0.2-1-1.2-2.9c-0.2-0.2-0.1-0.5,0.1-0.7c0.2-0.2,0.5-0.1,0.7,0.1c1.3,1.7,1.7,3,1.3,3.8
						c-0.2,0.6-0.8,0.9-1.7,1.1l-0.7,0.1c-1.7,0.3-4.8,0.7-8.9,0.9C723.5,847.6,722.8,847.6,722.2,847.6z"/>
				</g>
				<g id="XMLID_8306_">
					<path id="XMLID_8307_" class="st10" d="M727.9,844.2c-0.2,0-0.4-0.1-0.5-0.4c-1.8-6.8-6.4-12.9-6.4-13
						c-0.2-0.2-0.1-0.5,0.1-0.7c0.2-0.2,0.5-0.1,0.7,0.1c0.2,0.3,4.7,6.3,6.6,13.3c0.1,0.3-0.1,0.5-0.4,0.6
						C728,844.2,727.9,844.2,727.9,844.2z"/>
				</g>
				<g id="XMLID_8304_">
					<path id="XMLID_8305_" class="st10" d="M722.5,843.3c-0.2,0-0.4-0.1-0.5-0.3c-0.1-0.3,0-0.5,0.3-0.6c0.2-0.1,5.5-1.9,9-0.8
						c0.3,0.1,0.4,0.4,0.3,0.6c-0.1,0.3-0.4,0.4-0.6,0.3c-3.2-1-8.3,0.8-8.4,0.8C722.6,843.3,722.5,843.3,722.5,843.3z"/>
				</g>
				<g id="XMLID_8302_">
					<path id="XMLID_8303_" class="st10" d="M721.1,839.9c-0.2,0-0.4-0.1-0.5-0.3c-0.1-0.3,0-0.5,0.3-0.6c0.2-0.1,5.5-1.9,9-0.8
						c0.3,0.1,0.4,0.4,0.3,0.6c-0.1,0.3-0.4,0.4-0.6,0.3c-3.2-1-8.3,0.8-8.4,0.8C721.2,839.9,721.2,839.9,721.1,839.9z"/>
				</g>
				<g id="XMLID_8300_">
					<path id="XMLID_8301_" class="st10" d="M719.2,836.6c-0.2,0-0.4-0.1-0.5-0.3c-0.1-0.3,0-0.5,0.3-0.6c0.2-0.1,5.5-1.9,9-0.8
						c0.3,0.1,0.4,0.4,0.3,0.6c-0.1,0.3-0.4,0.4-0.6,0.3c-3.2-1-8.3,0.8-8.4,0.8C719.3,836.5,719.3,836.6,719.2,836.6z"/>
				</g>
				<g id="XMLID_8298_">
					<path id="XMLID_8299_" class="st10" d="M717.8,833.2c-0.2,0-0.4-0.1-0.5-0.3c-0.1-0.3,0-0.5,0.3-0.6c0.2-0.1,5.5-1.9,9-0.8
						c0.3,0.1,0.4,0.4,0.3,0.6c-0.1,0.3-0.4,0.4-0.6,0.3c-3.2-1-8.3,0.8-8.4,0.8C717.9,833.2,717.8,833.2,717.8,833.2z"/>
				</g>
				<g id="XMLID_8296_">
					<path id="XMLID_8297_" class="st10" d="M618.1,847.5C618.1,847.5,618.1,847.5,618.1,847.5c-0.6-0.1-5.4-1-6.4-2.9
						c-0.9-1.8,2.6-8.5,3.7-10.5c0.1-0.2,0.4-0.3,0.7-0.2c0.2,0.1,0.3,0.4,0.2,0.7c-2.1,3.9-4.1,8.7-3.7,9.6c0.5,1,3.3,1.8,5.2,2.2
						c0.5-1.1,1.9-4,4-3.8c2,0.2,3.2,2.6,3.5,3.4c3.9,0.3,8.2,0.3,8.9-0.1c0.4-0.3,1.6-2.4,2.5-4c1.9-3.4,3.2-5.6,4.3-6.1
						c0.3-0.1,0.5,0,0.7,0.3c0.1,0.3,0,0.5-0.3,0.7c-0.8,0.4-2.5,3.4-3.8,5.7c-1.4,2.4-2.2,4-2.8,4.4c-1.3,0.9-8.4,0.4-9.8,0.2
						c-0.2,0-0.4-0.1-0.4-0.3c-0.3-0.8-1.4-2.9-2.8-3.1c-1.4-0.2-2.7,2.5-3.1,3.5C618.5,847.4,618.3,847.5,618.1,847.5z"/>
				</g>
				<g id="XMLID_8294_">
					<path id="XMLID_8295_" class="st10" d="M623.1,842.7c-0.1,0-0.1,0-0.2,0c-0.3-0.1-0.4-0.4-0.3-0.6l5.8-15.6
						c0.1-0.3,0.4-0.4,0.6-0.3c0.3,0.1,0.4,0.4,0.3,0.6l-5.8,15.6C623.5,842.6,623.4,842.7,623.1,842.7z"/>
				</g>
				<g id="XMLID_8292_">
					<path id="XMLID_8293_" class="st10" d="M621.5,842.2C621.4,842.2,621.4,842.2,621.5,842.2c-0.3,0-0.5-0.3-0.5-0.5l1.3-15.7
						c0-0.3,0.3-0.5,0.5-0.5c0.3,0,0.5,0.3,0.5,0.5l-1.3,15.7C621.9,842,621.7,842.2,621.5,842.2z"/>
				</g>
				<g id="XMLID_8290_">
					<path id="XMLID_8291_" class="st10" d="M617.7,843.3c-0.2,0-0.4-0.1-0.4-0.3c-0.1-0.2,0-0.5,0.2-0.7c4.2-2.2,8.6-0.7,8.8-0.6
						c0.3,0.1,0.4,0.4,0.3,0.6c-0.1,0.3-0.4,0.4-0.6,0.3c0,0-4.1-1.5-7.9,0.5C617.9,843.3,617.8,843.3,617.7,843.3z"/>
				</g>
				<g id="XMLID_8288_">
					<path id="XMLID_8289_" class="st10" d="M619,840.8c-0.2,0-0.4-0.1-0.4-0.3c-0.1-0.2,0-0.5,0.2-0.7c4.2-2.2,8.6-0.7,8.8-0.6
						c0.3,0.1,0.4,0.4,0.3,0.6c-0.1,0.3-0.4,0.4-0.6,0.3c0,0-4.1-1.5-7.9,0.5C619.1,840.8,619.1,840.8,619,840.8z"/>
				</g>
				<g id="XMLID_8286_">
					<path id="XMLID_8287_" class="st10" d="M619.5,837.7c-0.2,0-0.4-0.1-0.4-0.3c-0.1-0.2,0-0.5,0.2-0.7c4.2-2.2,8.6-0.7,8.8-0.6
						c0.3,0.1,0.4,0.4,0.3,0.6c-0.1,0.3-0.4,0.4-0.6,0.3c0,0-4.1-1.5-7.9,0.5C619.7,837.7,619.6,837.7,619.5,837.7z"/>
				</g>
				<g id="XMLID_8284_">
					<path id="XMLID_8285_" class="st10" d="M620.1,835.5c-0.2,0-0.4-0.1-0.4-0.3c-0.1-0.2,0-0.5,0.2-0.7c4.2-2.2,8.6-0.7,8.8-0.6
						c0.3,0.1,0.4,0.4,0.3,0.6c-0.1,0.3-0.4,0.4-0.6,0.3c0,0-4.1-1.5-7.9,0.5C620.3,835.4,620.2,835.5,620.1,835.5z"/>
				</g>
				<g id="XMLID_8282_">
					<path id="XMLID_8283_" class="st10" d="M620.6,832.8c-0.2,0-0.4-0.1-0.4-0.3c-0.1-0.2,0-0.5,0.2-0.7c4.2-2.2,8.6-0.7,8.8-0.6
						c0.3,0.1,0.4,0.4,0.3,0.6c-0.1,0.3-0.4,0.4-0.6,0.3c0,0-4.1-1.5-7.9,0.5C620.8,832.8,620.7,832.8,620.6,832.8z"/>
				</g>
				<g id="XMLID_8280_">
					<path id="XMLID_8281_" class="st16" d="M620.9,830.2c-0.2,0-0.4-0.1-0.4-0.3c-0.1-0.2,0-0.5,0.2-0.7c4.2-2.2,8.6-0.7,8.8-0.6
						c0.3,0.1,0.4,0.4,0.3,0.6c-0.1,0.3-0.4,0.4-0.6,0.3c0,0-4.1-1.5-7.9,0.5C621.1,830.1,621,830.2,620.9,830.2z"/>
				</g>
				<g id="XMLID_8278_">
					<path id="XMLID_8279_" class="st17" d="M727.7,562.8c-9,0-15.6-5.8-15.7-5.8c-0.2-0.2-0.2-0.5,0-0.7c0.2-0.2,0.5-0.2,0.7,0
						c0.1,0.1,8.8,7.7,19.7,5c0.3-0.1,0.5,0.1,0.6,0.4c0.1,0.3-0.1,0.5-0.4,0.6C730.9,562.7,729.3,562.8,727.7,562.8z"/>
				</g>
				<g id="XMLID_8276_">
					<path id="XMLID_8277_" class="st17" d="M615.9,563.3c-0.3,0-0.5-0.2-0.5-0.5c0-0.3,0.2-0.5,0.5-0.5c6.4-0.5,10.3-2.3,10.3-2.4
						c0.2-0.1,0.5,0,0.7,0.2c0.1,0.2,0,0.5-0.2,0.7C626.4,560.9,622.6,562.8,615.9,563.3C615.9,563.3,615.9,563.3,615.9,563.3z"/>
				</g>
				<g id="XMLID_8274_">
					<path id="XMLID_8275_" class="st17" d="M616.7,566.8c-0.3,0-0.5-0.2-0.5-0.4c0-0.3,0.2-0.5,0.4-0.5c0.1,0,8.6-1,13-5.2
						c0.2-0.2,0.5-0.2,0.7,0c0.2,0.2,0.2,0.5,0,0.7C625.7,565.8,617.1,566.7,616.7,566.8C616.7,566.8,616.7,566.8,616.7,566.8z"/>
				</g>
				<g id="XMLID_8272_">
					<path id="XMLID_8273_" class="st17" d="M725.8,566.3c-11.3,0-16.3-8.6-16.3-8.7c-0.1-0.2,0-0.5,0.2-0.7c0.2-0.1,0.5,0,0.7,0.2
						c0,0,1.6,2.7,4.9,5c4.4,3,9.8,3.9,15.8,2.6c0.3-0.1,0.5,0.1,0.6,0.4c0.1,0.3-0.1,0.5-0.4,0.6
						C729.3,566.1,727.4,566.3,725.8,566.3z"/>
				</g>
				<g id="XMLID_8270_">
					<path id="XMLID_8271_" class="st17" d="M672,613.4c-0.3,0-0.5-0.2-0.5-0.5l-3.2-52.5c0-0.3,0.2-0.5,0.5-0.5
						c0.3,0,0.5,0.2,0.5,0.5l3.2,52.5C672.5,613.1,672.3,613.4,672,613.4C672,613.4,672,613.4,672,613.4z"/>
				</g>
				<g id="XMLID_8268_">
					<path id="XMLID_8269_" class="st17" d="M673.2,598.6c-0.2,0-0.4-0.2-0.5-0.4c-0.1-0.3,0.1-0.5,0.4-0.6l5.2-1.1
						c7.1-1.8,5.2-27.3,3.9-37c0-0.3,0.2-0.5,0.4-0.6c0.3,0,0.5,0.2,0.6,0.4c0.2,1.5,4.8,35.8-4.6,38.1l-5.2,1.1
						C673.3,598.6,673.2,598.6,673.2,598.6z"/>
				</g>
			</g>
			<g id="XMLID_8265_">
				<path id="XMLID_8266_" class="st18" d="M664.1,543.7c-18.4,0-42.7-1.8-43-1.8c-0.3,0-0.5-0.3-0.5-0.5c0-0.3,0.3-0.5,0.5-0.5
					c0.4,0,44.6,3.3,58.9,1c14.4-2.4,46.3-1,46.6-1c0.3,0,0.5,0.2,0.5,0.5c0,0.3-0.2,0.5-0.5,0.5c-0.3,0-32.1-1.3-46.4,1
					C676.4,543.5,670.6,543.7,664.1,543.7z"/>
			</g>
			<g id="XMLID_8263_">
				<path id="XMLID_8264_" class="st18" d="M664.3,360c-15.2,0-22.6-10.4-22.7-10.5c-0.2-0.2-0.1-0.5,0.1-0.7
					c0.2-0.2,0.5-0.1,0.7,0.1c0,0,2.5,3.5,7.4,6.3c4.5,2.6,12.1,5.2,22.6,2.8c18.9-4.3,19.9-10,20.4-13.1c0-0.2,0.1-0.5,0.1-0.7
					c0.1-0.3,0.3-0.4,0.6-0.4c0.3,0.1,0.4,0.3,0.4,0.6c0,0.2-0.1,0.4-0.1,0.7c-0.6,3.3-1.6,9.4-21.2,13.9
					C669.6,359.7,666.8,360,664.3,360z"/>
			</g>
			<g id="XMLID_8258_">
				<path id="XMLID_8262_" class="st14" d="M676.3,273.9c-3.2-6.8-8.5-7.6-12.1-7.6s-9.2,5.6-10.9,5.6s-8.4-0.6-12.2-0.8
					s-7.5,2.5-9.7,8.9s0.9,15.6,1,18.7s-0.4,7.4-0.4,7.4s-0.6,5.9,3.1,11.6s11.8,11.6,12.9,12.8s9.6,11,19.1,8.4s11.7-7.6,14.1-13.7
					s5-10.4,5.4-14.7l0.7-4.8c-0.9-5.7-2.4-10.7-2.7-14c-1.1-3.2-2.6-7.5-3.1-9.9C680.6,277.9,679.4,280.8,676.3,273.9z"/>
				<path id="XMLID_8259_" class="st16" d="M687.5,307.6l0.3-1.6c0-0.1,0-0.1,0-0.2c-0.4-2.8-1-5.4-1.5-7.7c-0.5-2.4-1-4.6-1.2-6.2
					c0,0,0-0.1,0-0.1c-0.2-0.6-0.4-1.2-0.6-1.8c-0.7-8.7-3.9-35.3-36.2-31.7c0,0-9.1-0.3-17.6,11.6s-5,23.4-2,32.4
					c0,0,8.3,25.5,11.8,30.8s15.8,14.7,27.4,12.3s17.7-15,19.7-25.8C688.1,315.5,688,311.4,687.5,307.6z M685.2,298.3
					c0.5,2.3,1.1,4.9,1.5,7.6l-0.7,4.7c-0.3,2.9-1.5,5.8-3.2,9.4c-0.7,1.6-1.4,3.2-2.2,5.1c-2.2,5.5-4.3,10.7-13.8,13.4
					c-8.1,2.2-15.6-4.9-18.5-8.1l-0.1-0.1c-0.3-0.3-1.1-1-2.1-1.9c-2.8-2.4-8-6.8-10.7-10.9c-3.5-5.4-3.1-11.2-3-11.2
					c0-0.2,0.5-4.4,0.4-7.5c0-0.9-0.3-2.2-0.6-3.8c-0.8-4.1-2-10.2-0.4-14.7c1.9-5.5,5.1-8.5,9-8.5c0.1,0,0.2,0,0.2,0
					c1.8,0.1,4.3,0.3,6.6,0.4c2.5,0.2,4.7,0.4,5.7,0.3c0.8,0,2-0.8,3.9-2.1c2.2-1.5,5-3.5,7-3.5c5.5-0.1,9.3,2.3,11.7,7.3
					c1.7,3.7,2.9,4.6,3.7,5.3c0.7,0.6,1.1,0.9,1.4,2.6c0.5,2.4,1.9,6.7,3.1,9.9C684.2,293.7,684.7,295.8,685.2,298.3z"/>
			</g>
			<g id="XMLID_8243_">
				<g id="XMLID_8256_">
					<path id="XMLID_8257_" class="st16" d="M647.7,323.5c-0.1,0-0.1,0-0.2,0c-0.3-0.1-0.4-0.4-0.3-0.7l0.9-2.2
						c0.1-0.3,0.4-0.4,0.7-0.3c0.3,0.1,0.4,0.4,0.3,0.7l-0.9,2.2C648.1,323.4,647.9,323.5,647.7,323.5z"/>
				</g>
				<g id="XMLID_8254_">
					<path id="XMLID_8255_" class="st16" d="M649.4,322.4c-0.1,0-0.1,0-0.2,0c-0.3-0.1-0.4-0.4-0.3-0.7l0.9-2.2
						c0.1-0.3,0.4-0.4,0.7-0.3c0.3,0.1,0.4,0.4,0.3,0.7l-0.9,2.2C649.8,322.3,649.6,322.4,649.4,322.4z"/>
				</g>
				<g id="XMLID_8252_">
					<path id="XMLID_8253_" class="st16" d="M651.6,320.8c-0.1,0-0.1,0-0.2,0c-0.3-0.1-0.4-0.4-0.3-0.7l0.9-2.2
						c0.1-0.3,0.4-0.4,0.7-0.3c0.3,0.1,0.4,0.4,0.3,0.7l-0.9,2.2C651.9,320.7,651.8,320.8,651.6,320.8z"/>
				</g>
				<g id="XMLID_8250_">
					<path id="XMLID_8251_" class="st16" d="M653.2,319.7c-0.1,0-0.1,0-0.2,0c-0.3-0.1-0.4-0.4-0.3-0.7l0.9-2.2
						c0.1-0.3,0.4-0.4,0.7-0.3c0.3,0.1,0.4,0.4,0.3,0.7l-0.9,2.2C653.6,319.6,653.4,319.7,653.2,319.7z"/>
				</g>
				<g id="XMLID_8248_">
					<path id="XMLID_8249_" class="st16" d="M655.1,319.1c-0.1,0-0.1,0-0.2,0c-0.3-0.1-0.4-0.4-0.3-0.7l0.9-2.2
						c0.1-0.3,0.4-0.4,0.7-0.3c0.3,0.1,0.4,0.4,0.3,0.7l-0.9,2.2C655.5,318.9,655.3,319.1,655.1,319.1z"/>
				</g>
				<g id="XMLID_8246_">
					<path id="XMLID_8247_" class="st16" d="M656.9,319.1c-0.1,0-0.1,0-0.2,0c-0.3-0.1-0.4-0.4-0.3-0.7l0.9-2.2
						c0.1-0.3,0.4-0.4,0.7-0.3c0.3,0.1,0.4,0.4,0.3,0.7l-0.9,2.2C657.3,318.9,657.1,319.1,656.9,319.1z"/>
				</g>
				<g id="XMLID_8244_">
					<path id="XMLID_8245_" class="st16" d="M658.9,318.6c-0.1,0-0.1,0-0.2,0c-0.3-0.1-0.4-0.4-0.3-0.7l0.9-2.2
						c0.1-0.3,0.4-0.4,0.7-0.3c0.3,0.1,0.4,0.4,0.3,0.7l-0.9,2.2C659.2,318.5,659.1,318.6,658.9,318.6z"/>
				</g>
			</g>
			<g id="XMLID_8228_">
				<g id="XMLID_8241_">
					<path id="XMLID_8242_" class="st16" d="M681.1,320.2c-0.2,0-0.4-0.1-0.4-0.3l-1-2.1c-0.1-0.2,0-0.5,0.2-0.7
						c0.2-0.1,0.5,0,0.7,0.2l1,2.1c0.1,0.2,0,0.5-0.2,0.7C681.3,320.1,681.2,320.2,681.1,320.2z"/>
				</g>
				<g id="XMLID_8239_">
					<path id="XMLID_8240_" class="st16" d="M679.4,319.2c-0.2,0-0.4-0.1-0.4-0.3l-1-2.1c-0.1-0.2,0-0.5,0.2-0.7
						c0.2-0.1,0.5,0,0.7,0.2l1,2.1c0.1,0.2,0,0.5-0.2,0.7C679.5,319.2,679.4,319.2,679.4,319.2z"/>
				</g>
				<g id="XMLID_8237_">
					<path id="XMLID_8238_" class="st16" d="M677.1,317.8c-0.2,0-0.4-0.1-0.4-0.3l-1-2.1c-0.1-0.2,0-0.5,0.2-0.7
						c0.2-0.1,0.5,0,0.7,0.2l1,2.1c0.1,0.2,0,0.5-0.2,0.7C677.2,317.8,677.1,317.8,677.1,317.8z"/>
				</g>
				<g id="XMLID_8235_">
					<path id="XMLID_8236_" class="st16" d="M675.3,316.9c-0.2,0-0.4-0.1-0.4-0.3l-1-2.1c-0.1-0.2,0-0.5,0.2-0.7
						c0.2-0.1,0.5,0,0.7,0.2l1,2.1c0.1,0.2,0,0.5-0.2,0.7C675.5,316.8,675.4,316.9,675.3,316.9z"/>
				</g>
				<g id="XMLID_8233_">
					<path id="XMLID_8234_" class="st16" d="M673.4,316.4c-0.2,0-0.4-0.1-0.4-0.3l-1-2.1c-0.1-0.2,0-0.5,0.2-0.7
						c0.2-0.1,0.5,0,0.7,0.2l1,2.1c0.1,0.2,0,0.5-0.2,0.7C673.5,316.3,673.5,316.4,673.4,316.4z"/>
				</g>
				<g id="XMLID_8231_">
					<path id="XMLID_8232_" class="st16" d="M671.6,316.5c-0.2,0-0.4-0.1-0.4-0.3l-1-2.1c-0.1-0.2,0-0.5,0.2-0.7
						c0.2-0.1,0.5,0,0.7,0.2l1,2.1c0.1,0.2,0,0.5-0.2,0.7C671.7,316.5,671.6,316.5,671.6,316.5z"/>
				</g>
				<g id="XMLID_8229_">
					<path id="XMLID_8230_" class="st16" d="M669.6,316.2c-0.2,0-0.4-0.1-0.4-0.3l-1-2.1c-0.1-0.2,0-0.5,0.2-0.7
						c0.2-0.1,0.5,0,0.7,0.2l1,2.1c0.1,0.2,0,0.5-0.2,0.7C669.8,316.2,669.7,316.2,669.6,316.2z"/>
				</g>
			</g>
			<g id="XMLID_8226_">
				<path id="XMLID_8227_" class="st16" d="M660.9,333.7c0,0-0.1,0-0.1,0c-0.3-0.1-0.4-0.4-0.3-0.6l0.3-1c0.1-0.3,0.4-0.4,0.6-0.3
					c0.3,0.1,0.4,0.4,0.3,0.6l-0.3,1C661.3,333.6,661.1,333.7,660.9,333.7z"/>
			</g>
			<g id="XMLID_8224_">
				<path id="XMLID_8225_" class="st16" d="M662.2,334.5C662.2,334.5,662.2,334.5,662.2,334.5c-0.4-0.1-0.5-0.3-0.5-0.6l0.3-1.8
					c0-0.3,0.3-0.5,0.6-0.4c0.3,0,0.5,0.3,0.4,0.6l-0.3,1.8C662.7,334.3,662.5,334.5,662.2,334.5z"/>
			</g>
			<g id="XMLID_8222_">
				<path id="XMLID_8223_" class="st16" d="M663.7,334.2c0,0-0.1,0-0.1,0c-0.3-0.1-0.4-0.3-0.4-0.6l0.4-1.6c0.1-0.3,0.3-0.4,0.6-0.4
					c0.3,0.1,0.4,0.3,0.4,0.6l-0.4,1.6C664.1,334,663.9,334.2,663.7,334.2z"/>
			</g>
			<g id="XMLID_8220_">
				<path id="XMLID_8221_" class="st16" d="M665,333.8c-0.1,0-0.1,0-0.2,0c-0.3-0.1-0.4-0.4-0.3-0.7l0.8-1.8
					c0.1-0.3,0.4-0.4,0.7-0.3c0.3,0.1,0.4,0.4,0.3,0.7l-0.8,1.8C665.4,333.7,665.2,333.8,665,333.8z"/>
			</g>
			<g id="XMLID_8218_">
				<path id="XMLID_8219_" class="st16" d="M666.4,334.2c0,0-0.1,0-0.1,0c-0.3-0.1-0.4-0.3-0.4-0.6l0.6-2.5c0.1-0.3,0.3-0.4,0.6-0.4
					c0.3,0.1,0.4,0.3,0.4,0.6l-0.6,2.5C666.9,334,666.7,334.2,666.4,334.2z"/>
			</g>
			<g id="XMLID_8216_">
				<path id="XMLID_8217_" class="st16" d="M668.1,332.9c-0.1,0-0.1,0-0.2,0c-0.3-0.1-0.4-0.4-0.3-0.6l0.5-1.5
					c0.1-0.3,0.4-0.4,0.6-0.3c0.3,0.1,0.4,0.4,0.3,0.6l-0.5,1.5C668.5,332.8,668.3,332.9,668.1,332.9z"/>
			</g>
			<g id="XMLID_8214_">
				<path id="XMLID_8215_" class="st18" d="M740.8,423.8c-0.3,0-0.5-0.2-0.5-0.5c0-0.3-1.8-33-6.3-46c-0.1-0.3,0.1-0.5,0.3-0.6
					c0.3-0.1,0.5,0.1,0.6,0.3c4.5,13.2,6.3,46,6.3,46.3C741.3,423.6,741.1,423.8,740.8,423.8C740.8,423.8,740.8,423.8,740.8,423.8z"
					/>
			</g>
		</g>
		<g id="XMLID_8148_">
			<g id="XMLID_8193_">
				<path id="XMLID_8212_" class="st19" d="M581.9,809.1c0,0-1.6,16.2-1.5,20.1c0,4-0.7,13.3-0.7,13.3l-4,1.5l0.4-26.9L581.9,809.1z
					"/>
				<path id="XMLID_8211_" class="st19" d="M540.5,825.7c0,0-1,3.1-1,3.6c0,0.5,0,2.7,0,2.7s-1.6,4.3-1.4,6.7c0.3,2.3-1,13.1-1,13.1
					s10.5,0.2,14.5,0.8s9.9,1.9,9.9,1.9s1.1-14.7,1.1-16.6c0-2,2.4-8.5,2.4-8.5L540.5,825.7z"/>
				<polygon id="XMLID_8210_" class="st20" points="575.6,844.1 569.3,842 568.4,825.3 576,817.2 				"/>
				<path id="XMLID_8209_" class="st21" d="M538.8,808.6c0,0-2.1-0.7-2.1,3.3s0.5,10.5,2.1,12.5c1.6,1.9,7.5,4.7,17.9,4.9
					c10.4,0.2,12.6,0,13.3-2.9c0.6-2.9,3.3-14.3,0.7-14.6C568,811.5,538.8,808.6,538.8,808.6z"/>
				<path id="XMLID_8208_" class="st22" d="M524.9,552.9c0,0-5.8,48.5-3.6,66.3c2.2,17.8,13.3,59.5,13.3,63.5s-0.2,10,0.8,13.7
					s0,11.7,2.3,15.2c2.3,3.5,5.8,37.2,5.8,37.2s-2.1,10.2-1.9,17.3s1.6,23.3,1.4,24.4s-4.3,16.9-4.3,16.9s-1.5,3.1,4.8,5.1
					s19.9,3.1,22.1,2.9s5.3-3.4,5.3-4.4s0-9.9,0-12.3s5.9-19,6.3-22.9s6.3-54.6,6.4-68.4s5.1-30.9,5.1-30.9s20.1-48.3,21.6-57.4
					s5.8-50.8,5.5-57.4s0-13.9,0-13.9L524.9,552.9z"/>
				<path id="XMLID_8207_" class="st23" d="M595.4,392.8l6.6,1.3c0,0-6.2,15.5-1,29.2c5.2,13.7,8.8,15.6,8.8,15.6s3,42.2,3.3,51.7
					c0.3,9.5,0.3,17,2.8,29.2c2.5,12.2,2,27.2,2,27.2s-29.2,15.1-59.3,13.7c-30.2-1.4-36.3-9.9-36.3-9.9s4.2-29.2,4.5-36.8
					c0.3-7.7-1.8-33.3-4.5-39.5c-2.7-6.2-9.7-37-9.7-37s0.6-12.4,2.7-26.4c0,0,2.3-15.1,11.6-15.2
					C536.3,395.6,595.4,392.8,595.4,392.8z"/>
				<path id="XMLID_8206_" class="st24" d="M531.4,378.1c0,0,4.7,23.6,4.6,25.6c-0.2,2-0.2,4.2,1.7,5.5c3.2,2.4,4-1.5,7.3,8.5
					c3.3,10,8.3,27,8.3,27s3-0.7,5.8-8.5c2.8-7.8,10.3-59,10.3-59L531.4,378.1z"/>
				<path id="XMLID_8205_" class="st25" d="M537.6,314.9c0,0-5.3,0.2-12.3,6.6c-5,4.6-8.5,10.7-10.1,17.3c-0.6,2.5-1.2,5.5-1.8,9.1
					c-1.8,11.8-18.9,10.2-22.7,1.6c0,0,5.9,15.8,22,5.4c0,0-3.1,14.5-15.7,12.4c0,0,3,3.8,9.1,2.1c0,0-10.5,14,9.4,28.8
					c0,0-14.3-16.9-4.2-29.3c0,0-3.1,12.2,2.9,22.3c6,10.1,12,8.8,12,8.8s-8.9-4.1-10.1-14.2c0,0,7.3,10.4,19.5,14.2l-3.5-19.2
					c0,0-13.3-53.1,11.4-59.9L537.6,314.9z"/>
				<path id="XMLID_8204_" class="st25" d="M537.6,314.9c0,0,5.3-4.9,9.5-4.5c4.2,0.5,23.3,2.8,31.7,28c8.3,25.2,11.6,21.1,15.8,49
					s1.9,33.3,3.1,41.5s-1,18.4-15,20.1c0,0-4.5,3.1,5.6,7.9c0,0-9.9,6.8-18.9-6.4c0,0-8.5,6.6-16.4,2.3c0,0,6.5-1.5,7.4-6.4
					c0,0-8,4.8-14,3.4s-6.3-3.6-6.3-3.6s15.3,1.6,15.5-8s1.5-27.3,3.8-32.8s10-28.5,9.9-32.9s-7.3-48-26.5-51.5L537.6,314.9z"/>
				<path id="XMLID_8203_" class="st26" d="M543.5,321c0,0-6.7,1.7-8.8,5.5c-2.2,3.8-9.7,20-10.3,21.8c-0.7,1.8-2.6,34.9,23.5,40
					c18.8,3.7,23.3-12.7,24.3-21.6c0.4-3,0.1-6.1-0.8-9c-1.6-5.6-4.6-15.9-4.6-18.7C566.8,335.1,565,320.1,543.5,321z"/>
				<path id="XMLID_8202_" class="st19" d="M580.3,799.1c0,0,2.5,6.4,1.6,10s-11.2,13.6-11.2,13.6l0.3-17.6L580.3,799.1z"/>
				<polygon id="XMLID_8201_" class="st27" points="578.4,786.6 577.1,776.8 573.6,789.1 				"/>
				<path id="XMLID_8200_" class="st21" d="M573.6,789.1c0,0,4.3-4.1,4.8-2.5s2.4,11.1,1.9,12.5s-9.3,6-9.3,6
					S569.9,796.1,573.6,789.1z"/>
				<path id="XMLID_8199_" class="st19" d="M534.9,876.1c0,0-0.7,10.2,3.1,11.1s14.8,0.8,16.2,0.6c1.3-0.1,5.1-1.4,5.6-4.6
					s0.9-7.5,0.9-7.5L534.9,876.1z"/>
				<path id="XMLID_8198_" class="st20" d="M533.6,871.6c0,0-0.9,9.1,13.3,9.1s15.7-7.7,14.2-9.4L533.6,871.6z"/>
				<path id="XMLID_8197_" class="st26" d="M537.1,851.7c0,0-5.1,12.4-4.3,17.4c0,0,2,7.3,6.9,7.8s6.3-0.6,6.3-0.6s1.5,1.6,4,1.4
					s2.8-1.6,2.8-1.6s2.5-0.1,3.9-1c0,0,3.1,0.8,4.1-2.6s1.8-3.9,1.6-8.2c-0.1-4.3-0.9-9.8-0.9-9.8S556.3,851.9,537.1,851.7z"/>
				<path id="XMLID_8196_" class="st19" d="M533.2,870.1c0,0,2-9.2,17-7.6s11.7,6.2,11.7,6.2l-0.9,2.7c0,0-2.1-4.5-12.7-4.5
					s-13.7,6.3-13.7,6.3L533.2,870.1z"/>
				<path id="XMLID_8195_" class="st26" d="M538.7,834.5c0,0-5.1,3.7-5.1,4.2c0,0.5-0.4,1.9-0.4,1.9s-1.7,2-0.4,3s2,3.5,4.9,2.7
					L538.7,834.5z"/>
				<polygon id="XMLID_8194_" class="st20" points="535.5,846.1 536.6,853 537.7,846.2 				"/>
			</g>
			<g id="XMLID_8191_">
				<path id="XMLID_8192_" class="st28" d="M543.4,563.5c-0.1,0-0.1,0-0.2,0l-14.1-6.4c-0.3-0.1-0.4-0.4-0.3-0.7
					c0.1-0.3,0.4-0.4,0.7-0.3l14.1,6.4c0.3,0.1,0.4,0.4,0.3,0.7C543.7,563.4,543.6,563.5,543.4,563.5z"/>
			</g>
			<g id="XMLID_8189_">
				<path id="XMLID_8190_" class="st28" d="M566.5,565.5C566.5,565.5,566.5,565.5,566.5,565.5l-20.6-0.9c-0.3,0-0.5-0.2-0.5-0.5
					c0-0.3,0.3-0.5,0.5-0.5l20.6,0.9c0.3,0,0.5,0.2,0.5,0.5C567,565.3,566.8,565.5,566.5,565.5z"/>
			</g>
			<g id="XMLID_8187_">
				<path id="XMLID_8188_" class="st28" d="M573.4,565.5c-0.3,0-0.5-0.2-0.5-0.5c0-0.3,0.2-0.5,0.5-0.5c0.3,0,29.4-1.5,33.1-2
					c3.7-0.5,6.9-1.2,7-1.2c0.3-0.1,0.5,0.1,0.6,0.4c0.1,0.3-0.1,0.5-0.4,0.6c0,0-3.3,0.8-7,1.3C602.8,564,574.6,565.4,573.4,565.5
					C573.4,565.5,573.4,565.5,573.4,565.5z"/>
			</g>
			<g id="XMLID_8183_">
				<path id="XMLID_8184_" class="st28" d="M569.9,571.7h-4.3c-0.2,0-0.4-0.1-0.5-0.3c-0.1-0.2,0-0.4,0.1-0.6c0,0,3.1-2.8,1.2-10.1
					c0-0.1,0-0.3,0.1-0.4c0.1-0.1,0.2-0.2,0.4-0.2l3.8-0.2c0.2,0,0.3,0.1,0.4,0.2c0.1,0.2,3.5,4.8-0.9,11.4
					C570.2,571.6,570,571.7,569.9,571.7z M566.7,570.7h2.9c3.3-5.2,1.5-8.9,0.9-9.8l-2.9,0.2C568.9,566.3,567.6,569.3,566.7,570.7z"
					/>
			</g>
			<g id="XMLID_8181_">
				<path id="XMLID_8182_" class="st28" d="M527.3,563.5H525c-0.3,0-0.5-0.2-0.5-0.5c0-0.3,0.2-0.5,0.5-0.5h1.8l1.2-7.7
					c0-0.3,0.3-0.5,0.6-0.4c0.3,0,0.5,0.3,0.4,0.6l-1.3,8.2C527.7,563.3,527.5,563.5,527.3,563.5z"/>
			</g>
			<g id="XMLID_8179_">
				<path id="XMLID_8180_" class="st28" d="M559.8,598.9c-0.1,0-0.3-0.1-0.4-0.2c0,0-1.9-2-5.9-6.1c-4.1-4.2-9.5-15.4-9.5-18.7
					c0-3.1-1.1-14.6-1.1-14.7c0-0.3,0.2-0.5,0.4-0.5c0.3,0,0.5,0.2,0.5,0.4c0,0.5,1.1,11.7,1.1,14.8c0,3.1,5.3,14,9.2,18
					c4,4.1,5.9,6.1,5.9,6.1c0.2,0.2,0.2,0.5,0,0.7C560,598.8,559.9,598.9,559.8,598.9z"/>
			</g>
			<g id="XMLID_8177_">
				<path id="XMLID_8178_" class="st28" d="M552.8,586.9c-0.2,0-0.3-0.1-0.4-0.2c-0.2-0.2-0.1-0.5,0.1-0.7c0.2-0.1,5-3.5,2.1-7.8
					c-3.2-4.9-2.2-11.7-2.2-12c0-0.3,0.3-0.5,0.6-0.4c0.3,0,0.5,0.3,0.4,0.6c0,0.1-0.9,6.7,2,11.3c3.4,5.1-2.4,9.1-2.4,9.2
					C553,586.9,552.9,586.9,552.8,586.9z"/>
			</g>
			<g id="XMLID_8175_">
				<path id="XMLID_8176_" class="st28" d="M585.9,575.1c-3.7,0-7-0.1-8.6-0.2c-1.1-0.1-1.9-0.6-2.4-1.4c-1.3-2.5,1.1-7.2,1.2-7.4
					c0.1-0.2,0.4-0.3,0.7-0.2c0.2,0.1,0.3,0.4,0.2,0.7c-0.6,1.2-2.1,4.8-1.2,6.5c0.3,0.5,0.8,0.8,1.6,0.9c4.7,0.5,24.5,0,24.7,0
					c0.3,0,0.5,0.2,0.5,0.5c0,0.3-0.2,0.5-0.5,0.5C601.6,574.9,593.1,575.1,585.9,575.1z"/>
			</g>
			<g id="XMLID_8173_">
				<path id="XMLID_8174_" class="st28" d="M575.6,772.6C575.6,772.6,575.5,772.6,575.6,772.6c-0.4-0.1-0.5-0.3-0.5-0.6
					c1-5.8,4.9-68.4,4.5-73.6c-0.4-5.5,11.3-39.5,11.8-40.9c0.1-0.5,11.3-50.8,13.1-63.7c1.8-12.8-0.6-29-0.6-29.2
					c0-0.3,0.1-0.5,0.4-0.6c0.3,0,0.5,0.1,0.6,0.4c0,0.2,2.5,16.5,0.6,29.5c-1.9,12.9-13,63.3-13.1,63.8
					c-0.1,0.4-12.1,35.3-11.7,40.6c0.4,5.2-3.5,68.1-4.5,73.9C576,772.5,575.8,772.6,575.6,772.6z"/>
			</g>
			<g id="XMLID_8171_">
				<path id="XMLID_8172_" class="st28" d="M543.9,727.6C543.9,727.6,543.9,727.6,543.9,727.6c-0.3,0-0.5-0.3-0.5-0.5
					c0-0.5,3.3-46.6,4.4-55.3c1.1-8.7,11.4-70.4,11.5-71c0-0.3,0.3-0.5,0.6-0.4c0.3,0,0.5,0.3,0.4,0.6c-0.1,0.6-10.4,62.3-11.5,71
					c-1.1,8.6-4.3,54.8-4.4,55.2C544.4,727.4,544.1,727.6,543.9,727.6z"/>
			</g>
			<g id="XMLID_8169_">
				<path id="XMLID_8170_" class="st28" d="M607,567.6c-0.2,0-0.5-0.2-0.5-0.4c0-0.3,0.2-0.5,0.4-0.6l6.5-0.9c0.3,0,0.5,0.2,0.6,0.4
					c0,0.3-0.2,0.5-0.4,0.6L607,567.6C607,567.6,607,567.6,607,567.6z"/>
			</g>
			<g id="XMLID_8167_">
				<path id="XMLID_8168_" class="st0" d="M525.6,373.1h-2.6c-0.3,0-0.5-0.2-0.5-0.5v-4.3c0-0.3,0.2-0.5,0.5-0.5
					c0.3,0,0.5,0.2,0.5,0.5v3.8h1.6v-1.9c0-0.3,0.2-0.5,0.5-0.5c0.3,0,0.5,0.2,0.5,0.5v2.4C526.1,372.9,525.8,373.1,525.6,373.1z"/>
			</g>
			<path id="XMLID_8166_" class="st26" d="M602,394.1c0,0,15.4,0.2,19.9,16.9c4.5,16.7,7.6,62.8,7.6,62.8s-14-14.3-17.1-22.8
				s-6.6-17.1-6.6-17.1S592,411.3,602,394.1z"/>
			<path id="XMLID_8165_" class="st26" d="M521.4,351.5c0,0-1.4-1-1.4,1s0.2,6.1-0.4,7.6c-0.6,1.5-0.6,1.5-0.6,1.5s3.5,11.8,7.7,7.2
				C526.6,368.9,524.7,357.2,521.4,351.5z"/>
			<g id="XMLID_8163_">
				<path id="XMLID_8164_" class="st29" d="M542.3,320.9c-0.2,0-0.3-0.1-0.4-0.2c-0.1-0.2-2.6-4.2-0.4-7.2c0.2-0.2,0.5-0.3,0.7-0.1
					c0.2,0.2,0.3,0.5,0.1,0.7c-1.9,2.5,0.4,6,0.4,6.1c0.1,0.2,0.1,0.5-0.2,0.7C542.5,320.8,542.4,320.9,542.3,320.9z"/>
			</g>
			<g id="XMLID_8161_">
				<path id="XMLID_8162_" class="st29" d="M543.9,320.6c-0.2,0-0.4-0.1-0.5-0.3c-0.1-0.1-1.3-3.5,0-5.6c0.1-0.2,0.5-0.3,0.7-0.1
					c0.2,0.1,0.3,0.5,0.1,0.7c-1.1,1.7,0,4.7,0,4.7c0.1,0.3,0,0.5-0.3,0.6C544,320.6,543.9,320.6,543.9,320.6z"/>
			</g>
			<g id="XMLID_8159_">
				<path id="XMLID_8160_" class="st29" d="M545.6,319.5c-0.1,0-0.2,0-0.3-0.1c-0.5-0.5-1.2-1.8-0.1-3.4c0.2-0.2,0.5-0.3,0.7-0.1
					c0.2,0.2,0.3,0.5,0.1,0.7c-0.9,1.2-0.1,2-0.1,2.1c0.2,0.2,0.2,0.5,0,0.7C545.8,319.5,545.7,319.5,545.6,319.5z"/>
			</g>
			<g id="XMLID_8157_">
				<path id="XMLID_8158_" class="st29" d="M548.1,319.5C548.1,319.5,548.1,319.5,548.1,319.5c-0.3,0-0.5-0.3-0.5-0.5
					c0-0.1,0.2-2.4,1.9-3.7c1.2-0.9,2.8-1,4.9-0.5c0.3,0.1,0.4,0.3,0.3,0.6c-0.1,0.3-0.4,0.4-0.6,0.3c-1.7-0.5-3-0.4-4,0.3
					c-1.4,1-1.5,3-1.5,3C548.6,319.3,548.4,319.5,548.1,319.5z"/>
			</g>
			<g id="XMLID_8155_">
				<path id="XMLID_8156_" class="st29" d="M551.2,319.5c-0.1,0-0.1,0-0.2,0c-0.3-0.1-0.4-0.4-0.3-0.6c0-0.1,0.9-2.2,4.8-1.2
					c0.3,0.1,0.4,0.3,0.4,0.6c-0.1,0.3-0.3,0.4-0.6,0.4c-3-0.8-3.5,0.5-3.6,0.6C551.6,319.4,551.4,319.5,551.2,319.5z"/>
			</g>
			<g id="XMLID_8153_">
				<path id="XMLID_8154_" class="st29" d="M536.1,321.1c-0.2,0-0.3-0.1-0.4-0.2c-0.2-0.2-0.1-0.5,0.1-0.7c2-1.4,4.2-1,4.3-1
					c0.3,0.1,0.4,0.3,0.4,0.6c-0.1,0.3-0.3,0.4-0.6,0.4c0,0-1.9-0.4-3.5,0.8C536.3,321.1,536.2,321.1,536.1,321.1z"/>
			</g>
			<g id="XMLID_8151_">
				<path id="XMLID_8152_" class="st29" d="M538.8,318.6c-0.2,0-0.3-0.1-0.4-0.2c0-0.1-0.7-1-2.7-0.9c-0.3,0-0.5-0.2-0.5-0.5
					c0-0.3,0.2-0.5,0.5-0.5c2.7-0.2,3.6,1.3,3.6,1.4c0.1,0.2,0.1,0.5-0.2,0.7C538.9,318.6,538.8,318.6,538.8,318.6z"/>
			</g>
			<g id="XMLID_8149_">
				<path id="XMLID_8150_" class="st29" d="M563.3,324.4c-0.1,0-0.3-0.1-0.4-0.2c-2-2.5-6.1-1.6-6.1-1.6c-0.3,0.1-0.5-0.1-0.6-0.4
					c-0.1-0.3,0.1-0.5,0.4-0.6c0.2,0,4.7-1.1,7.1,1.9c0.2,0.2,0.1,0.5-0.1,0.7C563.5,324.4,563.4,324.4,563.3,324.4z"/>
			</g>
		</g>
		<g id="XMLID_8121_">
			<g id="XMLID_8131_">
				<path id="XMLID_8147_" class="st14" d="M745.1,829c0,0-6,3.8-4,12.6s5.3,22,15,29.3s29.4-0.1,30.3-1.4c0,0,2.5-0.3,0-5.6
					s-8.1-19.8-9.4-21.2c-1.3-1.4-3.7-8.4-3.7-8.4S773.1,827.5,745.1,829z"/>
				<path id="XMLID_8146_" class="st14" d="M797.8,836.9c0,0-1.7,9.9,0.7,14.1s14.8,4.8,20.8,10.6s12.8,17,36.8,16.6
					s-5.1-26.7-5.1-26.7s-5.1-4.4-5.9-5.1s-1-9.7-7.5-10.9C830.9,834.3,797.8,836.9,797.8,836.9z"/>
				<path id="XMLID_8145_" class="st30" d="M836.6,309.1c0,0-0.8,10.7,5.2,12.5c0,0,0.9,15.9-27.1,18.2c-28,2.3-22.9-17.4-22.9-17.4
					L836.6,309.1z"/>
				<path id="XMLID_8144_" class="st31" d="M737.3,543.2c0,0-5.5,79.8-2.5,106.5c3,26.7,3.4,47.5-0.9,66
					c-4.3,18.5-1.2,91.7,1.7,95.2s7,8.8,7.5,13c1.1,8.8,6.7,6.1,10.7,6.8c4,0.7,16.8,0.1,19.5,3.7c2.7,3.6,1.7-5.4,3.7-8.5
					c2-3.1,1.7-9.1,1-11.6c-0.7-2.5-8.3-18-5.3-26s4.3-11.7,4.7-16.3c0.3-4.6,1.8-59.1,2.5-74.4c0.7-15.3,7.7-56,8.3-57.7
					c0.7-1.7,12.2-26.5,12.2-26.5s3.7,27.3,3.7,37.3s-0.8,53.7-1,60.8c-0.2,7.2-3.7,28.3-2.7,38.7s5.3,43.7,5.3,43.7
					s-8.2,14.8-8.2,19.5c0,4.7,0.3,23.3,0.3,23.3s2.2,5,10.5,3.8c8.3-1.2,18.2-5.1,22.8-5.2c4.7-0.1,6.3,0,6.3,0s-2.2-5.6-1.5-8.1
					c0.7-2.5,6.2-6.3,6.2-11s2.7-18.5,1.7-24.2c-1-5.7-5.7-19.5-4.3-23.8c1.3-4.3,8.8-27.5,9.8-35.8c1-8.3,2.8-15.3,0-20.2
					c-2.8-4.8-2.7-7-2.7-10.7c0-3.7,8.2-38.5,8.2-38.5s13-75.8,13.2-86.3c0.2-10.5-1.5-30.5-1.5-30.5L737.3,543.2z"/>
				<path id="XMLID_8143_" class="st32" d="M777.2,286.5c0,0-3-4.2-3.5-6.1s-0.5-8.4-1.1-10.3s-1.1-8.8-0.8-13.4s1.3-6.1,1.3-6.1
					s6.1-16.3,17.5-19s24.6-5.3,28.8-2.3s4.3,3.6,4.3,3.6s11.4,3.4,14.1,7.6s-0.1,6,0,7.2c0.1,1.3,0,6.1,0.3,7.1s0.5,4.9,0.9,6.3
					s1.3,4.8,0.6,5.5s-3.8,7.8-3.4,9.5s3,8.9,2.6,13.6s-0.9,16.3-3.1,21.9c-2.2,5.6-7.4,23.1-24.2,23.1
					c-16.8,0.1-18.8-9.5-22.8-14.6S778.1,312,777.2,286.5z"/>
				<path id="XMLID_8142_" class="st33" d="M788.9,323.1l-2.3-0.4c0,0-28.9,7-32.8,15.1c-3.9,8.1-6.9,36.1-6.9,36.1
					s5.9,16.1,6.9,58.1s-12,36.5-14,75.9c-2,39.4-2.5,35.3-2.5,35.3s30.2,13.1,71.5,11.6c41.3-1.5,57.7-8.5,57.7-8.5s5-16.7,3.3-24
					c-1.7-7.3-4.3-12.8-3.7-17.6c0.7-4.8-5.7-33.6-2.3-46.2c3.3-12.6,21.3-65.8,21.3-65.8l9.3-12.4L878.8,327c0,0-14,3.6-18.7,3
					c-4.6-0.5-13.8-8.3-16.4-8.4s-2,0-2,0s1.2,15.1-27.1,18.2C788.1,342.8,792,324,792,324L788.9,323.1z"/>
				<g id="XMLID_8140_">
					<path id="XMLID_8141_" class="st34" d="M811.7,344.1c-5.6,0-10.8-0.8-14.7-2.3c-8.4-3.1-6.6-12.4-6.6-12.4
						c0.1-0.3,0.3-0.4,0.6-0.4c0.3,0.1,0.4,0.3,0.4,0.6c-0.1,0.3-1.7,8.5,5.9,11.3c8.2,3,22.9,3.3,33.2-1.5
						c10.7-5,14.7-11.4,14.8-14.5c0-0.3,0.2-0.5,0.5-0.5c0.3,0,0.5,0.2,0.5,0.5c-0.1,4-5,10.5-15.4,15.4
						C825.3,343,818.2,344.1,811.7,344.1z"/>
				</g>
				<path id="XMLID_8139_" class="st35" d="M790,254.7c-2.8-2.6-7.4-1.6-9,1.9c-1.6,3.3-3.9,8.8-3.7,11.9c0.3,4.8,3,6.9,1.8,10.4
					s-0.4,10.3-0.1,12.4s2,5.6,2,8.8c-0.1,3.1,1.3,11.5,5.8,12.8s9.9,2.9,11.3,5.8s6.9,7.8,13,6.4s8.5-3,10.5-7.9s12-7.8,13-12.8
					s1.9-18.1,1-24.6s-2.6-11-5.1-11.1s0.5-8.9-0.4-11s-5.6-9.4-8.3-9.6s-5.5,3-7.1,4.5s-6.5,4.9-10.8,5.1s-10.2,0.9-13.1-2.1
					C790.5,255.1,790.2,254.9,790,254.7z"/>
				<path id="XMLID_8138_" class="st36" d="M773.8,280.4c0,0-3.1,0.9-2,4.9c1.1,4,2.6,5.1,3.3,7.1c0.7,2,3,4.4,3,4.4l-0.8-10.3
					C777.2,286.5,774,281.6,773.8,280.4z"/>
				<path id="XMLID_8137_" class="st36" d="M838.6,268.6c0,0,2.9-2.5,3.9,0c1,2.5,1.5,5,0,8.9s-2.1,14.8-3.8,15.3
					c0,0,1-7.6-1.8-14.6c0,0-1.1-2.1,0-5.2C838,270.1,838.6,268.6,838.6,268.6z"/>
				<g id="XMLID_8132_">
					<path id="XMLID_8136_" class="st4" d="M762.3,329.7c0,0-1.7-2-3.3-1c-1.7,1-4,2.5-2.8,4.7c1.2,2.2,2.4,1.4,3.3,1.2
						s1.2-2.1,1.2-2.1l2.7,0.4L762.3,329.7z"/>
					<path id="XMLID_8135_" class="st4" d="M768.9,326.3c0,0-3.5-0.8-5,0.7s-1.4,2.8-0.7,5.2s2.3,7.3,5,7.6s3.1-2.5,2.6-3.5
						S767.3,329.6,768.9,326.3z"/>
					<path id="XMLID_8134_" class="st4" d="M771,337c0,0,1.2,1.4,1.3,3.7s3.6,2.4,4.1,1.8s1.9-2.6,1.3-4.6s-2.9-10-2.8-11
						s1.1-3.6,1.1-3.6s-1.1-1.4-3.3-0.5S765.3,326.3,771,337z"/>
					<path id="XMLID_8133_" class="st4" d="M776.1,323.3c0,0,2-4.3,4.1-3.9s6.5,3.4,6.5,3.4s-5.3,0.5-4.4,3.4s3.1,12.6,0.1,14
						s-3.3,0.2-3.8-2.8s-3-7.2-3-7.3C775.5,329.9,774.1,327.1,776.1,323.3z"/>
				</g>
			</g>
			<g id="XMLID_8129_">
				<path id="XMLID_8130_" class="st37" d="M801.1,588.9c-0.2,0-0.4-0.1-0.5-0.3c-1.1-2.7,0.4-30.5,0.6-33.6c0-0.3,0.3-0.5,0.5-0.5
					c0.3,0,0.5,0.3,0.5,0.5c-0.7,12.3-1.5,31.3-0.7,33.2c0.1,0.3,0,0.5-0.3,0.7C801.3,588.9,801.2,588.9,801.1,588.9z"/>
			</g>
			<g id="XMLID_8127_">
				<path id="XMLID_8128_" class="st37" d="M805.5,585.5c-0.1,0-0.2,0-0.3-0.1c-0.2-0.2-0.3-0.5-0.1-0.7c3.1-4.3,4.4-29.5,4.4-29.8
					c0-0.3,0.3-0.5,0.5-0.5c0.3,0,0.5,0.2,0.5,0.5c-0.1,1-1.3,25.7-4.6,30.3C805.8,585.4,805.7,585.5,805.5,585.5z"/>
			</g>
			<path id="XMLID_8126_" class="st36" d="M813.9,839.6l9.1,7.4c0,0,1.5-1.5,1.5-4.2c0-2.8,0.6-4.8,2.5-5.9l0.8-0.9
				C827.8,836,817.2,838.9,813.9,839.6z"/>
			<g id="XMLID_8124_">
				<path id="XMLID_8125_" class="st38" d="M850.3,867.9c-8.8,0-22.3-12.5-22.8-13c-0.2-0.2-0.2-0.5,0-0.7c0.2-0.2,0.5-0.2,0.7,0
					c0.1,0.1,13.7,12.8,22.2,12.8c8.6,0,12.4-0.7,12.4-0.7c0.3-0.1,0.5,0.1,0.6,0.4c0.1,0.3-0.1,0.5-0.4,0.6
					C862.7,867.2,859,867.9,850.3,867.9z"/>
			</g>
			<g id="XMLID_8122_">
				<path id="XMLID_8123_" class="st38" d="M768.2,862.5c-0.5,0-1.1,0-1.6,0c-12.4-0.1-18.6-15.1-18.7-15.2c-0.1-0.3,0-0.5,0.3-0.7
					c0.3-0.1,0.5,0,0.7,0.3c0.1,0.1,6,14.5,17.8,14.6c13,0.1,15.2-1.3,15.4-2.2c0.2-1.4,0-3.1,0-3.1c0-0.3,0.2-0.5,0.4-0.6
					c0.3,0,0.5,0.2,0.6,0.4c0,0.1,0.3,1.8,0,3.4C782.8,860.9,780.8,862.5,768.2,862.5z"/>
			</g>
		</g>
		<g id="XMLID_8073_">
			<g id="XMLID_8103_">
				<path id="XMLID_8120_" class="st39" d="M874.3,875.9c0,0-0.2,8.5,19.2,12.3c19.3,3.8,14-12.2,11.6-15.5L874.3,875.9z"/>
				<path id="XMLID_8119_" class="st4" d="M875.6,847.5c0,0-4.1,12.2-4.1,18.1s1.8,9.8,2.8,10.3s4.2,3.8,5,4.5
					c0.8,0.7,1.3,2.5,3.2,2.5c1.8,0,1.8,0,1.8,0s0.8,1,2.3,1.3c1.5,0.3,4.3,0.3,4.3-1.2s2.3-4,2.3-4s-1,6,2.8,7.3
					c3.8,1.3,8-0.2,8-2.3c0-2.2-0.8-5.3,0-7.7c0.8-2.3,1.3-5.5,0.7-9c-0.7-3.5-2.6-14.4-1.8-18.1
					C903.8,845.6,875.6,847.5,875.6,847.5z"/>
				<path id="XMLID_8118_" class="st39" d="M886.3,852.9l3,18l3.2-0.7l-2-17.3C890.4,852.9,888,853.3,886.3,852.9z"/>
				<path id="XMLID_8117_" class="st40" d="M890,870.9c0,0,3.5,3.9,3.3,8.2c0,0,2.1-3.5-0.8-8.8L890,870.9z"/>
				<path id="XMLID_8116_" class="st41" d="M874.1,579.1c0,0-7.3,23.6-3.3,47c4,23.3,16.7,84.7,16.7,84.7s-7.2,22.3-8.9,32.3
					c-1.7,10-13.7,88.7-13,93c0.6,4.3,14,16.6,22,17c8,0.4,20.3-5.9,20.3-5.9s-4.3,14.6,8,14.9c12.3,0.4,22.3,6.5,26.3,7.6
					c4,1.1,7.7,1.7,10.7-7.6s8.3-19.1,9-24.9c0.7-5.8,5.7-73.8,5.7-78.4c0-4.7,0.7-34,3-42.3c2.3-8.3,13.4-47.9,25-61.8
					c11.6-13.9,17.5-49.2,17.2-58.5c-0.3-9.3-1.9-14.5-1.9-14.5L874.1,579.1z"/>
				<path id="XMLID_8115_" class="st42" d="M894.8,383.8c0,0-6.5,3.1-11.7,14.9c-5.2,11.8-20.3,63.7-20.3,63.7s-1.7,15.2,7.7,36.8
					c9.3,21.7,10.5,34.2,10.3,40.3c-0.2,6.2-7.2,30.3-7.3,38c-0.2,7.7,49.5,14.8,69.3,13.5c19.8-1.3,66-6.8,68-9.5
					c2-2.7-0.3-12.5-8.2-25.3c-7.8-12.8-22.9-52.8-24.3-58.7c-1.3-5.8-7.9-30.3-7.9-30.3s7.4,7.7,13.4,3.7s5.5-7,10.5-5.8
					s9.9-1.8,10.4-5.1s-1.9-10.2-1.9-10.2s-9.8-37.5-17-45.3s-44-24.3-46-25.8s-7.2-1.8-7.2-1.8L894.8,383.8z"/>
				<path id="XMLID_8114_" class="st43" d="M893.3,376.3c0,0,4,20.4,5.7,21.3c1.7,0.8,5-3.2,8.2-2c3.2,1.2,6.5,4.3,8.8,3.3
					c2.3-1,5.2-6.3,8-6.5c2.8-0.2,8.2,3,10.8,2.2c2.7-0.8,2.5-5.8,6.5-6.2c4-0.3,8.2-1.3,5-3.3c-3.2-2-10.2-4.2-12.5-6.2
					c-2.3-2-3.3-13.3-3.3-13.3L893.3,376.3z"/>
				<path id="XMLID_8113_" class="st4" d="M886.7,368.1c1.5,1.7,2.8,3.4,4.1,5.3c2.2,3.2,7.3,8.2,17.6,7.8
					c15.2-0.5,18.2-6.5,19.4-8.6c1.2-2.1,10.4-18.5,9.7-31.9c-0.7-13.3-13.5-31.7-36.7-30.8C878.8,310.7,871.1,350.2,886.7,368.1z"
					/>
				<path id="XMLID_8112_" class="st32" d="M885.6,304.2c0,0-8.2,6.8-10.2,14c-2,7.2-6.7,30.5-6,38.5c0.7,8,5.3,14-6.7,14
					c0,0,3,5.2,9.3,0c0,0,0.8,7.8,4.8,6c4-1.8,8-4,9.8-4c1.8,0,2.5-2,2.5-2s-5-9.5-5-14.2c0,0-3.8,1.3-4.2-2.2
					c-0.3-3.5-1.8-11,2.3-15.1c4.1-4.2,3.4-14.4,5.6-15.5c2.2-1.2,2.5-3.8,4.2-5.8c1.7-2,5.8-7,8.2-7c2.3,0,11.5,6.3,15.7,6.2
					c4.2-0.2,9-0.3,11.2,4.5c2.2,4.8,5.8,8.1,5.8,8.1s3.5,7.3,2.3,20.7c-1.2,13.3-7.7,21.8-8.3,23.7c-0.7,1.8-0.2,6.7,4.3,7.2
					c0,0-3.7-6.3,2.8-11.7c6.5-5.3,4.7-6.5,4.7-6.5s8,5.7,12.5-0.3c0,0-5,3.8-11-1.2c0,0,8-1.3,9.3-3.5c1.3-2.2,1.3-2.2,1.3-2.2
					s4.8,3.2,8.2-3.2c0,0-4.3,2.8-3.5-1.3c0.8-4.2,0-8.2-0.7-11.4c0,0,3,0,3,4.4c0,0-0.2-9.5-3.7-12.5s-3.5-3-3.5-3s4,0.5,4.3-1
					c0,0-4.3-1.6-4.8-6.3c-0.5-4.7-5.7-26.5-32.5-32.2C891,283.7,882.3,300.2,885.6,304.2z"/>
				<path id="XMLID_8111_" class="st36" d="M977.1,398.3c0,0,10.4,1.5,12.8,2.7s16.3,2.6,19.5,8.9s2.1,28.5,2.1,28.5s1,2.5-3.3,6.3
					s-6.8,9.1-9.9,9.1s-8.8-2.9-9.1-3.4s-1.9-3.8-4.1-3.8s-5.3-1-6-1.6s-1.1-1.5-1.1-1.5s-4.9-0.6-5.3-1.5s-0.9-2.8,2-4.1
					s8.1-3.5,9-4.9s4.8-7,4.8-7l-5.6-1.3c0,0-2.5,8.8-6.3,9.5s-6.1,2-5.5-5.1s6.6-16.3,7.5-17.1s5.5-1.8,5.5-1.8s1.3-1.4,2.9-1.6
					c1.6-0.2,2.6,0,2.6,0S982,401.1,977.1,398.3z"/>
				<g id="XMLID_8109_">
					<path id="XMLID_8110_" class="st44" d="M907.8,847.6c-0.1,0-0.2,0-0.3-0.1c-0.2-0.2-0.2-0.5,0-0.7c3.6-4,3.6-4.8,3.9-8.2
						c0.2-2.7,0.7-7.3,3.3-16.6c3.4-11.8,6.4-35.5,8.9-54.6c1.8-14.1,3.4-26.3,4.6-30c2.8-8.5,5.1-24.3,5.1-24.4
						c0-0.8,4.8-83.5,3.3-93.7c-1.5-10.2-3.3-23.7-3.3-23.8c0-0.3,0.2-0.5,0.4-0.6c0.3,0,0.5,0.2,0.6,0.4c0,0.1,1.7,13.6,3.3,23.8
						c1.5,10.3-3.1,90.5-3.3,93.9c0,0.2-2.4,16-5.2,24.6c-1.2,3.6-2.8,15.8-4.6,29.9c-2.5,19.1-5.5,42.9-8.9,54.8
						c-2.6,9.2-3,13.5-3.3,16.4c-0.3,3.5-0.4,4.6-4.2,8.8C908.1,847.5,907.9,847.6,907.8,847.6z"/>
				</g>
				<path id="XMLID_8108_" class="st4" d="M970.5,467.2c0,0,12.9,48.2,13.7,55.7s4.5,43.3,4,48.8c-0.5,5.5-2.5,34.7-2.5,34.7
					s-3.4,4.4-3.6,7.3s-1.4,10.3-1.8,11.5s-0.4,3.1-0.3,4.6s0.9,6.3,0.4,7.5s1.1,3.3,1.4,4.5s-0.1,7,2.4,6.5l0.9,0c0,0,0,6-2.4,9
					s1.1,3.1,3.8,1.4s4.3-2.9,4.3-2.9l3.4-0.1c0,0,4.9-3.4,6.1-4.1s1.3-0.8,1.3-0.8s4.6-2.1,5.6-3.4s1-3.1,1-3.1s4-2.5,4.5-4.1
					s0-5.1,0-5.1s-4.3-21.5-4.1-25.6s0.3-11.9,0.3-13.8s-0.1-6.3-0.1-6.3s3.6-44.5,3-58.4c-0.6-13.9-0.1-13.6-1-16.8
					s-2.6-14.3-2.6-14.3l-2.8-38.8c0,0-0.7-3.3-2.6,0.9c-1.8,4.2-7.4,1.1-11,2c-2.9,0.7-5.3,4.4-9.4,7.6S970.5,467.2,970.5,467.2z"
					/>
				<path id="XMLID_8107_" class="st39" d="M920,890.1c0,0,3.3,5.2,19.7,4.3c16.3-0.8,11.7-11.5,6.7-14L920,890.1z"/>
				<path id="XMLID_8106_" class="st4" d="M913.1,861.6c0,0-2.8,11.4-2.7,13c0.2,1.6,3.2,6.8,3.5,8.5c0.3,1.7,1.3,7.1,6.1,6.9
					c4.8-0.2,5.3-3.2,5.3-3.2s0,3.9,4.6,3.7c4.6-0.2,2.5-1.7,2.5-1.7s2.5,1.1,3.7,0.1c1.2-1,1.4-2.2,1.4-2.2s2.5,1.5,3.8,0.6
					c1.3-0.9,1.7-1.8,1.7-1.8s1.6-0.2,2.2-1.6c0.6-1.4,1.8-3.7,1.2-5c-0.7-1.3-4.1-9.4-4.1-9.4S928.2,860.4,913.1,861.6z"/>
				<polygon id="XMLID_8105_" class="st39" points="920.7,862.5 920,875.4 923.9,875.4 924.5,863.2 				"/>
				<polygon id="XMLID_8104_" class="st40" points="920.7,875.4 925.2,886.9 923.4,875.4 				"/>
			</g>
			<g id="XMLID_8101_">
				<path id="XMLID_8102_" class="st43" d="M990.6,656.3c-0.1,0-0.2,0-0.3-0.1c-0.2-0.2-0.3-0.5-0.1-0.7c0,0,2.1-3,2.8-4.5
					c0.5-1,0.9-7.5,1.1-11.7c0-0.3,0.3-0.5,0.5-0.5c0.3,0,0.5,0.2,0.5,0.5c-0.1,1.1-0.5,10.5-1.2,12c-0.7,1.5-2.8,4.5-2.9,4.6
					C990.9,656.2,990.8,656.3,990.6,656.3z"/>
			</g>
			<g id="XMLID_8099_">
				<path id="XMLID_8100_" class="st43" d="M1001.4,651.3c0,0-0.1,0-0.1,0c-0.3-0.1-0.4-0.3-0.4-0.6l2.4-11.4
					c0.1-0.3,0.3-0.4,0.6-0.4c0.3,0.1,0.4,0.3,0.4,0.6l-2.4,11.4C1001.8,651.1,1001.6,651.3,1001.4,651.3z"/>
			</g>
			<g id="XMLID_8097_">
				<path id="XMLID_8098_" class="st43" d="M1008,644.8C1008,644.8,1008,644.8,1008,644.8c-0.3,0-0.5-0.2-0.5-0.5
					c0-6.8,1.9-11.4,2-11.6c0.1-0.3,0.4-0.4,0.7-0.3c0.3,0.1,0.4,0.4,0.3,0.7c0,0-1.9,4.6-1.9,11.2
					C1008.5,644.5,1008.3,644.8,1008,644.8z"/>
			</g>
			<g id="XMLID_8095_">
				<path id="XMLID_8096_" class="st43" d="M985,648.8C985,648.8,985,648.8,985,648.8c-0.3,0-0.5-0.3-0.5-0.5
					c1-11.2-1.8-23.1-1.9-23.2c-0.1-0.3,0.1-0.5,0.4-0.6c0.3-0.1,0.5,0.1,0.6,0.4c0,0.1,2.9,12.2,1.9,23.6
					C985.5,648.6,985.3,648.8,985,648.8z"/>
			</g>
			<g id="XMLID_8093_">
				<path id="XMLID_8094_" class="st45" d="M977.9,444c-0.2,0-0.4-0.1-0.5-0.4c-0.1-0.3,0.1-0.5,0.4-0.6c0.1,0,10.4-2.8,12.3-3.9
					c1.6-0.9,7.2-8.2,9.2-10.9c0.2-0.2,0.5-0.3,0.7-0.1c0.2,0.2,0.3,0.5,0.1,0.7c-0.8,1-7.5,9.9-9.5,11.1c-2,1.2-12.1,3.9-12.5,4
					C978,444,977.9,444,977.9,444z"/>
			</g>
			<g id="XMLID_8091_">
				<path id="XMLID_8092_" class="st45" d="M987.7,448.7c-0.2,0-0.3-0.1-0.4-0.2c-0.1-0.2-0.1-0.5,0.2-0.7c1.6-1,2.8-1.6,3.8-2.1
					c1.2-0.6,2-1,2.8-1.7c1.5-1.3,13.2-12.5,13.3-12.7c0.2-0.2,0.5-0.2,0.7,0c0.2,0.2,0.2,0.5,0,0.7c-0.5,0.5-11.9,11.4-13.3,12.7
					c-0.9,0.8-1.8,1.2-3,1.8c-1,0.5-2.2,1.1-3.7,2.1C987.9,448.7,987.8,448.7,987.7,448.7z"/>
			</g>
			<g id="XMLID_8089_">
				<path id="XMLID_8090_" class="st45" d="M992.1,452.5c-0.2,0-0.4-0.1-0.4-0.3c-0.1-0.2,0-0.5,0.2-0.7c5-2.5,17.9-15.7,18.1-15.9
					c0.2-0.2,0.5-0.2,0.7,0c0.2,0.2,0.2,0.5,0,0.7c-0.5,0.6-13.2,13.5-18.3,16.1C992.2,452.5,992.2,452.5,992.1,452.5z"/>
			</g>
			<g id="XMLID_8087_">
				<path id="XMLID_8088_" class="st45" d="M982.8,425.3c-0.1,0-0.2,0-0.2-0.1c-0.2-0.1-0.3-0.4-0.2-0.7l4-8
					c0.1-0.2,0.4-0.3,0.7-0.2c0.2,0.1,0.3,0.4,0.2,0.7l-4,8C983.1,425.2,982.9,425.3,982.8,425.3z"/>
			</g>
			<path id="XMLID_8086_" class="st0" d="M883.1,361.3v-4.8h-1v4.8c-1.2,0.2-2.1,1.3-2.1,2.5c0,1.4,1.1,2.5,2.5,2.5
				c1.4,0,2.5-1.1,2.5-2.5C885.1,362.6,884.3,361.6,883.1,361.3z"/>
			<g id="XMLID_8084_">
				<path id="XMLID_8085_" class="st43" d="M875.3,876.6c-0.3,0-0.5-0.2-0.5-0.4c-0.4-3.4,1.2-8.1,1.3-8.3c0.1-0.3,0.4-0.4,0.6-0.3
					c0.3,0.1,0.4,0.4,0.3,0.6c0,0-1.6,4.7-1.2,7.9C875.8,876.3,875.6,876.6,875.3,876.6C875.3,876.6,875.3,876.6,875.3,876.6z"/>
			</g>
			<g id="XMLID_8082_">
				<path id="XMLID_8083_" class="st43" d="M879.3,880.9c-0.2,0-0.4-0.1-0.5-0.3c-0.6-1.8,1-7.9,1.2-8.6c0.1-0.3,0.3-0.4,0.6-0.4
					c0.3,0.1,0.4,0.3,0.4,0.6c-0.7,2.5-1.6,7-1.2,8.1c0.1,0.3,0,0.5-0.3,0.6C879.4,880.9,879.3,880.9,879.3,880.9z"/>
			</g>
			<g id="XMLID_8080_">
				<path id="XMLID_8081_" class="st43" d="M884.3,883.4c-0.2,0-0.4-0.2-0.5-0.4c-0.3-1.6,0.2-2.1,1-3l0.4-0.4
					c0.7-0.7,0.8-3.6,0.6-5.3c0-0.3,0.2-0.5,0.5-0.5c0.3,0,0.5,0.2,0.5,0.5c0,0.5,0.3,4.8-0.9,6l-0.4,0.4c-0.8,0.8-1,1-0.7,2.1
					c0.1,0.3-0.1,0.5-0.4,0.6C884.4,883.4,884.3,883.4,884.3,883.4z"/>
			</g>
			<g id="XMLID_8078_">
				<path id="XMLID_8079_" class="st43" d="M932.3,889.5c-0.2,0-0.5-0.2-0.5-0.4c-0.1-1-0.6-1.8-0.9-2.5c-0.2-0.4-0.5-0.8-0.6-1.3
					c-0.4-1.2-0.1-4.9,0-5.3c0-0.3,0.3-0.5,0.5-0.4c0.3,0,0.5,0.3,0.4,0.5c-0.2,1.5-0.3,4.1,0,4.9c0.1,0.4,0.3,0.8,0.6,1.2
					c0.4,0.8,0.9,1.6,1.1,2.9C932.8,889.2,932.6,889.4,932.3,889.5C932.3,889.5,932.3,889.5,932.3,889.5z"/>
			</g>
			<g id="XMLID_8076_">
				<path id="XMLID_8077_" class="st43" d="M936.4,887.1c-0.3,0-0.5-0.2-0.5-0.5v-5.4c0-0.3,0.2-0.5,0.5-0.5c0.3,0,0.5,0.2,0.5,0.5
					v5.4C936.9,886.8,936.7,887.1,936.4,887.1z"/>
			</g>
			<g id="XMLID_8074_">
				<path id="XMLID_8075_" class="st43" d="M942.8,885C942.8,885,942.8,885,942.8,885c-0.3,0-0.5-0.3-0.5-0.5
					c0.2-2.5-1.7-5.9-1.8-5.9c-0.1-0.2-0.1-0.5,0.2-0.7c0.2-0.1,0.5-0.1,0.7,0.2c0.1,0.1,2.2,3.7,1.9,6.5
					C943.3,884.8,943,885,942.8,885z"/>
			</g>
		</g>
		<g id="XMLID_7963_">
			<g id="XMLID_8021_">
				<path id="XMLID_8072_" class="st26" d="M302.2,378.4c0,0-9.4,4.1-9.1,16.5c0.3,12.3,2.2,76,2.2,76l6.9,6
					C302.2,476.9,311.7,397.1,302.2,378.4z"/>
				<path id="XMLID_8071_" class="st46" d="M399.7,467.9l9.5,37.4c0,0,7.2-8.2,6.8-26.3c-0.3-18.2-8.8-33.9-8.8-33.9L399.7,467.9z"
					/>
				<path id="XMLID_8070_" class="st47" d="M305.5,548.7c0,0-1.7,22.7-1.8,26.2c-0.2,3.5-0.3,21.3,0,23c0.3,1.7,10,103,10,103
					s-1,56.8,1.5,68.3s2.7,27.2,2.7,27.2s5.7,3.3,13.8,2.7c8.2-0.7,14.8-1.8,14.8-1.8s1.8-22.7,1.8-26.3s-1.5-47.2,0-56
					s6.3-59,7.3-76.5s2.8-31.7,2.8-31.7l1.3-1.8c0,0,2.8,19.2,2.8,22.3c0,3.2-1.3,62.3-1.2,67.2c0.2,4.8,1.2,17,1.2,17
					s-5.2,61.3-5,66c0,0,7.3,2.2,17.5,2.7c10.2,0.5,10.2,0.5,10.2,0.5l9.8-71.3c0,0,1.3-29.5,3.2-39.3c1.8-9.8,10.2-37.8,10.8-50.8
					c0.7-13,5.5-48.3,0.8-69L305.5,548.7z"/>
				<path id="XMLID_8069_" class="st48" d="M359.8,802.1c0,0-0.9,15.3-1.6,15.5c-0.8,0.3-1.6,7.3,0,10.4s3.5,3.5,1.6,10.6
					s-0.4,19.5,14.4,17.6s18-9.5,14.1-18.9s-7.8-16.5-8.8-24.9s-0.1-12-0.1-12S370.4,792.7,359.8,802.1z"/>
				<path id="XMLID_8068_" class="st16" d="M295.3,546.2c0,0-2.1,3.1,9.8,8l0.4-5.5L295.3,546.2z"/>
				<path id="XMLID_8067_" class="st22" d="M357.6,777.4c0,0,0.2,1.8,0,5.2c0,0-2,18.1,1.5,19.3s10-3.7,12.8-2.7
					c2.8,1,11.6,3.2,12-1.5s1.5-14,1.6-15s1.2-2-1.5-2.1C381.3,780.4,364.1,779.3,357.6,777.4z"/>
				<path id="XMLID_8066_" class="st22" d="M346.5,797.2c0,0,1.2,0.7,1,3.4s-0.5,5.5-0.5,5.5s4.1,13-1.5,13.8s-11.8-1-13.9-0.9
					s-9.3,3-11.8-1s-0.6-7.8-0.6-7.8s-1.9-6.5-1.8-8.2c0.1-1.7,0.3-5.7,0.3-5.7S323.7,799.8,346.5,797.2z"/>
				<path id="XMLID_8065_" class="st48" d="M323.9,820.1c0,0,0,14.5,0,17.6s-1.5,7.5-1.4,9.9s-0.5,12.9-1.3,16.5
					c-0.8,3.5-2.3,15.3,20.6,10.2s10.4-13.4,6-26.6s-1.8-27.9-1.8-27.9S333,814.7,323.9,820.1z"/>
				<g id="XMLID_8028_">
					<g id="XMLID_8063_">
						<path id="XMLID_8064_" class="st49" d="M323.4,578.6C323.4,578.6,323.4,578.6,323.4,578.6c-0.3,0-0.5-0.3-0.5-0.5l0.6-10.7
							l-15.4-1.8c-0.3,0-0.5-0.3-0.4-0.6c0-0.3,0.3-0.5,0.6-0.4l15.9,1.8c0.3,0,0.5,0.3,0.4,0.5l-0.6,11.1
							C323.9,578.4,323.6,578.6,323.4,578.6z"/>
					</g>
					<g id="XMLID_8061_">
						<path id="XMLID_8062_" class="st49" d="M315.7,579.8c-5.5,0-10.1-1.1-10.3-1.2c-0.3-0.1-0.4-0.3-0.4-0.6
							c0.1-0.3,0.3-0.4,0.6-0.4c0.1,0,9,2.2,16.9,0.5c5.8-1.3,9.8-6.5,9.4-12.1c0-0.2,0-0.5-0.1-0.7c0-0.3,0.2-0.5,0.4-0.6
							c0.3,0,0.5,0.2,0.6,0.4c0,0.3,0.1,0.5,0.1,0.8c0.4,6.1-4,11.8-10.2,13.2C320.4,579.6,317.9,579.8,315.7,579.8z"/>
					</g>
					<g id="XMLID_8059_">
						<path id="XMLID_8060_" class="st49" d="M317.7,583.5c-6.1,0-12-2-12.4-2.2c-0.3-0.1-0.4-0.4-0.3-0.6c0.1-0.3,0.4-0.4,0.6-0.3
							c0.1,0,13.5,4.6,20.4,0.1c7.7-5.1,8.7-9,8.8-10.4c0-0.3,0.3-0.5,0.5-0.5c0.3,0,0.5,0.3,0.5,0.5c-0.1,1.9-1.5,6-9.2,11.1
							C324,583,320.8,583.5,317.7,583.5z"/>
					</g>
					<g id="XMLID_8057_">
						<path id="XMLID_8058_" class="st49" d="M335.3,562.3C335.2,562.3,335.2,562.3,335.3,562.3l-7.8-0.8
							c-10.3-0.4-19.4-3.7-19.5-3.8c-0.3-0.1-0.4-0.4-0.3-0.6c0.1-0.3,0.4-0.4,0.6-0.3c0.1,0,9,3.4,19.2,3.7l7.8,0.8
							c0.3,0,0.5,0.3,0.4,0.5C335.7,562.1,335.5,562.3,335.3,562.3z"/>
					</g>
					<g id="XMLID_8055_">
						<path id="XMLID_8056_" class="st49" d="M337.3,567.9c-0.1,0-0.1,0-0.2,0l-3.4-1.4c-0.2-0.1-0.3-0.2-0.3-0.4
							c0-0.2,0-0.3,0.1-0.5c3.3-3.1,1.3-11.7,1.2-11.7c-0.1-0.3,0.1-0.5,0.4-0.6c0.3-0.1,0.5,0.1,0.6,0.4c0.1,0.4,2,8.3-1,12.1
							l2.4,1c0.8-1.1,3.7-5.8,1.6-12.8c-0.1-0.3,0.1-0.5,0.3-0.6c0.3-0.1,0.5,0.1,0.6,0.3c2.7,8.7-1.8,13.9-2,14.1
							C337.5,567.8,337.4,567.9,337.3,567.9z"/>
					</g>
					<g id="XMLID_8053_">
						<path id="XMLID_8054_" class="st49" d="M365.5,564.9C365.5,564.9,365.5,564.9,365.5,564.9l-24.7-1.9c-0.3,0-0.5-0.3-0.5-0.5
							c0-0.3,0.3-0.5,0.5-0.5l24.6,1.9c0.3,0,0.5,0.3,0.5,0.5C366,564.7,365.8,564.9,365.5,564.9z"/>
					</g>
					<g id="XMLID_8051_">
						<path id="XMLID_8052_" class="st49" d="M363,603.3c-0.1,0-0.1,0-0.2,0c-0.3-0.1-0.4-0.4-0.3-0.6c0-0.1,2.7-8.3,5-15.4
							c2.2-6.6,0.7-16.9-1.9-23.6c-2.5-6.4,0.6-10,0.7-10.2c0.2-0.2,0.5-0.2,0.7-0.1c0.2,0.2,0.2,0.5,0.1,0.7
							c-0.1,0.1-2.8,3.3-0.5,9.1c2.1,5.6,4.4,16.7,1.9,24.3c-2.3,7-5,15.3-5,15.4C363.4,603.1,363.2,603.3,363,603.3z"/>
					</g>
					<g id="XMLID_8049_">
						<path id="XMLID_8050_" class="st49" d="M370.3,565.7c-0.2,0-0.4-0.2-0.5-0.4c-0.1-0.3,0.1-0.5,0.4-0.6c0.1,0,9.1-2.1,11-2.7
							c1.8-0.6,7.7-3,7.7-3c0.3-0.1,0.5,0,0.7,0.3c0.1,0.3,0,0.5-0.3,0.7c-0.2,0.1-5.9,2.4-7.8,3c-1.9,0.6-10.7,2.6-11,2.7
							C370.3,565.7,370.3,565.7,370.3,565.7z"/>
					</g>
					<g id="XMLID_8045_">
						<path id="XMLID_8046_" class="st49" d="M390.8,564.9c-0.1,0-0.1,0-0.2-0.1c-0.2-0.1-0.3-0.3-0.3-0.4c0-0.3-1.4-8.9-1.9-12.2
							c0-0.1,0-0.3,0.1-0.4c0.1-0.1,0.2-0.2,0.3-0.2l3.9-0.4c0.3,0,0.5,0.2,0.5,0.4l1.5,10.8c0,0.2-0.1,0.4-0.2,0.5
							C391.8,564.5,391.2,564.9,390.8,564.9z M389.6,552.6c1.1,7.2,1.5,10,1.7,11.1c0.6-0.3,1.6-0.9,2.6-1.4l-1.3-10L389.6,552.6z"
							/>
					</g>
					<g id="XMLID_8043_">
						<path id="XMLID_8044_" class="st49" d="M395,558.6c-0.2,0-0.4-0.1-0.5-0.3c-0.1-0.3,0-0.5,0.2-0.7c5.1-2.3,10.8-5.3,11.3-6.1
							c0.1-0.2,0.4-0.3,0.7-0.2c0.2,0.1,0.3,0.4,0.2,0.7c-0.9,1.5-9.9,5.7-11.7,6.5C395.1,558.5,395.1,558.6,395,558.6z"/>
					</g>
					<g id="XMLID_8041_">
						<path id="XMLID_8042_" class="st49" d="M406.5,573.3C406.5,573.3,406.5,573.3,406.5,573.3c-9.6-0.3-12.6-7.8-12.6-7.9
							c-0.1-0.3,0-0.5,0.3-0.6c0.3-0.1,0.5,0,0.6,0.3c0.1,0.3,2.8,7,11.7,7.2c0.3,0,0.5,0.2,0.5,0.5
							C407,573,406.8,573.3,406.5,573.3z"/>
					</g>
					<g id="XMLID_8039_">
						<path id="XMLID_8040_" class="st49" d="M406.5,576.3c-12.8,0-15.3-10.8-15.3-11c-0.1-0.3,0.1-0.5,0.4-0.6
							c0.3-0.1,0.5,0.1,0.6,0.4c0.1,0.4,2.4,10.2,14.3,10.2c0.3,0,0.5,0.2,0.5,0.5C407,576,406.8,576.3,406.5,576.3z"/>
					</g>
					<g id="XMLID_8037_">
						<path id="XMLID_8038_" class="st49" d="M366,599c-0.2,0-0.5-0.2-0.5-0.4c0-0.3,0.1-0.5,0.4-0.6c0.2,0,6-1,6.3-7.5
							c0-1,0.1-2,0.1-3.1c0.3-6.8,0.6-16.2-0.1-18.2c-0.1-0.3,0-0.5,0.3-0.6c0.3-0.1,0.5,0,0.6,0.3c0.8,2.2,0.4,11.3,0.1,18.6
							c0,1.1-0.1,2.1-0.1,3.1C373,597.9,366.2,599,366,599C366.1,599,366.1,599,366,599z"/>
					</g>
					<g id="XMLID_8035_">
						<path id="XMLID_8036_" class="st49" d="M357.7,603.3c-0.1,0-0.1,0-0.2,0l-15.6-5.1c-0.3-0.1-0.4-0.4-0.3-0.6
							c0.1-0.3,0.4-0.4,0.6-0.3l15.6,5.1c0.3,0.1,0.4,0.4,0.3,0.6C358.1,603.1,357.9,603.3,357.7,603.3z"/>
					</g>
					<g id="XMLID_8033_">
						<path id="XMLID_8034_" class="st49" d="M369.6,602.8c-0.2,0-0.3-0.1-0.4-0.2c-0.1-0.2-0.1-0.5,0.2-0.7l15.3-9.3
							c0.2-0.1,0.5-0.1,0.7,0.2c0.1,0.2,0.1,0.5-0.2,0.7l-15.3,9.3C369.8,602.7,369.7,602.8,369.6,602.8z"/>
					</g>
					<g id="XMLID_8029_">
						<path id="XMLID_8030_" class="st49" d="M368.6,562.3c-1.2,0-2.1-1.2-2.1-2.8s0.9-2.8,2.1-2.8s2.1,1.2,2.1,2.8
							S369.8,562.3,368.6,562.3z M368.6,557.8c-0.6,0-1.1,0.8-1.1,1.8c0,0.9,0.5,1.8,1.1,1.8s1.1-0.8,1.1-1.8
							C369.8,558.6,369.2,557.8,368.6,557.8z"/>
					</g>
				</g>
				<path id="XMLID_8027_" class="st46" d="M331,352c0,0-0.5,6.8,2.2,9.1c2.7,2.3,6.2,2.9,6.2,2.9L331,352z"/>
				<path id="XMLID_8026_" class="st46" d="M384.3,346.2c0,0,2.4-4.8,2.5-5.8c0.2-1,0.8-4.5,0-5.8c-0.8-1.3-2.2-6.6-3.2-7.6
					s-1.8,9.6-1.8,9.6L384.3,346.2z"/>
				<path id="XMLID_8025_" class="st50" d="M330.9,355.9c0,0-5-3.1-5.1-3.9c-0.1-0.8,0.9,3.2,0.9,3.2s-3.5-4.3-4.7-7.5
					c-1.2-3.2-5.7-13.3-5.7-13.3s-2.5-2-2.3-9.3c0.2-7.3,7.2-21.2,15.8-25.4c0,0,4.7-7.8,12.2-7.9c7.5-0.2,9.2,1.5,9.2,1.5
					s-3.7-2.3-6.7-2.8c0,0,10.2-1.9,16.8,5.1c0,0,12.3,2,19.3,17.3c0,0-3.2-3-4.3-2.7c0,0,8.6,6.7,8.1,16.9l-2.7,9.6L330.9,355.9z"
					/>
				<path id="XMLID_8024_" class="st16" d="M410.4,549.8c-0.2-0.4-16-40.4-15.8-46.6c0.2-9.3,2-28.4,11-51.8
					c9.8-25.5,1.3-49.9,1.2-50.2c0-0.1-0.1-0.2-0.2-0.3l-14.6-8l-46.2-18.7c0,0-0.1,0-0.1,0c-1.1-0.1-28.1-2.2-32.6-1.5
					c-4.5,0.7-9.7,2.9-10,3c-0.1,0-0.1,0.1-0.2,0.1c-0.3,0.4-7.2,9.4,2.2,45.5c-0.2,2.3-3.6,51.6-6.8,63.3
					c-3.3,12.1-3.5,59.4-3.5,61.5c0,0.2,0.2,0.4,0.4,0.5c0.1,0,14,2.8,18,5c3.1,1.6,14.4,2,24.4,2.3c3.7,0.1,7.2,0.2,9.8,0.4
					c1.1,0.1,2.6,0.1,4.2,0.1c12.2,0,36.1-1.7,36.4-1.7l22-2.2c0.2,0,0.3-0.1,0.4-0.2C410.5,550.1,410.5,550,410.4,549.8z"/>
				<path id="XMLID_8023_" class="st46" d="M345.9,372.5c0,0-2.5,9.4,6.5,18.3c9,8.8,21.1,13.5,29.4,11s11.1-7.5,11.1-7.5
					s-7.9-4.8-8.4-10.7c-0.6-5.8-1.1-23.3-1.1-23.3L345.9,372.5z"/>
				<path id="XMLID_8022_" class="st51" d="M338.6,312.8c0,0-7.2,0.6-7.5,9.5c-0.3,8.8,0,17,0,17s-3-5.7-4.7-5.3
					c-1.7,0.3,0.3,9.7,2.7,14.8c2.3,5.2,10.3,14.2,11.3,17.5c1,3.3,11.7,13.3,25.5,14.5c13.8,1.2,20.2-21.2,19.8-25.8
					c-0.3-4.7-4-19.8-5.5-22.8s-14.7-20.3-19.3-22.3C356.3,307.7,350.6,306,338.6,312.8z"/>
			</g>
			<g id="XMLID_8019_">
				<path id="XMLID_8020_" class="st49" d="M364.8,777.3C364.7,777.3,364.7,777.3,364.8,777.3c-0.3,0-0.5-0.3-0.5-0.5
					c0.2-1.9-0.9-8.7-1.7-13.6c-0.4-2.3-0.7-4.2-0.8-5.4c-0.5-4.1,2.3-35.7,3.3-41.1c1-5.5-1.2-21.7-1.3-21.8
					c0-0.4,1.2-33.4,1.2-37.1c0-3.7-2.5-50.5-2.5-51c0-0.3,0.2-0.5,0.5-0.5c0.3,0,0.5,0.2,0.5,0.5c0.1,1.9,2.5,47.3,2.5,51
					c0,3.7-1.2,36.7-1.3,37c0.1,0.6,2.2,16.4,1.2,22.1c-1,5.4-3.7,36.8-3.2,40.9c0.2,1.2,0.5,3.2,0.8,5.4c0.8,5.2,1.9,11.8,1.7,13.8
					C365.2,777.1,365,777.3,364.8,777.3z"/>
			</g>
			<path id="XMLID_8018_" class="st0" d="M320.1,701.8c0,0,0.6-6,3.4-5.8s14.5,6.5,14.5,6.5s6.8,5.3,1.4,4.8s-15.1,0-15.1,0
				S319.8,706.3,320.1,701.8z"/>
			<path id="XMLID_8017_" class="st0" d="M390,667.4c0,0,1.6-2.3,3-2.6s2.3,1.9,0.8,2.6S390,667.4,390,667.4z"/>
			<g id="XMLID_8015_">
				<path id="XMLID_8016_" class="st52" d="M385.9,346c-0.8,0-1.6-0.5-1.6-0.6c-0.2-0.2-0.3-0.5-0.1-0.7c0.2-0.2,0.5-0.3,0.7-0.1
					c0.2,0.2,0.9,0.5,1.3,0.3c0.3-0.1,0.5-0.4,0.6-0.8c0.2-0.5,0.1-1-0.1-1.3c-0.3-0.5-0.9-0.7-1-0.7c-0.3-0.1-0.4-0.3-0.4-0.6
					c0.1-0.3,0.3-0.4,0.6-0.4c0,0,1.1,0.2,1.6,1.1c0.4,0.6,0.4,1.3,0.2,2.1c-0.2,0.8-0.6,1.3-1.2,1.5C386.3,346,386.1,346,385.9,346
					z"/>
			</g>
			<g id="XMLID_8013_">
				<path id="XMLID_8014_" class="st53" d="M338.8,312.1c-0.1,0-0.3-0.1-0.4-0.2c0,0-1.3-1.6-2.9-1.7c-0.8,0-1.6,0.3-2.3,0.9
					c-0.2,0.2-0.5,0.2-0.7,0c-0.2-0.2-0.2-0.5,0-0.7c0.9-0.9,2-1.3,3-1.2c2.1,0.1,3.6,1.9,3.6,2c0.2,0.2,0.1,0.5-0.1,0.7
					C339,312.1,338.9,312.1,338.8,312.1z"/>
			</g>
			<g id="XMLID_8011_">
				<path id="XMLID_8012_" class="st53" d="M340.9,310.7c-0.2,0-0.4-0.1-0.5-0.3c0,0-0.9-2.4-2.5-3c-0.6-0.2-1.2-0.2-1.9,0.1
					c-0.2,0.1-0.5,0-0.7-0.2c-0.1-0.2,0-0.5,0.2-0.7c0.9-0.5,1.8-0.5,2.7-0.2c2,0.8,3,3.5,3,3.6c0.1,0.3,0,0.5-0.3,0.6
					C341,310.7,340.9,310.7,340.9,310.7z"/>
			</g>
			<g id="XMLID_8009_">
				<path id="XMLID_8010_" class="st53" d="M344.3,308.3c-0.2,0-0.5-0.2-0.5-0.4l0,0c0-0.1-0.3-1.7-1.9-2.7
					c-1.7-1.1-4.3-1.2-7.7-0.2c-0.3,0.1-0.5-0.1-0.6-0.3c-0.1-0.3,0.1-0.5,0.3-0.6c3.7-1.1,6.5-1,8.5,0.3c2,1.3,2.4,3.3,2.4,3.4
					C344.8,308,344.6,308.2,344.3,308.3C344.3,308.3,344.3,308.3,344.3,308.3z"/>
			</g>
			<g id="XMLID_8007_">
				<path id="XMLID_8008_" class="st53" d="M349.3,308.3c-0.1,0-0.2,0-0.3-0.1c-0.2-0.2-0.2-0.5-0.1-0.7c2-2.5,2.8-4.9,2.5-7.1
					c-0.5-3.3-3.4-5.2-3.4-5.2c-0.2-0.2-0.3-0.5-0.1-0.7c0.2-0.2,0.5-0.3,0.7-0.1c0.1,0.1,3.2,2.1,3.8,5.8c0.4,2.6-0.5,5.2-2.7,7.9
					C349.6,308.2,349.5,308.3,349.3,308.3z"/>
			</g>
			<g id="XMLID_8005_">
				<path id="XMLID_8006_" class="st53" d="M355.8,303.7c-0.1,0-0.3-0.1-0.4-0.2c-0.2-0.2-0.2-0.5,0.1-0.7c1-0.8,1.4-1.6,1.4-2.4
					c0-0.9-0.7-1.4-0.7-1.4c-0.2-0.2-0.2-0.5-0.1-0.7c0.2-0.2,0.5-0.2,0.7-0.1c0,0,1,0.8,1.1,2.2c0,1.1-0.6,2.1-1.8,3.2
					C356.1,303.7,355.9,303.7,355.8,303.7z"/>
			</g>
			<g id="XMLID_8003_">
				<path id="XMLID_8004_" class="st53" d="M366.5,306.9c-0.1,0-0.3-0.1-0.4-0.2c-2.1-2.6-5.5-2.1-5.5-2.1c-0.3,0-0.5-0.1-0.6-0.4
					c0-0.3,0.1-0.5,0.4-0.6c0.2,0,4-0.6,6.4,2.5c0.2,0.2,0.1,0.5-0.1,0.7C366.7,306.8,366.6,306.9,366.5,306.9z"/>
			</g>
			<g id="XMLID_8001_">
				<path id="XMLID_8002_" class="st54" d="M328.6,858.9c-0.1,0-0.2,0-0.3-0.1c-0.2-0.2-0.3-0.5-0.1-0.7c0.1-0.1,1.4-2,4.4-3.6
					c2.7-1.4,7.3-2.8,14-1.4c0.3,0.1,0.4,0.3,0.4,0.6c-0.1,0.3-0.3,0.4-0.6,0.4c-12.2-2.6-17.2,4.3-17.4,4.5
					C328.9,858.8,328.8,858.9,328.6,858.9z"/>
			</g>
			<g id="XMLID_7999_">
				<path id="XMLID_8000_" class="st54" d="M329.3,853.5c-0.2,0-0.3-0.1-0.4-0.2c-0.1-0.2-0.1-0.5,0.2-0.7c0.4-0.2,9-5.2,16.2-1.9
					c0.3,0.1,0.4,0.4,0.2,0.7c-0.1,0.3-0.4,0.4-0.7,0.2c-6.7-3.1-15.1,1.8-15.2,1.8C329.5,853.5,329.4,853.5,329.3,853.5z"/>
			</g>
			<g id="XMLID_7997_">
				<path id="XMLID_7998_" class="st54" d="M329.3,850.6c-0.2,0-0.3-0.1-0.4-0.2c-0.1-0.2-0.1-0.5,0.2-0.7c0.4-0.2,9-5.2,16.2-1.9
					c0.3,0.1,0.4,0.4,0.2,0.7c-0.1,0.3-0.4,0.4-0.7,0.2c-6.7-3.1-15.1,1.8-15.2,1.8C329.5,850.6,329.4,850.6,329.3,850.6z"/>
			</g>
			<g id="XMLID_7995_">
				<path id="XMLID_7996_" class="st54" d="M329.3,847.7c-0.2,0-0.3-0.1-0.4-0.2c-0.1-0.2-0.1-0.5,0.2-0.7c0.4-0.2,9-5.2,16.2-1.9
					c0.3,0.1,0.4,0.4,0.2,0.7c-0.1,0.3-0.4,0.4-0.7,0.2c-6.7-3.1-15.1,1.8-15.2,1.8C329.5,847.7,329.4,847.7,329.3,847.7z"/>
			</g>
			<g id="XMLID_7993_">
				<path id="XMLID_7994_" class="st54" d="M329.3,844.8c-0.2,0-0.3-0.1-0.4-0.2c-0.1-0.2-0.1-0.5,0.2-0.7c0.4-0.2,9-5.2,16.2-1.9
					c0.3,0.1,0.4,0.4,0.2,0.7c-0.1,0.3-0.4,0.4-0.7,0.2c-6.7-3.1-15.1,1.8-15.2,1.8C329.5,844.8,329.4,844.8,329.3,844.8z"/>
			</g>
			<g id="XMLID_7991_">
				<path id="XMLID_7992_" class="st54" d="M329.3,841.9c-0.2,0-0.3-0.1-0.4-0.2c-0.1-0.2-0.1-0.5,0.2-0.7c0.4-0.2,9-5.2,16.2-1.9
					c0.3,0.1,0.4,0.4,0.2,0.7c-0.1,0.3-0.4,0.4-0.7,0.2c-6.7-3.1-15.1,1.8-15.2,1.8C329.5,841.8,329.4,841.9,329.3,841.9z"/>
			</g>
			<g id="XMLID_7989_">
				<path id="XMLID_7990_" class="st54" d="M329.3,838.9c-0.2,0-0.3-0.1-0.4-0.2c-0.1-0.2-0.1-0.5,0.2-0.7c0.4-0.2,9-5.2,16.2-1.9
					c0.3,0.1,0.4,0.4,0.2,0.7c-0.1,0.3-0.4,0.4-0.7,0.2c-6.7-3.1-15.1,1.8-15.2,1.8C329.5,838.9,329.4,838.9,329.3,838.9z"/>
			</g>
			<g id="XMLID_7987_">
				<path id="XMLID_7988_" class="st54" d="M329.3,836c-0.2,0-0.3-0.1-0.4-0.2c-0.1-0.2-0.1-0.5,0.2-0.7c0.4-0.2,9-5.2,16.2-1.9
					c0.3,0.1,0.4,0.4,0.2,0.7c-0.1,0.3-0.4,0.4-0.7,0.2c-6.7-3.1-15.1,1.8-15.2,1.8C329.5,836,329.4,836,329.3,836z"/>
			</g>
			<g id="XMLID_7985_">
				<path id="XMLID_7986_" class="st54" d="M329.3,833.1c-0.2,0-0.3-0.1-0.4-0.2c-0.1-0.2-0.1-0.5,0.2-0.7c0.4-0.2,9-5.2,16.2-1.9
					c0.3,0.1,0.4,0.4,0.2,0.7c-0.1,0.3-0.4,0.4-0.7,0.2c-6.7-3.1-15.1,1.8-15.2,1.8C329.5,833.1,329.4,833.1,329.3,833.1z"/>
			</g>
			<g id="XMLID_7983_">
				<path id="XMLID_7984_" class="st54" d="M382.5,836c-0.1,0-0.1,0-0.2,0c-7.7-3.7-17.8-0.3-17.9-0.2c-0.3,0.1-0.5,0-0.6-0.3
					c-0.1-0.3,0-0.5,0.3-0.6c0.4-0.1,10.6-3.6,18.7,0.3c0.2,0.1,0.4,0.4,0.2,0.7C382.9,835.9,382.7,836,382.5,836z"/>
			</g>
			<g id="XMLID_7981_">
				<path id="XMLID_7982_" class="st54" d="M382.5,832c-0.1,0-0.1,0-0.2,0c-7.7-3.7-17.8-0.3-17.9-0.2c-0.3,0.1-0.5,0-0.6-0.3
					c-0.1-0.3,0-0.5,0.3-0.6c0.4-0.1,10.6-3.6,18.7,0.3c0.2,0.1,0.4,0.4,0.2,0.7C382.9,831.9,382.7,832,382.5,832z"/>
			</g>
			<g id="XMLID_7979_">
				<path id="XMLID_7980_" class="st54" d="M382.5,827.9c-0.1,0-0.1,0-0.2,0c-7.7-3.7-17.8-0.3-17.9-0.2c-0.3,0.1-0.5,0-0.6-0.3
					c-0.1-0.3,0-0.5,0.3-0.6c0.4-0.1,10.6-3.6,18.7,0.3c0.2,0.1,0.4,0.4,0.2,0.7C382.9,827.8,382.7,827.9,382.5,827.9z"/>
			</g>
			<g id="XMLID_7977_">
				<path id="XMLID_7978_" class="st54" d="M380.8,823.9c-0.1,0-0.2,0-0.2-0.1c-7-3.7-16.1-0.3-16.2-0.2c-0.3,0.1-0.5,0-0.6-0.3
					c-0.1-0.3,0-0.5,0.3-0.6c0.4-0.2,9.7-3.6,17.1,0.3c0.2,0.1,0.3,0.4,0.2,0.7C381.1,823.8,381,823.9,380.8,823.9z"/>
			</g>
			<g id="XMLID_7975_">
				<path id="XMLID_7976_" class="st54" d="M380.5,820.6c-0.1,0-0.2,0-0.2-0.1c-7-3.7-16.1-0.3-16.2-0.2c-0.3,0.1-0.5,0-0.6-0.3
					c-0.1-0.3,0-0.5,0.3-0.6c0.4-0.2,9.7-3.6,17.1,0.3c0.2,0.1,0.3,0.4,0.2,0.7C380.9,820.5,380.7,820.6,380.5,820.6z"/>
			</g>
			<g id="XMLID_7973_">
				<path id="XMLID_7974_" class="st54" d="M379.2,817.5c-0.1,0-0.2,0-0.2-0.1c-6.4-3.7-14.9-0.3-14.9-0.2c-0.3,0.1-0.5,0-0.7-0.3
					c-0.1-0.3,0-0.5,0.3-0.7c0.4-0.2,9-3.6,15.8,0.3c0.2,0.1,0.3,0.4,0.2,0.7C379.6,817.5,379.4,817.5,379.2,817.5z"/>
			</g>
			<g id="XMLID_7964_">
				<path id="XMLID_7969_" class="st54" d="M336.2,818.3c-0.2-0.1-0.5-0.1-0.7,0c-0.2-0.2-0.4-0.3-0.7-0.4c-1.1-0.2-4.6-0.9-6.5,0.4
					c-1.5,1.1-9.6,8-10,8.3c-0.4,0.4-0.6,0.9-0.5,1.5c0.3,1.3,1.5,3.7,4.1,3.7c0.2,0,0.5,0,0.8-0.1c2.3-0.4,5.7-3.5,9.6-7.3l0.1-0.1
					c0.7-0.6,1.2-1.1,1.5-1.4c0,0,0.1-0.1,0.1-0.1c0.3,4.9,0.7,15.3-1.6,20c-0.2,0.4-0.2,0.8-0.1,1.1c0.1,0.4,0.4,0.7,0.8,0.9
					c0.2,0.1,0.4,0.1,0.6,0.1c0.6,0,1.1-0.3,1.4-0.8c0.7-1.5,1.2-3.3,1.5-5.4c1.9,8.4,4.7,13.3,8.2,14.5c0.2,0.1,0.3,0.1,0.5,0.1
					c0.6,0,1.2-0.4,1.4-1c0.3-0.8-0.1-1.6-0.9-1.9c-2-0.7-3.7-3.7-5-7.7c0,0,0,0,0,0c0.7,2,2.9,3.3,5.5,3.3c0.7,0,1.4-0.1,2.1-0.3
					c2.5-0.8,3.8-2.9,3.1-5.2C346.3,821.2,336.6,818.4,336.2,818.3z M332.2,820.5c-0.1,0.1-0.1,0.1-0.2,0.2c-0.4,0.3-1,0.9-1.7,1.6
					c-1.8,1.7-6.5,6.2-8,6.5c-0.2,0-0.7,0.1-1.2-0.6c1.8-1.6,7.8-6.7,9-7.5C330.3,820.5,331,820.4,332.2,820.5z M347.6,842.9
					c-1.4,0.4-3.4,0-3.8-1.2c-0.9-2.6-3.9-13.3-5.5-18.9c3,2.3,7.4,7.5,10.5,18.5C348.8,841.7,349.1,842.5,347.6,842.9z"/>
				<path id="XMLID_7965_" class="st54" d="M382.3,831.5l-5.5-13.3c0.3,0.1,0.5,0.1,0.8,0.1c0.2,0,0.3,0,0.5,0
					c1.5-0.3,2.5-1.4,2.8-3c0.6-4.1-4.1-11.7-11.3-15.5c0,0-0.1,0-0.1,0c-0.1-0.1-0.1-0.1-0.2-0.2c-0.5-0.4-1.3-0.4-1.8-0.1
					c-1,0.7-10.2,7.4-11.1,12.5c-0.2,1.2,0,2.3,0.7,3.3c0.8,1.1,1.9,2.3,3.3,2.3c0.1,0,0.2,0,0.3,0c1.7-0.2,2.8-1.7,4.6-5.7
					l-2.6,16.9c-0.1,0.4,0,0.8,0.3,1.1c0.2,0.3,0.6,0.5,1,0.6c0.1,0,0.2,0,0.2,0c0.7,0,1.4-0.5,1.5-1.3l3.4-22l10.5,25.2
					c0.2,0.6,0.8,0.9,1.4,0.9c0.2,0,0.4,0,0.6-0.1c0.4-0.2,0.7-0.4,0.8-0.8C382.5,832.3,382.5,831.9,382.3,831.5z M360.4,814.6
					c-0.1-0.1-0.4-0.4-0.9-1c-0.2-0.3-0.2-0.6-0.2-1c0.3-1.6,2.2-4.1,5.4-7C363.1,809.7,361.2,814.1,360.4,814.6z M377.9,814.9
					c-0.1,0.4-0.2,0.5-0.4,0.5c-0.8,0.2-3.4-3.5-5.9-10.6C376,808.3,378.2,812.9,377.9,814.9z"/>
			</g>
		</g>
		<g id="XMLID_7913_">
			<g id="XMLID_7915_">
				<g id="XMLID_7958_">
					<path id="XMLID_7960_" class="st16" d="M231,314.6c-0.2-0.1-0.3-0.1-0.5,0c-0.1,0-1.8,1-3.1-0.9c-0.1-0.2-0.4-0.3-0.6-0.2
						c-0.2,0.1-0.3,0.4-0.2,0.6l2.7,6.6c-0.6,2.2-1.2,5.3-1,9c-0.7,1.2-1.5,2.1-2.7,2.3c-0.3,0.1-0.4,0.3-0.4,0.6
						c0.1,0.2,0.3,0.4,0.5,0.4c0,0,0.1,0,0.1,0c1.1-0.2,1.9-0.9,2.6-1.8c0.1,1.3,0.4,2.6,0.8,4c0.1,0.2,0.3,0.4,0.5,0.4
						c0,0,0.1,0,0.1,0c0.3-0.1,0.4-0.4,0.3-0.6c-0.5-1.8-0.8-3.5-0.9-5.1c1.1-2,1.6-4.5,1.8-6.3c0.1-0.1,0.2-0.2,0.2-0.4V315
						C231.3,314.8,231.2,314.7,231,314.6z M229.9,322.4l0.3,0.6c-0.1,1.1-0.4,2.8-0.9,4.4C229.3,325.5,229.6,323.8,229.9,322.4z"/>
					<path id="XMLID_7959_" class="st16" d="M287.3,278.1c-3.7-11.4-15-15.9-15.1-15.9c-11.9-4.6-22.1-4.5-30.1,0.3
						c-7.4,4.4-11.6,12-13.8,17.6c-2.4,6.1-3.1,11.2-3.1,11.2c0,0,0,0,0,0c-0.9,10.9,45.8,15.1,47.7,15.3c0.1,0,0.9,0.2,2.1,0.2
						c1.4,0,3.5-0.3,5.5-1.7c3.9-2.6,6.5-7.8,7.6-15.5c0.4-2.5,0.4-4.7,0.2-6.8c0.9,3.4,1.1,8.9-2.4,15.9c-0.1,0.2,0,0.5,0.2,0.7
						c0.1,0,0.1,0.1,0.2,0.1c0.2,0,0.4-0.1,0.4-0.3C293.3,286.2,287.6,278.5,287.3,278.1z"/>
				</g>
				<path id="XMLID_7957_" class="st55" d="M222.8,877.2c0,0-2.7,5.7,4.8,8.8c7.5,3.2,16.3,6.8,23,5.5c6.7-1.3,6.7-1.5,8.2-3
					s3-5.5,0.7-11.3L222.8,877.2z"/>
				<path id="XMLID_7956_" class="st14" d="M221.5,866c0,0,0.3,13.9,3.8,15.7c3.5,1.8,17.2,6.8,20.7,6.8s9.8-1,11.5-2.2
					c1.7-1.2,2-6.5,2-9.1c0-2.6-5.3-21.9-5.3-21.9L221.5,866z"/>
				<path id="XMLID_7955_" class="st55" d="M257.2,866.9l3.2,2.2l8-3c0,0,2.7,5.4,2.7,8.5c0,3.2,8.5,8.2,16.3,8.2
					c7.8,0,13.8-0.3,16.7-1.2c2.8-0.8,8.8-2.5,2.7-8.2c-6.2-5.7-43.4-16.6-43.4-16.6l-7.9-1.5l-1.4,0L257.2,866.9z"/>
				<path id="XMLID_7954_" class="st14" d="M261.8,857.2c0,0,6.5,8.3,8.2,11.2c1.7,2.8,5.8,7.3,16.3,8.8c10.5,1.5,15.3,1.5,19,0
					c3.7-1.5,3.8-3.2,1.2-6.5c-2.7-3.3-2.8-8.7-5.3-10.3s-9.8-10.5-9.8-10.5L261.8,857.2z"/>
				<path id="XMLID_7951_" class="st56" d="M302.1,772.6c4.3-13.8,19-77.5,17-89s-4.3-25.8-7.8-41.8s-17.3-80.9-18.3-84.1
					c-1-3.2-6-17.9-6-17.9s-41.3-9.8-48.5-10.5s-81.7,5.1-81.7,5.1s-7.5,31.2,7.5,65.9s24.8,68.8,25.3,98.8s3,61.5,13.5,107.8
					s10.8,57,14,58.5s10,0.3,17.8-2.5c6.8-2.4,17.9-6.5,20.6-7.5c7.2,2.5,17.1,3.1,24.4,1.5c12.8-2.8,12.3-7.3,12.3-7.3
					s-3.3-16-1.5-19.5S297.9,786.4,302.1,772.6z M263.6,741.9c0,0-7.6,40.4-12.9,71.2c-1.7-8.6-4.4-15.5-4.4-15.5s-11-68.5-10.3-86
					s1.5-37.5,1.5-44.8c0,0,0.9-32.2,0.9-37.7l33.8,72.2C272.4,701.4,266.9,720.1,263.6,741.9z"/>
				<path id="XMLID_7950_" class="st26" d="M175.5,419l-35.1,35.9c0,0,7.5,28.5,24.5,52s26.5,25.8,31.3,34.3s4.8,8.5,4.8,8.5
					s-1.5,4.5-6.8,1.3s-9.3-12.1-9.3-12.1s-3.3,9.8,0,17.1c0,0-15.8,7.8-24.5-8l-4.8-18.5c0,0-43.5-50.5-45.7-65.8
					s1.3-27.5,18.7-50.5s18.9-25.7,18.9-25.7S173.1,393,175.5,419z"/>
				<path id="XMLID_7949_" class="st57" d="M212.4,349.9c0,0-26.9,2.5-38.9,7.5s-27.6,28.8-27.6,28.8s29.9,22,29.6,32.9
					s7.6,58.4,3.6,65.6s-14.3,22.3-14.3,22.3s19,33.3,41.8,33.5s34.3-6.8,38-6s24.3,9.3,31.5,8.8s11-3.3,11-3.3s8-69.3,10.8-74.3
					s4.3-22.8,2.8-29s-2.3-9.5-2.3-9.5l9-9.3c0,0,5.5-21-13.3-39.8s-42.8-22.3-42.8-22.3L212.4,349.9z"/>
				<path id="XMLID_7948_" class="st58" d="M230.6,312.8c0,0,1.5,22.4-3.6,29.5s-14.6,7.6-14.6,7.6s8.7,2.6,13.2,9.9
					c4.5,7.3,30.3,49.6,30.3,49.6s17.1-28.5,17.3-32.6s-3-7.8-4.4-11.1s-3.3-6.3-3.3-6.3l12.1-40.8L230.6,312.8z"/>
				<path id="XMLID_7947_" class="st26" d="M268.9,272.6c7.7,1.4,14.1,6.8,16.2,14.3c0.1,0.3,0.2,0.7,0.3,1c1.5,6.8,1,26.3,0,31.8
					s-11.5,21.8-16,23.5s-26.8,3.8-37.5-29.3c0,0-1.4,3.4-5.5-0.5c0,0-4.1-7-5.1-13.8s4.4-8.3,4.4-8.3s11.4,6.1,17.5-6.1
					C248.5,274.6,250.5,269.2,268.9,272.6z"/>
				<ellipse id="XMLID_7946_" class="st0" cx="229.5" cy="312.5" rx="0.9" ry="1.4"/>
				<g id="XMLID_7944_">
					<path id="XMLID_7945_" class="st59" d="M215.8,358.3c-3.4,0-12.1-5-12.4-5.2c-0.2-0.1-0.3-0.4-0.2-0.7c0.1-0.2,0.4-0.3,0.7-0.2
						c0.1,0.1,8.8,5.1,11.9,5.1c3.2,0,5.2-0.6,5.2-0.6c0.3-0.1,0.5,0.1,0.6,0.3c0.1,0.3-0.1,0.5-0.3,0.6
						C221.2,357.6,219.2,358.3,215.8,358.3z"/>
				</g>
				<g id="XMLID_7942_">
					<path id="XMLID_7943_" class="st59" d="M261.5,414.9C261.5,414.9,261.5,414.9,261.5,414.9l-6.4-0.9l-5.5,0
						c-0.3,0-0.5-0.2-0.5-0.5c0,0-0.3-2.9-2.1-6.2c-1.9-3.4-26.7-42.7-27-43.1c-0.1-0.2-0.1-0.5,0.2-0.7c0.2-0.1,0.5-0.1,0.7,0.2
						c1,1.6,25.1,39.6,27,43.1c1.5,2.8,2,5.2,2.2,6.2h5.1l6,0.9c1-2.2,6.5-14.2,8.9-17.6c2.7-3.9,8.4-17.8,7-22.3
						c-0.1-0.3,0.1-0.5,0.3-0.6c0.3-0.1,0.5,0.1,0.6,0.3c1.6,4.9-4.4,19.3-7.2,23.2c-2.5,3.6-8.9,17.6-9,17.8
						C261.9,414.8,261.7,414.9,261.5,414.9z"/>
				</g>
				<g id="XMLID_7940_">
					<path id="XMLID_7941_" class="st59" d="M173.3,409.9c-0.2,0-0.3-0.1-0.4-0.2c-3.3-5.7-7.9-40.1-8.1-41.5c0-0.3,0.2-0.5,0.4-0.6
						c0.3,0,0.5,0.2,0.6,0.4c0,0.4,4.8,35.6,8,41.1c0.1,0.2,0.1,0.5-0.2,0.7C173.5,409.9,173.4,409.9,173.3,409.9z"/>
				</g>
				<g id="XMLID_7938_">
					<path id="XMLID_7939_" class="st60" d="M251.5,546.7c-10.4,0-27.5-4.3-28.3-4.5c-0.3-0.1-0.4-0.3-0.4-0.6
						c0.1-0.3,0.3-0.4,0.6-0.4c0.2,0.1,21.7,5.5,31.2,4.3c9.6-1.2,16.4-2.1,16.5-2.1c0.3,0,0.5,0.2,0.6,0.4c0,0.3-0.2,0.5-0.4,0.6
						c-0.1,0-6.9,0.9-16.5,2.1C253.7,546.7,252.7,546.7,251.5,546.7z"/>
				</g>
				<g id="XMLID_7936_">
					<path id="XMLID_7937_" class="st60" d="M239.9,580.5l-1-0.2c0,0,5.8-24.5,6.3-26.6c0.4-1.7,0.1-11.3,0-14.9
						c0-0.3,0.2-0.5,0.5-0.5c0.3,0,0.5,0.2,0.5,0.5c0,0.5,0.5,13,0,15.1C245.8,556,239.9,580.5,239.9,580.5z"/>
				</g>
				<g id="XMLID_7934_">
					<path id="XMLID_7935_" class="st60" d="M178.3,557.9c-12.3,0-17-5-17.2-5.2c-0.2-0.2-0.2-0.5,0-0.7c0.2-0.2,0.5-0.2,0.7,0
						c0,0.1,5.1,5.3,18.1,4.9c8.2-0.3,11-8.3,11-8.4c0.1-0.3,0.4-0.4,0.6-0.3c0.3,0.1,0.4,0.4,0.3,0.6c0,0.1-3,8.7-11.9,9
						C179.4,557.9,178.8,557.9,178.3,557.9z"/>
				</g>
				<g id="XMLID_7932_">
					<path id="XMLID_7933_" class="st60" d="M284.9,554.3c-2.9,0-7.1-7-7.6-7.8c-0.1-0.2-0.1-0.5,0.2-0.7c0.2-0.1,0.5-0.1,0.7,0.2
						c1.7,2.9,5,7.4,6.7,7.3c2.6-0.1,5.2-0.5,5.3-0.5c0.3,0,0.5,0.1,0.6,0.4c0,0.3-0.1,0.5-0.4,0.6
						C290.3,553.8,287.6,554.2,284.9,554.3C285,554.3,284.9,554.3,284.9,554.3z"/>
				</g>
				<g id="XMLID_7930_">
					<path id="XMLID_7931_" class="st60" d="M203,801.1c-0.3,0-0.5-0.2-0.5-0.5l-7.3-73c0-0.5-2.7-52.2-4.2-60
						c-1.6-8.3-19.2-68-23-75.2c-3.8-7.3-8.2-33.4-8.4-34.5c0-0.3,0.1-0.5,0.4-0.6c0.3,0,0.5,0.1,0.6,0.4c0,0.3,4.5,27,8.3,34.2
						c3.8,7.2,21.5,67.2,23.1,75.5c1.5,7.8,4.1,57.9,4.2,60.1l7.3,73C203.5,800.8,203.3,801,203,801.1
						C203,801.1,203,801.1,203,801.1z"/>
				</g>
				<g id="XMLID_7928_">
					<path id="XMLID_7929_" class="st60" d="M218.4,861.6c-0.2,0-0.4-0.1-0.4-0.3c-0.1-0.2,0-0.5,0.2-0.7c0.4-0.2,10.1-5.3,15.4-5.8
						c5.1-0.5,18.5-4.2,18.7-4.2c0.3-0.1,0.5,0.1,0.6,0.3c0.1,0.3-0.1,0.5-0.3,0.6c-0.6,0.2-13.6,3.8-18.8,4.3
						c-5.1,0.5-15,5.6-15.1,5.7C218.5,861.6,218.5,861.6,218.4,861.6z"/>
				</g>
				<g id="XMLID_7926_">
					<path id="XMLID_7927_" class="st60" d="M271.8,851.6c-0.2,0-0.5,0-0.7,0c-7-0.3-12.7-3.4-13-3.6c-0.2-0.1-0.3-0.4-0.2-0.7
						c0.1-0.2,0.4-0.3,0.7-0.2c0.1,0,5.7,3.2,12.5,3.4c6.8,0.2,17.2-3.4,17.3-3.5c0.3-0.1,0.5,0,0.6,0.3c0.1,0.3,0,0.5-0.3,0.6
						C288.4,848.3,278.8,851.6,271.8,851.6z"/>
				</g>
				<g id="XMLID_7924_">
					<path id="XMLID_7925_" class="st60" d="M260.7,845.9C260.7,845.9,260.6,845.9,260.7,845.9c-0.3,0-0.5-0.3-0.5-0.5
						c0-0.3,2.2-27.6,3.7-35.8c1.4-7.8,17.4-97.9,17.4-104.2c0-17.3-7.9-33.3-16.2-50.2c-1.2-2.5-2.5-5-3.7-7.6
						c-9.6-19.8-20.1-45.5-20.2-45.8c-0.1-0.3,0-0.5,0.3-0.7c0.3-0.1,0.5,0,0.7,0.3c0.1,0.3,10.6,26,20.2,45.7
						c1.2,2.6,2.5,5.1,3.7,7.6c8.4,17,16.3,33.1,16.3,50.6c0,6.3-16,96.6-17.4,104.3c-1.5,8.1-3.7,35.4-3.7,35.7
						C261.1,845.7,260.9,845.9,260.7,845.9z"/>
				</g>
				<g id="XMLID_7922_">
					<path id="XMLID_7923_" class="st60" d="M256.6,582.9c-0.2,0-0.4-0.2-0.5-0.4c-0.1-0.3,0.1-0.5,0.4-0.6c1-0.2,24.9-6,31.6-6
						c0.3,0,0.5,0.2,0.5,0.5c0,0.3-0.2,0.5-0.5,0.5c-6.6,0-31.1,5.9-31.4,6C256.7,582.9,256.7,582.9,256.6,582.9z"/>
				</g>
				<g id="XMLID_7920_">
					<path id="XMLID_7921_" class="st60" d="M237.2,580.9C237.1,580.9,237.1,580.9,237.2,580.9c-0.4-0.1-0.5-0.3-0.5-0.6
						c0-0.3,4.8-25.7,4.5-30.2c0-0.3,0.2-0.5,0.5-0.5c0.3,0,0.5,0.2,0.5,0.5c0.4,4.7-4.3,29.5-4.5,30.5
						C237.6,580.7,237.4,580.9,237.2,580.9z"/>
				</g>
				<g id="XMLID_7918_">
					<path id="XMLID_7919_" class="st60" d="M238.5,629.6C238.5,629.6,238.5,629.6,238.5,629.6c-0.3,0-0.5-0.2-0.5-0.5l0.9-45
						c0-0.3,0.2-0.5,0.5-0.5c0.3,0,0.5,0.2,0.5,0.5l-0.9,45C239,629.4,238.8,629.6,238.5,629.6z"/>
				</g>
				<g id="XMLID_7916_">
					<path id="XMLID_7917_" class="st60" d="M255.5,855.9c-0.3,0-0.5-0.2-0.5-0.5c-0.1-13.6-4.7-41.9-4.7-42.2
						c0-0.3,0.1-0.5,0.4-0.6c0.3,0,0.5,0.1,0.6,0.4c0,0.3,4.6,28.7,4.7,42.3C256,855.6,255.8,855.9,255.5,855.9
						C255.5,855.9,255.5,855.9,255.5,855.9z"/>
				</g>
			</g>
			<circle id="XMLID_7914_" class="st60" cx="242" cy="540.6" r="2.5"/>
		</g>
		<g id="XMLID_7906_">
			<path id="XMLID_7912_" class="st26" d="M736.3,500.6c0,0-4.7-3.5-8.3-3.8c-3.7-0.3-8-0.8-9.2,1.2c0,0-1.5,2.4,1.9,2.7
				c0,0-3.4-0.3-3.4,1.8s1.5,3.3,2.1,3.6c0,0-2.1,0.9-1.1,3.1c1,2.2,3.5,3.8,3.5,3.8l3.8,1.9c0,0-2.2,1.2-0.9,2.2s5.7,4.6,6,5.4
				c0.3,0.8,1.4-1.6,1-3.3c-0.4-1.8-1.2-2.1-1.2-2.1s1.3-2.8,2.4-4.7c1.2-1.8,2.2-3.8,1.8-5.3C734.4,505.3,738.5,503.1,736.3,500.6z
				"/>
			<path id="XMLID_7911_" class="st26" d="M727.1,490.5c0,0,3,0.1,4.8,1.8c1.8,1.7,3.6,3.6,1.1,6.3c0,0-3-1.7-6.9-1.9L727.1,490.5z"
				/>
			<g id="XMLID_7909_">
				<path id="XMLID_7910_" class="st61" d="M732.4,505.3c-0.1,0-0.2,0-0.3-0.1c-3.9-2.8-10.7-4-10.8-4c-0.3,0-0.5-0.3-0.4-0.6
					c0-0.3,0.3-0.5,0.6-0.4c0.3,0,7.1,1.2,11.2,4.2c0.2,0.2,0.3,0.5,0.1,0.7C732.7,505.2,732.5,505.3,732.4,505.3z"/>
			</g>
			<g id="XMLID_7907_">
				<path id="XMLID_7908_" class="st61" d="M729.4,510.5c-0.1,0-0.1,0-0.2,0c-1.5-0.6-8.6-3.9-8.9-4c-0.3-0.1-0.4-0.4-0.2-0.7
					c0.1-0.3,0.4-0.4,0.7-0.2c0.1,0,7.4,3.4,8.9,4c0.3,0.1,0.4,0.4,0.3,0.6C729.8,510.3,729.6,510.5,729.4,510.5z"/>
			</g>
		</g>
	</g>
</g>
</svg>
