<?xml version="1.0" encoding="utf-8"?>
<!-- Generator: Adobe Illustrator 24.3.0, SVG Export Plug-In . SVG Version: 6.00 Build 0)  -->
<svg version="1.1" xmlns="http://www.w3.org/2000/svg" xmlns:xlink="http://www.w3.org/1999/xlink" x="0px" y="0px"
	 viewBox="0 0 500 500" style="enable-background:new 0 0 500 500;" xml:space="preserve">
<style type="text/css">
	.st0{fill:#FFFFFF;}
	.st1{fill:#E0F0FF;}
	.st2{clip-path:url(#SVGID_2_);fill:#CACAFE;}
	.st3{fill:url(#SVGID_3_);}
	.st4{fill:url(#SVGID_4_);}
	.st5{fill:url(#SVGID_5_);}
	.st6{opacity:0.55;fill:#FFFFFF;}
	.st7{fill:url(#SVGID_6_);}
	.st8{fill:url(#SVGID_7_);}
	.st9{fill:url(#SVGID_8_);}
	.st10{fill:url(#SVGID_9_);}
	.st11{fill:none;stroke:#FFFFFF;stroke-width:0.75;stroke-miterlimit:10;}
	.st12{fill:url(#SVGID_10_);}
	.st13{fill:url(#SVGID_11_);}
	.st14{fill:url(#SVGID_12_);}
	.st15{fill:url(#SVGID_13_);}
	.st16{fill:url(#SVGID_14_);}
	.st17{fill:url(#SVGID_15_);}
	.st18{opacity:0.35;fill:url(#SVGID_16_);}
	.st19{fill:url(#SVGID_17_);}
	.st20{fill:url(#SVGID_18_);}
	.st21{fill:url(#SVGID_19_);}
	.st22{clip-path:url(#SVGID_21_);fill:url(#SVGID_22_);}
	.st23{fill:url(#SVGID_23_);}
	.st24{fill:url(#SVGID_24_);}
	.st25{fill:url(#SVGID_25_);}
	.st26{fill:url(#SVGID_26_);}
	.st27{fill:url(#SVGID_27_);}
	.st28{fill:url(#SVGID_28_);}
	.st29{fill:url(#SVGID_29_);}
	.st30{fill:url(#SVGID_30_);}
	.st31{fill:url(#SVGID_31_);}
	.st32{fill:url(#SVGID_32_);}
	.st33{fill:url(#SVGID_33_);}
	.st34{fill:url(#SVGID_34_);}
	.st35{fill:url(#SVGID_35_);}
	.st36{fill:url(#SVGID_36_);}
	.st37{fill:#4CCC89;}
	.st38{fill:#FC4C3A;}
	.st39{fill:url(#SVGID_37_);}
	.st40{fill:url(#SVGID_38_);}
	.st41{fill:url(#SVGID_39_);}
	.st42{clip-path:url(#SVGID_41_);fill:#FF6666;stroke:#FFFFFF;stroke-miterlimit:10;}
	.st43{fill:#21E392;}
	.st44{fill:#FFDC4A;}
	.st45{fill:#FF6666;}
	.st46{fill:url(#SVGID_42_);}
	.st47{fill:none;stroke:url(#SVGID_43_);stroke-width:2;stroke-linecap:round;stroke-linejoin:round;stroke-miterlimit:10;}
	.st48{fill:none;stroke:#403C5E;stroke-miterlimit:10;}
	.st49{fill:url(#SVGID_44_);}
	.st50{fill:url(#SVGID_45_);}
	.st51{clip-path:url(#SVGID_47_);}
	.st52{fill:none;stroke:#FFFFFF;stroke-linecap:round;stroke-linejoin:round;stroke-miterlimit:10;}
	.st53{fill:none;stroke:#FFFFFF;stroke-miterlimit:10;}
	.st54{fill:url(#SVGID_48_);}
	.st55{opacity:0.35;fill:#FFFFFF;}
	.st56{clip-path:url(#SVGID_50_);}
	.st57{opacity:0.25;fill:#FFFFFF;}
	.st58{fill:url(#SVGID_51_);}
	.st59{fill:url(#SVGID_52_);}
	.st60{fill:url(#SVGID_53_);}
	.st61{fill:url(#SVGID_54_);}
	.st62{fill:url(#SVGID_55_);}
	.st63{fill:url(#SVGID_56_);}
	.st64{fill:url(#SVGID_57_);}
	.st65{fill:url(#SVGID_58_);}
	.st66{fill:url(#SVGID_59_);}
	.st67{fill:url(#SVGID_60_);}
	.st68{fill:url(#SVGID_61_);}
	.st69{fill:url(#SVGID_62_);}
	.st70{fill:url(#SVGID_63_);}
	.st71{fill:url(#SVGID_64_);}
	.st72{fill:url(#SVGID_65_);}
	.st73{fill:url(#SVGID_66_);}
	.st74{fill:url(#SVGID_67_);}
	.st75{fill:url(#SVGID_68_);}
	.st76{fill:url(#SVGID_69_);}
	.st77{fill:url(#SVGID_70_);}
	.st78{fill:url(#SVGID_71_);}
	.st79{fill:url(#SVGID_72_);}
	.st80{fill:url(#SVGID_73_);}
	.st81{fill:url(#SVGID_74_);}
	.st82{fill:url(#SVGID_75_);}
	.st83{fill:url(#SVGID_76_);}
	.st84{clip-path:url(#SVGID_78_);}
	.st85{fill:#FFD9D9;}
	.st86{clip-path:url(#SVGID_80_);fill:url(#SVGID_81_);}
	.st87{fill:url(#SVGID_82_);}
	.st88{fill:none;stroke:#E16D90;stroke-linecap:round;stroke-linejoin:round;stroke-miterlimit:10;}
	.st89{fill:#2A3249;}
	.st90{fill:none;stroke:#2A3249;stroke-linecap:round;stroke-miterlimit:10;}
	.st91{fill:url(#SVGID_83_);}
	.st92{opacity:0.55;fill:#FFD9D9;}
	.st93{fill:url(#SVGID_84_);}
	.st94{fill:url(#SVGID_85_);}
	.st95{opacity:0.35;clip-path:url(#SVGID_87_);fill:none;stroke:#E0F0FF;stroke-width:6;stroke-miterlimit:10;}
	.st96{opacity:0.36;fill:#515151;}
	.st97{fill:url(#SVGID_88_);}
	.st98{opacity:0.35;clip-path:url(#SVGID_90_);fill:url(#SVGID_91_);}
</style>
<g id="BACKGROUND">
	<rect class="st0" width="500" height="500"/>
</g>
<g id="OBJECTS">
	<g>
		<g>
			<path class="st1" d="M303.4,122.4c84.4,18.5,137.6,77.9,144.7,160.6c7,81.1-107.2,45.6-167,89.9c-59.4,43.9-143.3,43.9-190.8,3.3
				c-47.5-40.6-42.6-115.6-17.4-161C115.8,138.1,194.9,98.6,303.4,122.4z"/>
			<g>
				<defs>
					<path id="SVGID_1_" d="M303.4,122.4c84.4,18.5,137.6,77.9,144.7,160.6c7,81.1-107.2,45.6-167,89.9
						c-59.4,43.9-143.3,43.9-190.8,3.3c-47.5-40.6-42.6-115.6-17.4-161C115.8,138.1,194.9,98.6,303.4,122.4z"/>
				</defs>
				<clipPath id="SVGID_2_">
					<use xlink:href="#SVGID_1_"  style="overflow:visible;"/>
				</clipPath>
				<path class="st2" d="M50.7,264.5l420.9,2.3l-7.1,88.3c0,0-204.8,47.9-206.3,48.2c-1.5,0.3-242-54.8-242-54.8L50.7,264.5z"/>
			</g>
		</g>
		<linearGradient id="SVGID_3_" gradientUnits="userSpaceOnUse" x1="328.9842" y1="231.404" x2="328.8991" y2="251.0637">
			<stop  offset="5.300000e-07" style="stop-color:#E0F0FF"/>
			<stop  offset="1" style="stop-color:#D1DBF6"/>
		</linearGradient>
		<polygon class="st3" points="329,237.9 331.6,237.9 330.3,240.2 329,242.5 327.6,240.2 326.3,237.9 		"/>
		<linearGradient id="SVGID_4_" gradientUnits="userSpaceOnUse" x1="328.9774" y1="231.404" x2="328.8923" y2="251.0637">
			<stop  offset="5.300000e-07" style="stop-color:#E0F0FF"/>
			<stop  offset="1" style="stop-color:#D1DBF6"/>
		</linearGradient>
		<polygon class="st4" points="329,236.4 331.6,236.4 330.3,234.1 329,231.8 327.6,234.1 326.3,236.4 		"/>
		<g>
			<g>
				<linearGradient id="SVGID_5_" gradientUnits="userSpaceOnUse" x1="82.5833" y1="202.4705" x2="75.6669" y2="269.8297">
					<stop  offset="0" style="stop-color:#70FFAC"/>
					<stop  offset="0.2779" style="stop-color:#51DDBC"/>
					<stop  offset="1" style="stop-color:#0085E5"/>
				</linearGradient>
				<path class="st5" d="M82.7,196.9c12.9,18.8,3.3,79.4,3.3,79.4l-21.2-1.4c0,0,1.6-60.7,16.2-78.1
					C81.4,196.2,82.3,196.2,82.7,196.9z"/>
				<path class="st6" d="M78.7,270.1l0.8-17.5l5.5-6c0.2-0.2,0.2-0.5,0-0.7c-0.2-0.2-0.5-0.2-0.7,0l-4.7,5.1l0.4-8.7l0-1
					c0,0,0,0,0,0l0.4-8.9l5.8-6c0.2-0.2,0.2-0.5,0-0.7c-0.2-0.2-0.5-0.2-0.7,0l-5,5.2l0.4-9.8c0,0,0,0,0,0l0.5-10.4
					c0-0.3-0.2-0.5-0.5-0.5c-0.3,0-0.5,0.2-0.5,0.5l-0.4,9.2l-3.8-3.7c-0.2-0.2-0.5-0.2-0.7,0c-0.2,0.2-0.2,0.5,0,0.7l4.4,4.3
					l-0.8,19l-4.1-3.7c-0.2-0.2-0.5-0.2-0.7,0c-0.2,0.2-0.2,0.5,0,0.7l4.7,4.2l0,1.1l-0.4,9.8c0,0,0,0,0,0l-0.8,17.3L78.7,270.1z"/>
				<linearGradient id="SVGID_6_" gradientUnits="userSpaceOnUse" x1="94.1045" y1="218.987" x2="89.8986" y2="295.7441">
					<stop  offset="0" style="stop-color:#70FFAC"/>
					<stop  offset="1" style="stop-color:#0085E5"/>
				</linearGradient>
				<path class="st7" d="M105.2,209.5c8,18.4-9.6,68.8-9.6,68.8l-18.1-4.5c0,0,10.7-51.8,26-64.7C104.1,208.6,105,208.8,105.2,209.5
					z"/>
				<linearGradient id="SVGID_7_" gradientUnits="userSpaceOnUse" x1="66.1776" y1="217.4214" x2="61.9693" y2="294.2226">
					<stop  offset="0" style="stop-color:#70FFAC"/>
					<stop  offset="1" style="stop-color:#0085E5"/>
				</linearGradient>
				<path class="st8" d="M55.7,207.2c15.2,12.7,21.8,65,21.8,65l-18,4c0,0-13.3-50.4-5.6-68.5C54.3,206.9,55.2,206.7,55.7,207.2z"/>
				<path class="st6" d="M95.5,248C95.5,248,95.5,248,95.5,248l1.9-7.8l6-4.3c0.2-0.1,0.2-0.4,0.1-0.6c-0.1-0.2-0.4-0.2-0.6-0.1
					l-5.2,3.7l2.1-8.5c0,0,0,0,0,0l2.2-9c0.1-0.2-0.1-0.5-0.3-0.5c-0.2-0.1-0.5,0.1-0.5,0.3l-1.9,8l-2.7-3.9
					c-0.1-0.2-0.4-0.3-0.6-0.1c-0.2,0.1-0.3,0.4-0.1,0.6l3.1,4.5l-4,16.5l-2.9-3.9c-0.1-0.2-0.4-0.2-0.6-0.1
					c-0.2,0.1-0.2,0.4-0.1,0.6l3.3,4.5l-0.2,1l-2.1,8.5c0,0,0,0,0,0l-3.6,15.1H68l-2-10l3.8-6.6c0.1-0.2,0-0.5-0.2-0.6
					c-0.2-0.1-0.5,0-0.6,0.2l-3.3,5.7l-1.1-5.6l-0.6-2.9c0,0,0,0,0,0l-1.6-8l3.8-6.6c0.1-0.2,0-0.5-0.2-0.6c-0.2-0.1-0.5,0-0.6,0.2
					l-3.3,5.7l-0.6-3l-1.1-5.5c0,0,0,0,0,0L58,222.4c0-0.2-0.3-0.4-0.5-0.4c-0.2,0-0.4,0.3-0.3,0.5l2.3,11.5l-4-2.5
					c-0.2-0.1-0.5-0.1-0.6,0.1c-0.1,0.2-0.1,0.5,0.1,0.6l4.7,2.9l3.3,16.6l-4-2.5c-0.2-0.1-0.5-0.1-0.6,0.1
					c-0.1,0.2-0.1,0.5,0.1,0.6l4.7,2.9l4,20c0,0.2,0.2,0.4,0.4,0.4H89c0.2,0,0.4-0.1,0.4-0.3l3.7-15.2l5.8-4.3
					c0.2-0.1,0.2-0.4,0.1-0.6c-0.1-0.2-0.4-0.2-0.6-0.1l-5,3.7l1.8-7.6L95.5,248z"/>
				<path class="st1" d="M58.3,269.3h39.5c4,0,7,3.8,6,7.7l-10.1,42.2c-0.7,2.8-3.2,4.8-6,4.8h-23c-3.1,0-5.7-2.2-6.1-5.3l-6.4-42.2
					C51.6,272.7,54.5,269.3,58.3,269.3z"/>
			</g>
			<g>
				<g>
					<linearGradient id="SVGID_8_" gradientUnits="userSpaceOnUse" x1="83.2926" y1="173.47" x2="85.013" y2="219.0593">
						<stop  offset="1.396690e-02" style="stop-color:#F7D64E"/>
						<stop  offset="1" style="stop-color:#F79448"/>
					</linearGradient>
					<circle class="st9" cx="83.8" cy="186.4" r="21.2"/>
					<linearGradient id="SVGID_9_" gradientUnits="userSpaceOnUse" x1="83.9819" y1="191.736" x2="85.13" y2="222.1617">
						<stop  offset="1.396690e-02" style="stop-color:#F7D64E"/>
						<stop  offset="1" style="stop-color:#F79448"/>
					</linearGradient>
					<circle class="st10" cx="83.8" cy="186.4" r="14.1"/>
					
						<ellipse transform="matrix(0.2298 -0.9732 0.9732 0.2298 -116.7875 224.9986)" class="st11" cx="83.8" cy="186.3" rx="14.1" ry="14.1"/>
					<g>
						<path class="st0" d="M87.9,190.7c-0.7,0.7-1.7,1.2-2.9,1.4v1.1c0,0.3-0.1,0.6-0.3,0.8c-0.2,0.2-0.5,0.3-0.8,0.3
							c-0.3,0-0.6-0.1-0.8-0.3c-0.2-0.2-0.3-0.5-0.3-0.8v-1c-0.7-0.1-1.4-0.2-2.1-0.4c-0.7-0.2-1.3-0.5-1.8-0.9
							c-0.2-0.1-0.4-0.3-0.4-0.4c-0.1-0.2-0.1-0.4-0.1-0.6c0-0.3,0.1-0.6,0.3-0.9c0.2-0.2,0.4-0.4,0.7-0.4c0.2,0,0.6,0.1,0.9,0.3
							c0.6,0.3,1.2,0.6,1.7,0.8c0.5,0.2,1.1,0.2,1.7,0.2c0.8,0,1.4-0.1,1.8-0.4c0.4-0.3,0.6-0.7,0.6-1.2c0-0.3-0.1-0.6-0.4-0.8
							c-0.2-0.2-0.5-0.4-0.9-0.5c-0.4-0.1-0.9-0.3-1.5-0.4c-1-0.2-1.7-0.5-2.4-0.7c-0.6-0.2-1.2-0.6-1.6-1.2
							c-0.4-0.5-0.7-1.2-0.7-2.1c0-1,0.4-2,1.1-2.7c0.7-0.8,1.7-1.2,2.9-1.4v-1.1c0-0.3,0.1-0.6,0.3-0.8c0.2-0.2,0.5-0.3,0.8-0.3
							c0.4,0,0.6,0.1,0.8,0.3c0.2,0.2,0.3,0.5,0.3,0.8v1.1c1.2,0.2,2.3,0.6,3.3,1.3c0.2,0.1,0.3,0.3,0.4,0.4
							c0.1,0.2,0.1,0.4,0.1,0.6c0,0.3-0.1,0.6-0.3,0.9c-0.2,0.2-0.4,0.4-0.7,0.4c-0.1,0-0.3,0-0.4-0.1c-0.1,0-0.3-0.1-0.5-0.3
							c-0.5-0.3-1-0.6-1.4-0.8c-0.4-0.2-0.9-0.3-1.5-0.3c-0.7,0-1.3,0.2-1.7,0.5c-0.4,0.3-0.6,0.7-0.6,1.2c0,0.4,0.1,0.7,0.4,0.9
							c0.2,0.2,0.6,0.4,0.9,0.5c0.4,0.1,0.9,0.3,1.6,0.4c0.9,0.2,1.7,0.5,2.3,0.7c0.6,0.2,1.1,0.6,1.6,1.1c0.4,0.5,0.7,1.2,0.7,2.1
							C89,189.1,88.6,190,87.9,190.7z"/>
					</g>
				</g>
				<g>
					<linearGradient id="SVGID_10_" gradientUnits="userSpaceOnUse" x1="107.2207" y1="221.9789" x2="108.4106" y2="253.5108">
						<stop  offset="1.396690e-02" style="stop-color:#F7D64E"/>
						<stop  offset="1" style="stop-color:#F79448"/>
					</linearGradient>
					<circle class="st12" cx="107.6" cy="231" r="14.7"/>
					<linearGradient id="SVGID_11_" gradientUnits="userSpaceOnUse" x1="107.6974" y1="234.6125" x2="108.4915" y2="255.6565">
						<stop  offset="1.396690e-02" style="stop-color:#F7D64E"/>
						<stop  offset="1" style="stop-color:#F79448"/>
					</linearGradient>
					<circle class="st13" cx="107.6" cy="231" r="9.8"/>
					
						<ellipse transform="matrix(0.1561 -0.9877 0.9877 0.1561 -137.2603 301.0195)" class="st11" cx="107.5" cy="230.8" rx="9.8" ry="9.8"/>
					<g>
						<path class="st0" d="M110.4,233.9c-0.5,0.5-1.2,0.8-2,1v0.8c0,0.2-0.1,0.4-0.2,0.6c-0.1,0.1-0.3,0.2-0.6,0.2
							c-0.2,0-0.4-0.1-0.6-0.2c-0.2-0.1-0.2-0.3-0.2-0.6v-0.7c-0.5,0-1-0.1-1.4-0.3c-0.5-0.2-0.9-0.4-1.2-0.6
							c-0.1-0.1-0.2-0.2-0.3-0.3c-0.1-0.1-0.1-0.3-0.1-0.4c0-0.2,0.1-0.4,0.2-0.6c0.1-0.2,0.3-0.3,0.5-0.3c0.2,0,0.4,0.1,0.6,0.2
							c0.4,0.2,0.8,0.4,1.2,0.5c0.4,0.1,0.8,0.2,1.2,0.2c0.5,0,0.9-0.1,1.2-0.3c0.3-0.2,0.4-0.5,0.4-0.9c0-0.2-0.1-0.4-0.2-0.6
							c-0.2-0.1-0.4-0.3-0.6-0.3c-0.2-0.1-0.6-0.2-1-0.3c-0.7-0.2-1.2-0.3-1.6-0.5c-0.4-0.2-0.8-0.4-1.1-0.8
							c-0.3-0.4-0.5-0.9-0.5-1.5c0-0.7,0.3-1.3,0.8-1.9c0.5-0.5,1.2-0.9,2-1v-0.8c0-0.2,0.1-0.4,0.2-0.6c0.2-0.1,0.3-0.2,0.6-0.2
							c0.2,0,0.4,0.1,0.6,0.2c0.1,0.1,0.2,0.3,0.2,0.6v0.7c0.8,0.1,1.6,0.4,2.3,0.9c0.1,0.1,0.2,0.2,0.3,0.3
							c0.1,0.1,0.1,0.3,0.1,0.4c0,0.2-0.1,0.4-0.2,0.6c-0.1,0.2-0.3,0.3-0.5,0.3c-0.1,0-0.2,0-0.3,0c-0.1,0-0.2-0.1-0.4-0.2
							c-0.4-0.2-0.7-0.4-1-0.5c-0.3-0.1-0.6-0.2-1.1-0.2c-0.5,0-0.9,0.1-1.2,0.3c-0.3,0.2-0.4,0.5-0.4,0.9c0,0.3,0.1,0.5,0.3,0.6
							c0.2,0.2,0.4,0.3,0.6,0.4c0.3,0.1,0.6,0.2,1.1,0.3c0.7,0.2,1.2,0.3,1.6,0.5c0.4,0.2,0.8,0.4,1.1,0.8c0.3,0.4,0.5,0.8,0.5,1.5
							C111.2,232.8,110.9,233.4,110.4,233.9z"/>
					</g>
				</g>
			</g>
		</g>
		<g>
			<g>
				<g>
					<g>
						<linearGradient id="SVGID_12_" gradientUnits="userSpaceOnUse" x1="429.0494" y1="290.8341" x2="148.1577" y2="289.4256">
							<stop  offset="0" style="stop-color:#2A3264"/>
							<stop  offset="1" style="stop-color:#4F61A5"/>
						</linearGradient>
						<polygon class="st14" points="288.3,308.5 198.8,308.5 230.3,271.4 319.8,271.4 						"/>
						<linearGradient id="SVGID_13_" gradientUnits="userSpaceOnUse" x1="429.0494" y1="293.7727" x2="148.1577" y2="292.3642">
							<stop  offset="0" style="stop-color:#2A3264"/>
							<stop  offset="1" style="stop-color:#4F61A5"/>
						</linearGradient>
						<polygon class="st15" points="288.3,311.5 198.8,311.5 230.3,274.4 319.8,274.4 						"/>
						<linearGradient id="SVGID_14_" gradientUnits="userSpaceOnUse" x1="245.6871" y1="248.2774" x2="267.0591" y2="316.1331">
							<stop  offset="1.396650e-02" style="stop-color:#FFBAC0"/>
							<stop  offset="0.8138" style="stop-color:#F75F98"/>
							<stop  offset="1" style="stop-color:#F54A8F"/>
						</linearGradient>
						<polygon class="st16" points="319.8,271.4 319.8,274.4 288.3,311.5 198.8,311.5 198.8,308.5 288.3,308.5 						"/>
						<linearGradient id="SVGID_15_" gradientUnits="userSpaceOnUse" x1="258.0558" y1="293.7998" x2="259.3433" y2="244.7292">
							<stop  offset="0" style="stop-color:#2A3264"/>
							<stop  offset="1" style="stop-color:#4F61A5"/>
						</linearGradient>
						<polygon class="st17" points="242.6,258 239.4,292.9 276.7,292.9 275.5,259.2 						"/>
						<linearGradient id="SVGID_16_" gradientUnits="userSpaceOnUse" x1="252.1425" y1="301.7353" x2="260.8233" y2="250.6715">
							<stop  offset="0" style="stop-color:#2A3264"/>
							<stop  offset="1" style="stop-color:#4F61A5"/>
						</linearGradient>
						<polygon class="st18" points="275,266.9 240.6,279.6 242.6,258 274.6,259.2 						"/>
						<linearGradient id="SVGID_17_" gradientUnits="userSpaceOnUse" x1="273.3763" y1="256.915" x2="284.8657" y2="296.7448">
							<stop  offset="0" style="stop-color:#2A3264"/>
							<stop  offset="1" style="stop-color:#4F61A5"/>
						</linearGradient>
						<polygon class="st19" points="276.7,292.9 283.2,285.6 281.3,260.2 274.6,260.2 						"/>
						<linearGradient id="SVGID_18_" gradientUnits="userSpaceOnUse" x1="211.4956" y1="382.8481" x2="298.8148" y2="104.8055">
							<stop  offset="0" style="stop-color:#2A3264"/>
							<stop  offset="1" style="stop-color:#4F61A5"/>
						</linearGradient>
						<path class="st20" d="M187.3,130.3h186.4c4.5,0,7.8,4,7.1,8.4l-20.3,116c-0.6,3.4-3.6,5.9-7.1,5.9H166.8c-4.5,0-7.8-4-7.1-8.4
							l20.4-116C180.8,132.8,183.8,130.3,187.3,130.3z"/>
						<linearGradient id="SVGID_19_" gradientUnits="userSpaceOnUse" x1="557.2453" y1="196.9551" x2="77.5499" y2="194.5497">
							<stop  offset="5.300000e-07" style="stop-color:#E0F0FF"/>
							<stop  offset="1" style="stop-color:#FFFFFF"/>
						</linearGradient>
						<path class="st21" d="M189.7,134.5H364c4.2,0,7.3,3.8,6.6,7.9l-19,108.5c-0.6,3.2-3.4,5.6-6.6,5.6H170.6
							c-4.2,0-7.3-3.8-6.6-7.9l19.1-108.5C183.7,136.9,186.5,134.5,189.7,134.5z"/>
					</g>
					<g>
						<defs>
							<path id="SVGID_20_" d="M187.3,130.3h186.4c4.5,0,7.8,4,7.1,8.4l-20.3,116c-0.6,3.4-3.6,5.9-7.1,5.9H166.8
								c-4.5,0-7.8-4-7.1-8.4l20.4-116C180.8,132.8,183.8,130.3,187.3,130.3z"/>
						</defs>
						<clipPath id="SVGID_21_">
							<use xlink:href="#SVGID_20_"  style="overflow:visible;"/>
						</clipPath>
						<linearGradient id="SVGID_22_" gradientUnits="userSpaceOnUse" x1="366.424" y1="88.726" x2="369.8282" y2="191.1941">
							<stop  offset="0" style="stop-color:#2A3264"/>
							<stop  offset="1" style="stop-color:#4F61A5"/>
						</linearGradient>
						<path class="st22" d="M369.4,130.3c8,0,6.6,6.4,3.3,21.7c-3.3,15.3-15.8,97.6-18.1,103.1c-2.3,5.5-2.6,5.5-8.2,5.5
							c8.4,8.2,21.7,1.4,21.7,1.4l25.3-136.9L369.4,130.3z"/>
					</g>
				</g>
				<g>
					<g>
						<linearGradient id="SVGID_23_" gradientUnits="userSpaceOnUse" x1="206.6099" y1="236.1498" x2="204.9503" y2="220.0647">
							<stop  offset="0" style="stop-color:#2A3264"/>
							<stop  offset="1" style="stop-color:#4F61A5"/>
						</linearGradient>
						<path class="st23" d="M202.2,209.8c-0.3,0-0.5-0.2-0.5-0.5c0-10.9,0.1-31.6,0-32.5c0-0.3,0.2-0.5,0.5-0.5
							c0.3,0,0.5,0.2,0.5,0.5c0.1,1.2,0,31.4,0,32.6C202.7,209.6,202.4,209.8,202.2,209.8z"/>
					</g>
					<g>
						<linearGradient id="SVGID_24_" gradientUnits="userSpaceOnUse" x1="217.1929" y1="235.0579" x2="215.5333" y2="218.9727">
							<stop  offset="0" style="stop-color:#2A3264"/>
							<stop  offset="1" style="stop-color:#4F61A5"/>
						</linearGradient>
						<path class="st24" d="M213.8,210.9C213.8,210.9,213.8,210.9,213.8,210.9c-0.3,0-0.5-0.2-0.5-0.5c0-6.5,0.1-16.5,0-17.1
							c0-0.3,0.2-0.5,0.4-0.6c0.3,0,0.5,0.1,0.6,0.4c0.1,0.6,0,14.5,0,17.2C214.3,210.7,214,210.9,213.8,210.9z"/>
					</g>
					<g>
						<linearGradient id="SVGID_25_" gradientUnits="userSpaceOnUse" x1="227.0507" y1="234.0409" x2="225.3911" y2="217.9557">
							<stop  offset="0" style="stop-color:#2A3264"/>
							<stop  offset="1" style="stop-color:#4F61A5"/>
						</linearGradient>
						<path class="st25" d="M224,216C224,216,224,216,224,216c-0.3,0-0.5-0.2-0.5-0.5c0-8.7,0.1-21.9,0-22.6c0-0.3,0.2-0.5,0.4-0.6
							c0.3,0,0.5,0.2,0.6,0.4c0.1,0.8,0,20.5,0,22.7C224.5,215.8,224.2,216,224,216z"/>
					</g>
					<g>
						<linearGradient id="SVGID_26_" gradientUnits="userSpaceOnUse" x1="238.3609" y1="232.874" x2="236.7013" y2="216.7888">
							<stop  offset="0" style="stop-color:#2A3264"/>
							<stop  offset="1" style="stop-color:#4F61A5"/>
						</linearGradient>
						<path class="st26" d="M234.8,209.8C234.8,209.8,234.8,209.8,234.8,209.8c-0.3,0-0.5-0.2-0.5-0.5c0-8.7,0.1-21.9,0-22.6
							c0-0.3,0.2-0.5,0.4-0.6c0.3,0,0.5,0.2,0.6,0.4c0.1,0.8,0,20.5,0,22.7C235.3,209.6,235,209.8,234.8,209.8z"/>
					</g>
					<g>
						<linearGradient id="SVGID_27_" gradientUnits="userSpaceOnUse" x1="247.0841" y1="231.9739" x2="245.4245" y2="215.8888">
							<stop  offset="0" style="stop-color:#2A3264"/>
							<stop  offset="1" style="stop-color:#4F61A5"/>
						</linearGradient>
						<path class="st27" d="M245,223.6C245,223.6,245,223.6,245,223.6c-0.3,0-0.5-0.2-0.5-0.5c0-8.7,0.1-21.9,0-22.6
							c0-0.3,0.2-0.5,0.4-0.6c0.3,0,0.5,0.2,0.6,0.4c0.1,0.8,0,20.5,0,22.7C245.5,223.3,245.3,223.6,245,223.6z"/>
					</g>
					<g>
						<linearGradient id="SVGID_28_" gradientUnits="userSpaceOnUse" x1="258.918" y1="230.7529" x2="257.2585" y2="214.6678">
							<stop  offset="0" style="stop-color:#2A3264"/>
							<stop  offset="1" style="stop-color:#4F61A5"/>
						</linearGradient>
						<path class="st28" d="M255.9,216.9C255.9,216.9,255.9,216.9,255.9,216.9c-0.3,0-0.5-0.2-0.5-0.5c0-8,0.1-29,0-29.9
							c0-0.3,0.2-0.5,0.4-0.5c0.3,0,0.5,0.2,0.5,0.4c0.1,1.1,0,28.8,0,30C256.4,216.7,256.2,216.9,255.9,216.9z"/>
					</g>
					<g>
						<linearGradient id="SVGID_29_" gradientUnits="userSpaceOnUse" x1="270.5422" y1="229.5537" x2="268.8827" y2="213.4686">
							<stop  offset="0" style="stop-color:#2A3264"/>
							<stop  offset="1" style="stop-color:#4F61A5"/>
						</linearGradient>
						<path class="st29" d="M267.2,207.2C267.2,207.2,267.1,207.2,267.2,207.2c-0.3,0-0.5-0.2-0.5-0.5c0-7.7,0.1-19.4,0-20
							c0-0.3,0.2-0.5,0.4-0.6c0.3,0,0.5,0.1,0.6,0.4c0.1,0.7,0,18.2,0,20.2C267.6,207,267.4,207.2,267.2,207.2z"/>
					</g>
					<g>
						<linearGradient id="SVGID_30_" gradientUnits="userSpaceOnUse" x1="281.3328" y1="228.4402" x2="279.6733" y2="212.3551">
							<stop  offset="0" style="stop-color:#2A3264"/>
							<stop  offset="1" style="stop-color:#4F61A5"/>
						</linearGradient>
						<path class="st30" d="M278.3,209.5C278.3,209.5,278.3,209.5,278.3,209.5c-0.3,0-0.5-0.2-0.5-0.5c0-7.7,0.1-19.4,0-20
							c0-0.3,0.2-0.5,0.4-0.6c0.3,0,0.5,0.1,0.6,0.4c0.1,0.7,0,18.2,0,20.2C278.8,209.3,278.6,209.5,278.3,209.5z"/>
					</g>
					<g>
						<linearGradient id="SVGID_31_" gradientUnits="userSpaceOnUse" x1="291.9001" y1="227.35" x2="290.2405" y2="211.2649">
							<stop  offset="0" style="stop-color:#2A3264"/>
							<stop  offset="1" style="stop-color:#4F61A5"/>
						</linearGradient>
						<path class="st31" d="M289.4,214C289.4,214,289.4,214,289.4,214c-0.3,0-0.5-0.2-0.5-0.5c0-7.7,0.1-19.4,0-20
							c0-0.3,0.2-0.5,0.4-0.6c0.3,0,0.5,0.1,0.6,0.4c0.1,0.7,0,18.2,0,20.2C289.9,213.8,289.7,214,289.4,214z"/>
					</g>
					<g>
						<linearGradient id="SVGID_32_" gradientUnits="userSpaceOnUse" x1="301.249" y1="226.3855" x2="299.5894" y2="210.3004">
							<stop  offset="0" style="stop-color:#2A3264"/>
							<stop  offset="1" style="stop-color:#4F61A5"/>
						</linearGradient>
						<path class="st32" d="M299.7,221.6C299.7,221.6,299.7,221.6,299.7,221.6c-0.3,0-0.5-0.2-0.5-0.5c0-7.7,0.1-19.4,0-20
							c0-0.3,0.2-0.5,0.4-0.6c0.3,0,0.5,0.1,0.6,0.4c0.1,0.7,0,18.2,0,20.2C300.2,221.4,299.9,221.6,299.7,221.6z"/>
					</g>
					<g>
						<linearGradient id="SVGID_33_" gradientUnits="userSpaceOnUse" x1="311.3057" y1="225.3478" x2="309.6461" y2="209.2627">
							<stop  offset="0" style="stop-color:#2A3264"/>
							<stop  offset="1" style="stop-color:#4F61A5"/>
						</linearGradient>
						<path class="st33" d="M309.9,222.3C309.9,222.3,309.9,222.3,309.9,222.3c-0.3,0-0.5-0.2-0.5-0.5c0-7.7,0.1-19.4,0-20
							c0-0.3,0.2-0.5,0.4-0.6c0.3,0,0.5,0.1,0.6,0.4c0.1,0.7,0,18.2,0,20.2C310.4,222.1,310.2,222.3,309.9,222.3z"/>
					</g>
					<g>
						<linearGradient id="SVGID_34_" gradientUnits="userSpaceOnUse" x1="322.2204" y1="224.2217" x2="320.5609" y2="208.1366">
							<stop  offset="0" style="stop-color:#2A3264"/>
							<stop  offset="1" style="stop-color:#4F61A5"/>
						</linearGradient>
						<path class="st34" d="M320.3,216.5C320.3,216.5,320.3,216.5,320.3,216.5c-0.3,0-0.5-0.2-0.5-0.5c0-7.7,0.1-19.4,0-20
							c0-0.3,0.2-0.5,0.4-0.6c0.3,0,0.5,0.1,0.6,0.4c0.1,0.7,0,18.2,0,20.2C320.8,216.2,320.6,216.5,320.3,216.5z"/>
					</g>
					<g>
						<linearGradient id="SVGID_35_" gradientUnits="userSpaceOnUse" x1="331.9453" y1="223.2183" x2="330.2858" y2="207.1332">
							<stop  offset="0" style="stop-color:#2A3264"/>
							<stop  offset="1" style="stop-color:#4F61A5"/>
						</linearGradient>
						<path class="st35" d="M330.8,222.3C330.8,222.3,330.8,222.3,330.8,222.3c-0.3,0-0.5-0.2-0.5-0.5c0-7.7,0.1-19.4,0-20
							c0-0.3,0.2-0.5,0.4-0.6c0.3,0,0.5,0.1,0.6,0.4c0.1,0.7,0,18.2,0,20.2C331.3,222.1,331,222.3,330.8,222.3z"/>
					</g>
					<g>
						<linearGradient id="SVGID_36_" gradientUnits="userSpaceOnUse" x1="342.8724" y1="222.0909" x2="341.2128" y2="206.0058">
							<stop  offset="0" style="stop-color:#2A3264"/>
							<stop  offset="1" style="stop-color:#4F61A5"/>
						</linearGradient>
						<path class="st36" d="M340.9,213.7C340.9,213.7,340.9,213.7,340.9,213.7c-0.3,0-0.5-0.2-0.5-0.5c0-7.7,0.1-19.4,0-20
							c0-0.3,0.2-0.5,0.4-0.6c0.3,0,0.5,0.1,0.6,0.4c0.1,0.7,0,18.2,0,20.2C341.4,213.5,341.2,213.7,340.9,213.7z"/>
					</g>
					<path class="st37" d="M203.1,203.5h-1.9c-1.4,0-2.5-1.1-2.5-2.5v-15.7c0-1.4,1.1-2.5,2.5-2.5h1.9c1.4,0,2.5,1.1,2.5,2.5V201
						C205.6,202.4,204.5,203.5,203.1,203.5z"/>
					<path class="st38" d="M214.7,206.7h-1.9c-1.4,0-2.5-1.1-2.5-2.5l0,0c0-1.4,1.1-2.5,2.5-2.5h1.9c1.4,0,2.5,1.1,2.5,2.5l0,0
						C217.2,205.6,216.1,206.7,214.7,206.7z"/>
					<path class="st37" d="M225,211.1H223c-1.4,0-2.5-1.1-2.5-2.5v-9.2c0-1.4,1.1-2.5,2.5-2.5h1.9c1.4,0,2.5,1.1,2.5,2.5v9.2
						C227.4,210,226.3,211.1,225,211.1z"/>
					<path class="st37" d="M235.7,203.5h-1.9c-1.4,0-2.5-1.1-2.5-2.5v-4c0-1.4,1.1-2.5,2.5-2.5h1.9c1.4,0,2.5,1.1,2.5,2.5v4
						C238.2,202.4,237.1,203.5,235.7,203.5z"/>
					<path class="st38" d="M246,217.3h-1.9c-1.4,0-2.5-1.1-2.5-2.5v-7.5c0-1.4,1.1-2.5,2.5-2.5h1.9c1.4,0,2.5,1.1,2.5,2.5v7.5
						C248.5,216.2,247.4,217.3,246,217.3z"/>
					<path class="st37" d="M256.9,213.8H255c-1.4,0-2.5-1.1-2.5-2.5v-15.7c0-1.4,1.1-2.5,2.5-2.5h1.9c1.4,0,2.5,1.1,2.5,2.5v15.7
						C259.4,212.7,258.3,213.8,256.9,213.8z"/>
					<path class="st38" d="M268.1,203.9h-1.9c-1.4,0-2.5-1.1-2.5-2.5l0,0c0-1.4,1.1-2.5,2.5-2.5h1.9c1.4,0,2.5,1.1,2.5,2.5l0,0
						C270.6,202.8,269.5,203.9,268.1,203.9z"/>
					<path class="st37" d="M278.8,203.5h-1.9c-1.4,0-2.5-1.1-2.5-2.5v-15.7c0-1.4,1.1-2.5,2.5-2.5h1.9c1.4,0,2.5,1.1,2.5,2.5V201
						C281.3,202.4,280.2,203.5,278.8,203.5z"/>
					<path class="st38" d="M290.4,211.1h-1.9c-1.4,0-2.5-1.1-2.5-2.5v-5.4c0-1.4,1.1-2.5,2.5-2.5h1.9c1.4,0,2.5,1.1,2.5,2.5v5.4
						C292.9,210,291.8,211.1,290.4,211.1z"/>
					<path class="st38" d="M300.9,219.1H299c-1.4,0-2.5-1.1-2.5-2.5v-5.4c0-1.4,1.1-2.5,2.5-2.5h1.9c1.4,0,2.5,1.1,2.5,2.5v5.4
						C303.4,218,302.3,219.1,300.9,219.1z"/>
					<path class="st37" d="M310.9,211.7H309c-1.4,0-2.5-1.1-2.5-2.5v-1.9c0-1.4,1.1-2.5,2.5-2.5h1.9c1.4,0,2.5,1.1,2.5,2.5v1.9
						C313.4,210.6,312.3,211.7,310.9,211.7z"/>
					<path class="st37" d="M321.6,209.3h-1.9c-1.4,0-2.5-1.1-2.5-2.5v-15.7c0-1.4,1.1-2.5,2.5-2.5h1.9c1.4,0,2.5,1.1,2.5,2.5v15.7
						C324.1,208.2,323,209.3,321.6,209.3z"/>
					<path class="st38" d="M331.8,217.1h-1.9c-1.4,0-2.5-1.1-2.5-2.5v-15.7c0-1.4,1.1-2.5,2.5-2.5h1.9c1.4,0,2.5,1.1,2.5,2.5v15.7
						C334.2,216,333.1,217.1,331.8,217.1z"/>
					<path class="st37" d="M341.9,204.8H340c-1.4,0-2.5-1.1-2.5-2.5v-15.7c0-1.4,1.1-2.5,2.5-2.5h1.9c1.4,0,2.5,1.1,2.5,2.5v15.7
						C344.4,203.7,343.3,204.8,341.9,204.8z"/>
				</g>
				<linearGradient id="SVGID_37_" gradientUnits="userSpaceOnUse" x1="258.1599" y1="233.125" x2="258.5855" y2="255.7637">
					<stop  offset="5.300000e-07" style="stop-color:#E0F0FF"/>
					<stop  offset="1" style="stop-color:#D1DBF6"/>
				</linearGradient>
				<path class="st39" d="M311.8,236H204.6c-0.7,0-1.3-0.6-1.3-1.3l0,0c0-0.7,0.6-1.3,1.3-1.3h107.2c0.8,0,1.4,0.8,1.2,1.6l0,0
					C312.9,235.6,312.4,236,311.8,236z"/>
				<linearGradient id="SVGID_38_" gradientUnits="userSpaceOnUse" x1="258.038" y1="233.1273" x2="258.4635" y2="255.766">
					<stop  offset="5.300000e-07" style="stop-color:#E0F0FF"/>
					<stop  offset="1" style="stop-color:#D1DBF6"/>
				</linearGradient>
				<path class="st40" d="M311.8,242.5H204.6c-0.7,0-1.3-0.6-1.3-1.3l0,0c0-0.7,0.6-1.3,1.3-1.3h107.2c0.8,0,1.4,0.8,1.2,1.6l0,0
					C312.9,242.1,312.4,242.5,311.8,242.5z"/>
				<g>
					<g>
						<linearGradient id="SVGID_39_" gradientUnits="userSpaceOnUse" x1="315.1476" y1="164.4435" x2="334.2326" y2="164.4435">
							<stop  offset="5.300000e-07" style="stop-color:#E0F0FF"/>
							<stop  offset="1" style="stop-color:#D1DBF6"/>
						</linearGradient>
						<path class="st41" d="M324.7,174c-5.3,0-9.5-4.3-9.5-9.5c0-5.3,4.3-9.5,9.5-9.5s9.5,4.3,9.5,9.5
							C334.2,169.7,330,174,324.7,174z M324.7,157.9c-3.6,0-6.5,2.9-6.5,6.5c0,3.6,2.9,6.5,6.5,6.5s6.5-2.9,6.5-6.5
							C331.2,160.8,328.3,157.9,324.7,157.9z"/>
					</g>
					<g>
						<defs>
							<path id="SVGID_40_" d="M324.7,174c-5.3,0-9.5-4.3-9.5-9.5c0-5.3,4.3-9.5,9.5-9.5s9.5,4.3,9.5,9.5
								C334.2,169.7,330,174,324.7,174z M324.7,157.9c-3.6,0-6.5,2.9-6.5,6.5c0,3.6,2.9,6.5,6.5,6.5s6.5-2.9,6.5-6.5
								C331.2,160.8,328.3,157.9,324.7,157.9z"/>
						</defs>
						<clipPath id="SVGID_41_">
							<use xlink:href="#SVGID_40_"  style="overflow:visible;"/>
						</clipPath>
						<path class="st42" d="M313.1,161.6l8.9,4.2l2.7-1.4V152C324.7,152,316.3,149.1,313.1,161.6z"/>
					</g>
				</g>
				<g>
					<circle class="st43" cx="355.8" cy="145.3" r="1.6"/>
					<path class="st44" d="M350.4,145.3c0,0.9-0.7,1.6-1.6,1.6c-0.9,0-1.6-0.7-1.6-1.6s0.7-1.6,1.6-1.6
						C349.7,143.7,350.4,144.4,350.4,145.3z"/>
					<path class="st45" d="M343.5,145.3c0,0.9-0.7,1.6-1.6,1.6c-0.9,0-1.6-0.7-1.6-1.6s0.7-1.6,1.6-1.6
						C342.8,143.7,343.5,144.4,343.5,145.3z"/>
				</g>
				<g>
					<linearGradient id="SVGID_42_" gradientUnits="userSpaceOnUse" x1="219.2503" y1="160.5214" x2="292.6326" y2="160.5214">
						<stop  offset="5.300000e-07" style="stop-color:#E0F0FF"/>
						<stop  offset="1" style="stop-color:#D1DBF6"/>
					</linearGradient>
					<path class="st46" d="M291.2,159.6l1.4-8.1c0-0.3-0.1-0.5-0.4-0.6c-0.3,0-0.5,0.1-0.6,0.4l-1.5,8.5c-7.5,3.9-29.7,3.6-43.2,0.5
						c-12.1-2.8-23.6,2-25.9,3.1l1.5-10.9c0-0.3-0.2-0.5-0.4-0.6c-0.3,0-0.5,0.2-0.6,0.4l-2.3,17.2c0,0.3,0.2,0.5,0.4,0.6
						c0,0,0,0,0.1,0c0.2,0,0.5-0.2,0.5-0.4l0.7-5.2c0.1,0,0.1,0,0.2,0c0.1-0.1,12.5-6.2,25.6-3.2c13.4,3,34.8,3.5,43.2-0.3l-1.5,8.6
						c0,0.3,0.1,0.5,0.4,0.6c0,0,0.1,0,0.1,0c0.2,0,0.4-0.2,0.5-0.4l1.6-9.3c0,0,0.1,0,0.1-0.1c0.2-0.1,0.3-0.4,0.2-0.7
						C291.3,159.6,291.3,159.6,291.2,159.6z"/>
					<linearGradient id="SVGID_43_" gradientUnits="userSpaceOnUse" x1="219.9097" y1="160.4629" x2="291.9038" y2="160.4629">
						<stop  offset="1.396650e-02" style="stop-color:#FFBAC0"/>
						<stop  offset="0.8138" style="stop-color:#F75F98"/>
						<stop  offset="1" style="stop-color:#F54A8F"/>
					</linearGradient>
					<path class="st47" d="M220.9,162.5c0,0,12.5-6.3,26-3.2c13.5,3.1,36.6,3.6,44-0.8"/>
				</g>
			</g>
			<g>
				<g>
					<path class="st0" d="M352.8,309.7c11.5,8.6,13.8,26.8-3.8,29.4c-17.6,2.6-25.8-6.1-24.3-17.1
						C326.3,311,341.6,301.3,352.8,309.7z"/>
					<path class="st48" d="M367.6,274.4c-21.6-0.9-30.1,1.8-25.2,12.5c4.9,10.7-4.4,20.6-4.4,20.6"/>
				</g>
				<g>
					<linearGradient id="SVGID_44_" gradientUnits="userSpaceOnUse" x1="390.2037" y1="475.5893" x2="388.6716" y2="187.5888">
						<stop  offset="0" style="stop-color:#2A3264"/>
						<stop  offset="1" style="stop-color:#4F61A5"/>
					</linearGradient>
					<path class="st49" d="M420.5,172.7H363c-3.1,0-5.6,2.5-5.6,5.6l-0.1,129.5c0,3.1,2.5,5.6,5.6,5.6h57.6V172.7L420.5,172.7z"/>
					<linearGradient id="SVGID_45_" gradientUnits="userSpaceOnUse" x1="376.299" y1="256.0814" x2="457.7805" y2="231.9386">
						<stop  offset="0" style="stop-color:#2A3264"/>
						<stop  offset="1" style="stop-color:#4F61A5"/>
					</linearGradient>
					<path class="st50" d="M420.5,172.7H444c2.3,0,4.1,1.8,4.1,4.1v101.6c0,1-0.4,2-1,2.8l-26.6,32.1V172.7z"/>
					<g>
						<defs>
							<path id="SVGID_46_" d="M420.5,172.7H363c-3.1,0-5.6,2.5-5.6,5.6l-0.1,129.5c0,3.1,2.5,5.6,5.6,5.6h57.6V172.7"/>
						</defs>
						<clipPath id="SVGID_47_">
							<use xlink:href="#SVGID_46_"  style="overflow:visible;"/>
						</clipPath>
						<g class="st51">
							<line class="st52" x1="364" y1="193.1" x2="413.5" y2="193.1"/>
							<line class="st52" x1="364" y1="200" x2="413.5" y2="200"/>
							<line class="st53" x1="353.5" y1="255.4" x2="424" y2="255.4"/>
							<path class="st0" d="M392.9,237c0,3.3-2.7,6-6,6c-3.3,0-6-2.7-6-6c0-3.3,2.7-6,6-6C390.3,231.1,392.9,233.7,392.9,237z"/>
							<linearGradient id="SVGID_48_" gradientUnits="userSpaceOnUse" x1="385.5975" y1="227.3913" x2="389.5045" y2="254.3678">
								<stop  offset="1.396650e-02" style="stop-color:#FFBAC0"/>
								<stop  offset="0.8138" style="stop-color:#F75F98"/>
								<stop  offset="1" style="stop-color:#F54A8F"/>
							</linearGradient>
							<path class="st54" d="M391.5,237c0,2.5-2,4.5-4.5,4.5s-4.5-2-4.5-4.5s2-4.5,4.5-4.5S391.5,234.5,391.5,237z"/>
							<rect x="364" y="302.4" class="st0" width="21.2" height="1.8"/>
						</g>
					</g>
					<path class="st55" d="M426.1,192.4v19.8c0,1.5,1.6,2.5,2.9,1.7l5.4-3.1c0.6-0.3,1-1,1-1.7v-17.7c0-1.3-1.2-2.2-2.4-1.9
						l-4.5,0.4C427.2,190,426.1,191.1,426.1,192.4z"/>
					<g>
						<defs>
							<path id="SVGID_49_" d="M423.2,172.7h6.1c10.4,0,18.8,8.4,18.8,18.8v81.7c0,4.4-1.5,8.6-4.3,12l-23.2,28.1v-138
								C420.5,173.9,421.7,172.7,423.2,172.7z"/>
						</defs>
						<clipPath id="SVGID_50_">
							<use xlink:href="#SVGID_49_"  style="overflow:visible;"/>
						</clipPath>
						<g class="st56">
							<g>
								<path class="st57" d="M420,240.3c-0.7,0.6-1.7,0.6-2.3,0c-0.6-0.7-0.6-1.7,0-2.3c0.7-0.6,1.7-0.6,2.3,0
									C420.7,238.6,420.7,239.7,420,240.3z"/>
								<path class="st57" d="M426.7,247.3c-0.7,0.6-1.7,0.6-2.3,0c-0.6-0.7-0.6-1.7,0-2.3c0.7-0.6,1.7-0.6,2.3,0
									C427.4,245.6,427.4,246.6,426.7,247.3z"/>
								<path class="st57" d="M433.5,254.2c-0.7,0.6-1.7,0.6-2.3,0c-0.6-0.7-0.6-1.7,0-2.3c0.7-0.6,1.7-0.6,2.3,0
									C434.1,252.5,434.1,253.6,433.5,254.2z"/>
								<path class="st57" d="M440.2,261.2c-0.7,0.6-1.7,0.6-2.3,0c-0.6-0.7-0.6-1.7,0-2.3c0.7-0.6,1.7-0.6,2.3,0
									C440.8,259.5,440.8,260.6,440.2,261.2z"/>
								<path class="st57" d="M446.9,268.2c-0.7,0.6-1.7,0.6-2.3,0c-0.6-0.7-0.6-1.7,0-2.3c0.7-0.6,1.7-0.6,2.3,0
									C447.6,266.5,447.5,267.5,446.9,268.2z"/>
								<path class="st57" d="M453.6,275.1c-0.7,0.6-1.7,0.6-2.3,0c-0.6-0.7-0.6-1.7,0-2.3c0.7-0.6,1.7-0.6,2.3,0
									C454.3,273.4,454.3,274.5,453.6,275.1z"/>
								<path class="st57" d="M460.3,282.1c-0.7,0.6-1.7,0.6-2.3,0c-0.6-0.7-0.6-1.7,0-2.3c0.7-0.6,1.7-0.6,2.3,0
									C461,280.4,461,281.5,460.3,282.1z"/>
								<path class="st57" d="M467,289.1c-0.7,0.6-1.7,0.6-2.3,0c-0.6-0.7-0.6-1.7,0-2.3c0.7-0.6,1.7-0.6,2.3,0
									C467.7,287.4,467.7,288.4,467,289.1z"/>
							</g>
							<g>
								<path class="st57" d="M413.8,246.3c-0.7,0.6-1.7,0.6-2.3,0c-0.6-0.7-0.6-1.7,0-2.3c0.7-0.6,1.7-0.6,2.3,0
									C414.5,244.6,414.5,245.6,413.8,246.3z"/>
								<path class="st57" d="M420.5,253.2c-0.7,0.6-1.7,0.6-2.3,0c-0.6-0.7-0.6-1.7,0-2.3c0.7-0.6,1.7-0.6,2.3,0
									C421.2,251.6,421.2,252.6,420.5,253.2z"/>
								<path class="st57" d="M427.2,260.2c-0.7,0.6-1.7,0.6-2.3,0c-0.6-0.7-0.6-1.7,0-2.3c0.7-0.6,1.7-0.6,2.3,0
									C427.9,258.5,427.9,259.6,427.2,260.2z"/>
								<path class="st57" d="M434,267.2c-0.7,0.6-1.7,0.6-2.3,0c-0.6-0.7-0.6-1.7,0-2.3c0.7-0.6,1.7-0.6,2.3,0
									C434.6,265.5,434.6,266.6,434,267.2z"/>
								<path class="st57" d="M440.7,274.2c-0.7,0.6-1.7,0.6-2.3,0c-0.6-0.7-0.6-1.7,0-2.3c0.7-0.6,1.7-0.6,2.3,0
									C441.4,272.5,441.3,273.5,440.7,274.2z"/>
								<path class="st57" d="M447.4,281.1c-0.7,0.6-1.7,0.6-2.3,0c-0.6-0.7-0.6-1.7,0-2.3c0.7-0.6,1.7-0.6,2.3,0
									C448.1,279.4,448,280.5,447.4,281.1z"/>
								<path class="st57" d="M454.1,288.1c-0.7,0.6-1.7,0.6-2.3,0c-0.6-0.7-0.6-1.7,0-2.3c0.7-0.6,1.7-0.6,2.3,0
									C454.8,286.4,454.8,287.5,454.1,288.1z"/>
								<path class="st57" d="M460.8,295.1c-0.7,0.6-1.7,0.6-2.3,0c-0.6-0.7-0.6-1.7,0-2.3c0.7-0.6,1.7-0.6,2.3,0
									C461.5,293.4,461.5,294.4,460.8,295.1z"/>
							</g>
							<g>
								<path class="st57" d="M407.6,252.3c-0.7,0.6-1.7,0.6-2.3,0c-0.6-0.7-0.6-1.7,0-2.3c0.7-0.6,1.7-0.6,2.3,0
									C408.3,250.6,408.2,251.6,407.6,252.3z"/>
								<path class="st57" d="M414.3,259.2c-0.7,0.6-1.7,0.6-2.3,0c-0.6-0.7-0.6-1.7,0-2.3c0.7-0.6,1.7-0.6,2.3,0
									C415,257.6,415,258.6,414.3,259.2z"/>
								<path class="st57" d="M421,266.2c-0.7,0.6-1.7,0.6-2.3,0c-0.6-0.7-0.6-1.7,0-2.3c0.7-0.6,1.7-0.6,2.3,0
									C421.7,264.5,421.7,265.6,421,266.2z"/>
								<path class="st57" d="M427.7,273.2c-0.7,0.6-1.7,0.6-2.3,0c-0.6-0.7-0.6-1.7,0-2.3c0.7-0.6,1.7-0.6,2.3,0
									C428.4,271.5,428.4,272.5,427.7,273.2z"/>
								<path class="st57" d="M434.5,280.1c-0.7,0.6-1.7,0.6-2.3,0c-0.6-0.7-0.6-1.7,0-2.3c0.7-0.6,1.7-0.6,2.3,0
									C435.1,278.5,435.1,279.5,434.5,280.1z"/>
								<path class="st57" d="M441.2,287.1c-0.7,0.6-1.7,0.6-2.3,0c-0.6-0.7-0.6-1.7,0-2.3c0.7-0.6,1.7-0.6,2.3,0
									C441.9,285.4,441.8,286.5,441.2,287.1z"/>
								<path class="st57" d="M447.9,294.1c-0.7,0.6-1.7,0.6-2.3,0c-0.6-0.7-0.6-1.7,0-2.3c0.7-0.6,1.7-0.6,2.3,0
									S448.6,293.4,447.9,294.1z"/>
								<path class="st57" d="M454.6,301.1c-0.7,0.6-1.7,0.6-2.3,0c-0.6-0.7-0.6-1.7,0-2.3c0.7-0.6,1.7-0.6,2.3,0
									C455.3,299.4,455.3,300.4,454.6,301.1z"/>
							</g>
							<g>
								<path class="st57" d="M401.4,258.3c-0.7,0.6-1.7,0.6-2.3,0c-0.6-0.7-0.6-1.7,0-2.3c0.7-0.6,1.7-0.6,2.3,0
									C402.1,256.6,402,257.6,401.4,258.3z"/>
								<path class="st57" d="M408.1,265.2c-0.7,0.6-1.7,0.6-2.3,0c-0.6-0.7-0.6-1.7,0-2.3c0.7-0.6,1.7-0.6,2.3,0
									C408.8,263.5,408.7,264.6,408.1,265.2z"/>
								<path class="st57" d="M414.8,272.2c-0.7,0.6-1.7,0.6-2.3,0c-0.6-0.7-0.6-1.7,0-2.3c0.7-0.6,1.7-0.6,2.3,0
									C415.5,270.5,415.5,271.6,414.8,272.2z"/>
								<path class="st57" d="M421.5,279.2c-0.7,0.6-1.7,0.6-2.3,0c-0.6-0.7-0.6-1.7,0-2.3c0.7-0.6,1.7-0.6,2.3,0
									C422.2,277.5,422.2,278.5,421.5,279.2z"/>
								<path class="st57" d="M428.2,286.1c-0.7,0.6-1.7,0.6-2.3,0c-0.6-0.7-0.6-1.7,0-2.3c0.7-0.6,1.7-0.6,2.3,0
									C428.9,284.5,428.9,285.5,428.2,286.1z"/>
								<path class="st57" d="M435,293.1c-0.7,0.6-1.7,0.6-2.3,0c-0.6-0.7-0.6-1.7,0-2.3c0.7-0.6,1.7-0.6,2.3,0
									C435.6,291.4,435.6,292.5,435,293.1z"/>
								<path class="st57" d="M441.7,300.1c-0.7,0.6-1.7,0.6-2.3,0c-0.6-0.7-0.6-1.7,0-2.3c0.7-0.6,1.7-0.6,2.3,0
									C442.4,298.4,442.3,299.4,441.7,300.1z"/>
								<path class="st57" d="M448.4,307c-0.7,0.6-1.7,0.6-2.3,0c-0.6-0.7-0.6-1.7,0-2.3c0.7-0.6,1.7-0.6,2.3,0
									C449.1,305.4,449.1,306.4,448.4,307z"/>
							</g>
							<g>
								<path class="st57" d="M395.2,264.3c-0.7,0.6-1.7,0.6-2.3,0c-0.6-0.7-0.6-1.7,0-2.3c0.7-0.6,1.7-0.6,2.3,0
									C395.8,262.6,395.8,263.6,395.2,264.3z"/>
								<path class="st57" d="M401.9,271.2c-0.7,0.6-1.7,0.6-2.3,0c-0.6-0.7-0.6-1.7,0-2.3c0.7-0.6,1.7-0.6,2.3,0
									C402.6,269.5,402.5,270.6,401.9,271.2z"/>
								<path class="st57" d="M408.6,278.2c-0.7,0.6-1.7,0.6-2.3,0c-0.6-0.7-0.6-1.7,0-2.3c0.7-0.6,1.7-0.6,2.3,0
									C409.3,276.5,409.3,277.6,408.6,278.2z"/>
								<path class="st57" d="M415.3,285.2c-0.7,0.6-1.7,0.6-2.3,0c-0.6-0.7-0.6-1.7,0-2.3c0.7-0.6,1.7-0.6,2.3,0
									C416,283.5,416,284.5,415.3,285.2z"/>
								<path class="st57" d="M422,292.1c-0.7,0.6-1.7,0.6-2.3,0c-0.6-0.7-0.6-1.7,0-2.3c0.7-0.6,1.7-0.6,2.3,0
									C422.7,290.4,422.7,291.5,422,292.1z"/>
								<path class="st57" d="M428.7,299.1c-0.7,0.6-1.7,0.6-2.3,0c-0.6-0.7-0.6-1.7,0-2.3c0.7-0.6,1.7-0.6,2.3,0
									C429.4,297.4,429.4,298.5,428.7,299.1z"/>
								<path class="st57" d="M435.5,306.1c-0.7,0.6-1.7,0.6-2.3,0c-0.6-0.7-0.6-1.7,0-2.3c0.7-0.6,1.7-0.6,2.3,0
									C436.1,304.4,436.1,305.4,435.5,306.1z"/>
								<path class="st57" d="M442.2,313c-0.7,0.6-1.7,0.6-2.3,0c-0.6-0.7-0.6-1.7,0-2.3c0.7-0.6,1.7-0.6,2.3,0
									C442.9,311.3,442.8,312.4,442.2,313z"/>
							</g>
						</g>
					</g>
				</g>
			</g>
			<g>
				<linearGradient id="SVGID_51_" gradientUnits="userSpaceOnUse" x1="235.9967" y1="327.4017" x2="267.9115" y2="275.572">
					<stop  offset="0" style="stop-color:#2A3264"/>
					<stop  offset="1" style="stop-color:#4F61A5"/>
				</linearGradient>
				<path class="st58" d="M280.7,341.5h-76.4c-5.2,0-9.4-4.2-9.4-9.4v-30.5c0-5.2,4.2-9.4,9.4-9.4h86.9c6.5,0,11,6.4,8.9,12.5
					l-10.5,30.5C288.3,339,284.7,341.5,280.7,341.5z"/>
				<linearGradient id="SVGID_52_" gradientUnits="userSpaceOnUse" x1="248.0724" y1="290.4478" x2="247.0512" y2="334.8733">
					<stop  offset="0" style="stop-color:#2A3264"/>
					<stop  offset="1" style="stop-color:#4F61A5"/>
				</linearGradient>
				<path class="st59" d="M275.4,337.6h-64.2c-4.4,0-7.9-3.5-7.9-7.9V304c0-4.4,3.5-7.9,7.9-7.9h73c5.4,0,9.3,5.4,7.5,10.5
					l-8.8,25.6C281.8,335.4,278.8,337.6,275.4,337.6z"/>
				<g>
					<g>
						<linearGradient id="SVGID_53_" gradientUnits="userSpaceOnUse" x1="189.38" y1="280.3609" x2="336.7268" y2="368.1736">
							<stop  offset="1.396650e-02" style="stop-color:#FFBAC0"/>
							<stop  offset="0.8138" style="stop-color:#F75F98"/>
							<stop  offset="1" style="stop-color:#F54A8F"/>
						</linearGradient>
						<path class="st60" d="M225.7,299.7h4c1,0,1.8,1,1.5,1.9l-0.8,3.3c-0.2,0.7-0.8,1.2-1.5,1.2h-4.1c-1,0-1.8-1-1.5-2l0.9-3.3
							C224.4,300.2,225,299.7,225.7,299.7z"/>
						<linearGradient id="SVGID_54_" gradientUnits="userSpaceOnUse" x1="191.8665" y1="276.1876" x2="339.215" y2="364.0012">
							<stop  offset="1.396650e-02" style="stop-color:#FFBAC0"/>
							<stop  offset="0.8138" style="stop-color:#F75F98"/>
							<stop  offset="1" style="stop-color:#F54A8F"/>
						</linearGradient>
						<path class="st61" d="M235.2,299.7h4c1,0,1.8,1,1.5,1.9l-0.8,3.3c-0.2,0.7-0.8,1.2-1.5,1.2h-4.1c-1,0-1.8-1-1.5-2l0.9-3.3
							C233.9,300.2,234.5,299.7,235.2,299.7z"/>
						<linearGradient id="SVGID_55_" gradientUnits="userSpaceOnUse" x1="194.354" y1="272.0147" x2="341.7011" y2="359.8275">
							<stop  offset="1.396650e-02" style="stop-color:#FFBAC0"/>
							<stop  offset="0.8138" style="stop-color:#F75F98"/>
							<stop  offset="1" style="stop-color:#F54A8F"/>
						</linearGradient>
						<path class="st62" d="M244.7,299.7h4c1,0,1.8,1,1.5,1.9l-0.8,3.3c-0.2,0.7-0.8,1.2-1.5,1.2h-4.1c-1,0-1.8-1-1.5-2l0.9-3.3
							C243.4,300.2,244,299.7,244.7,299.7z"/>
						<linearGradient id="SVGID_56_" gradientUnits="userSpaceOnUse" x1="196.8406" y1="267.8413" x2="344.1889" y2="355.6548">
							<stop  offset="1.396650e-02" style="stop-color:#FFBAC0"/>
							<stop  offset="0.8138" style="stop-color:#F75F98"/>
							<stop  offset="1" style="stop-color:#F54A8F"/>
						</linearGradient>
						<path class="st63" d="M254.2,299.7h4c1,0,1.8,1,1.5,1.9l-0.8,3.3c-0.2,0.7-0.8,1.2-1.5,1.2h-4.1c-1,0-1.8-1-1.5-2l0.9-3.3
							C252.9,300.2,253.5,299.7,254.2,299.7z"/>
						<linearGradient id="SVGID_57_" gradientUnits="userSpaceOnUse" x1="199.3275" y1="263.6682" x2="346.6761" y2="351.4818">
							<stop  offset="1.396650e-02" style="stop-color:#FFBAC0"/>
							<stop  offset="0.8138" style="stop-color:#F75F98"/>
							<stop  offset="1" style="stop-color:#F54A8F"/>
						</linearGradient>
						<path class="st64" d="M263.7,299.7h4c1,0,1.8,1,1.5,1.9l-0.8,3.3c-0.2,0.7-0.8,1.2-1.5,1.2h-4.1c-1,0-1.8-1-1.5-2l0.9-3.3
							C262.4,300.2,263,299.7,263.7,299.7z"/>
						<linearGradient id="SVGID_58_" gradientUnits="userSpaceOnUse" x1="201.8156" y1="259.4957" x2="349.1624" y2="347.3083">
							<stop  offset="1.396650e-02" style="stop-color:#FFBAC0"/>
							<stop  offset="0.8138" style="stop-color:#F75F98"/>
							<stop  offset="1" style="stop-color:#F54A8F"/>
						</linearGradient>
						<path class="st65" d="M273.2,299.7h4c1,0,1.8,1,1.5,1.9l-0.8,3.3c-0.2,0.7-0.8,1.2-1.5,1.2h-4.1c-1,0-1.8-1-1.5-2l0.9-3.3
							C271.8,300.2,272.5,299.7,273.2,299.7z"/>
					</g>
					<g>
						<linearGradient id="SVGID_59_" gradientUnits="userSpaceOnUse" x1="185.0986" y1="287.5435" x2="332.4476" y2="375.3574">
							<stop  offset="1.396650e-02" style="stop-color:#FFBAC0"/>
							<stop  offset="0.8138" style="stop-color:#F75F98"/>
							<stop  offset="1" style="stop-color:#F54A8F"/>
						</linearGradient>
						<path class="st66" d="M223.7,308.3h4c1,0,1.8,1,1.5,1.9l-0.8,3.3c-0.2,0.7-0.8,1.2-1.5,1.2h-4.1c-1,0-1.8-1-1.5-2l0.9-3.3
							C222.4,308.8,223,308.3,223.7,308.3z"/>
						<linearGradient id="SVGID_60_" gradientUnits="userSpaceOnUse" x1="187.5857" y1="283.3704" x2="334.9346" y2="371.1843">
							<stop  offset="1.396650e-02" style="stop-color:#FFBAC0"/>
							<stop  offset="0.8138" style="stop-color:#F75F98"/>
							<stop  offset="1" style="stop-color:#F54A8F"/>
						</linearGradient>
						<path class="st67" d="M233.2,308.3h4c1,0,1.8,1,1.5,1.9l-0.8,3.3c-0.2,0.7-0.8,1.2-1.5,1.2h-4.1c-1,0-1.8-1-1.5-2l0.9-3.3
							C231.9,308.8,232.5,308.3,233.2,308.3z"/>
						<linearGradient id="SVGID_61_" gradientUnits="userSpaceOnUse" x1="190.0729" y1="279.1974" x2="337.421" y2="367.0108">
							<stop  offset="1.396650e-02" style="stop-color:#FFBAC0"/>
							<stop  offset="0.8138" style="stop-color:#F75F98"/>
							<stop  offset="1" style="stop-color:#F54A8F"/>
						</linearGradient>
						<path class="st68" d="M242.7,308.3h4c1,0,1.8,1,1.5,1.9l-0.8,3.3c-0.2,0.7-0.8,1.2-1.5,1.2h-4.1c-1,0-1.8-1-1.5-2l0.9-3.3
							C241.4,308.8,242,308.3,242.7,308.3z"/>
						<linearGradient id="SVGID_62_" gradientUnits="userSpaceOnUse" x1="192.5596" y1="275.0241" x2="339.9085" y2="362.838">
							<stop  offset="1.396650e-02" style="stop-color:#FFBAC0"/>
							<stop  offset="0.8138" style="stop-color:#F75F98"/>
							<stop  offset="1" style="stop-color:#F54A8F"/>
						</linearGradient>
						<path class="st69" d="M252.2,308.3h4c1,0,1.8,1,1.5,1.9l-0.8,3.3c-0.2,0.7-0.8,1.2-1.5,1.2h-4.1c-1,0-1.8-1-1.5-2l0.9-3.3
							C250.9,308.8,251.5,308.3,252.2,308.3z"/>
						<linearGradient id="SVGID_63_" gradientUnits="userSpaceOnUse" x1="195.0472" y1="270.8513" x2="342.3947" y2="358.6644">
							<stop  offset="1.396650e-02" style="stop-color:#FFBAC0"/>
							<stop  offset="0.8138" style="stop-color:#F75F98"/>
							<stop  offset="1" style="stop-color:#F54A8F"/>
						</linearGradient>
						<path class="st70" d="M261.7,308.3h4c1,0,1.8,1,1.5,1.9l-0.8,3.3c-0.2,0.7-0.8,1.2-1.5,1.2h-4.1c-1,0-1.8-1-1.5-2l0.9-3.3
							C260.4,308.8,261,308.3,261.7,308.3z"/>
						<linearGradient id="SVGID_64_" gradientUnits="userSpaceOnUse" x1="197.5338" y1="266.678" x2="344.8826" y2="354.4918">
							<stop  offset="1.396650e-02" style="stop-color:#FFBAC0"/>
							<stop  offset="0.8138" style="stop-color:#F75F98"/>
							<stop  offset="1" style="stop-color:#F54A8F"/>
						</linearGradient>
						<path class="st71" d="M271.2,308.3h4c1,0,1.8,1,1.5,1.9l-0.8,3.3c-0.2,0.7-0.8,1.2-1.5,1.2h-4.1c-1,0-1.8-1-1.5-2l0.9-3.3
							C269.9,308.8,270.5,308.3,271.2,308.3z"/>
					</g>
					<g>
						<linearGradient id="SVGID_65_" gradientUnits="userSpaceOnUse" x1="180.8179" y1="294.7264" x2="328.167" y2="382.5404">
							<stop  offset="1.396650e-02" style="stop-color:#FFBAC0"/>
							<stop  offset="0.8138" style="stop-color:#F75F98"/>
							<stop  offset="1" style="stop-color:#F54A8F"/>
						</linearGradient>
						<path class="st72" d="M221.7,316.8h4c1,0,1.8,1,1.5,1.9l-0.8,3.3c-0.2,0.7-0.8,1.2-1.5,1.2h-4.1c-1,0-1.8-1-1.5-2l0.9-3.3
							C220.4,317.3,221,316.8,221.7,316.8z"/>
						<linearGradient id="SVGID_66_" gradientUnits="userSpaceOnUse" x1="183.3054" y1="290.5536" x2="330.6528" y2="378.3666">
							<stop  offset="1.396650e-02" style="stop-color:#FFBAC0"/>
							<stop  offset="0.8138" style="stop-color:#F75F98"/>
							<stop  offset="1" style="stop-color:#F54A8F"/>
						</linearGradient>
						<path class="st73" d="M231.2,316.8h4c1,0,1.8,1,1.5,1.9L236,322c-0.2,0.7-0.8,1.2-1.5,1.2h-4.1c-1,0-1.8-1-1.5-2l0.9-3.3
							C229.9,317.3,230.5,316.8,231.2,316.8z"/>
						<linearGradient id="SVGID_67_" gradientUnits="userSpaceOnUse" x1="185.7919" y1="286.3802" x2="333.1408" y2="374.1941">
							<stop  offset="1.396650e-02" style="stop-color:#FFBAC0"/>
							<stop  offset="0.8138" style="stop-color:#F75F98"/>
							<stop  offset="1" style="stop-color:#F54A8F"/>
						</linearGradient>
						<path class="st74" d="M240.7,316.8h4c1,0,1.8,1,1.5,1.9l-0.8,3.3c-0.2,0.7-0.8,1.2-1.5,1.2h-4.1c-1,0-1.8-1-1.5-2l0.9-3.3
							C239.4,317.3,240,316.8,240.7,316.8z"/>
						<linearGradient id="SVGID_68_" gradientUnits="userSpaceOnUse" x1="188.2789" y1="282.2071" x2="335.6279" y2="370.021">
							<stop  offset="1.396650e-02" style="stop-color:#FFBAC0"/>
							<stop  offset="0.8138" style="stop-color:#F75F98"/>
							<stop  offset="1" style="stop-color:#F54A8F"/>
						</linearGradient>
						<path class="st75" d="M250.2,316.8h4c1,0,1.8,1,1.5,1.9l-0.8,3.3c-0.2,0.7-0.8,1.2-1.5,1.2h-4.1c-1,0-1.8-1-1.5-2l0.9-3.3
							C248.9,317.3,249.5,316.8,250.2,316.8z"/>
						<linearGradient id="SVGID_69_" gradientUnits="userSpaceOnUse" x1="190.7658" y1="278.0339" x2="338.1146" y2="365.8477">
							<stop  offset="1.396650e-02" style="stop-color:#FFBAC0"/>
							<stop  offset="0.8138" style="stop-color:#F75F98"/>
							<stop  offset="1" style="stop-color:#F54A8F"/>
						</linearGradient>
						<path class="st76" d="M259.7,316.8h4c1,0,1.8,1,1.5,1.9l-0.8,3.3c-0.2,0.7-0.8,1.2-1.5,1.2h-4.1c-1,0-1.8-1-1.5-2l0.9-3.3
							C258.4,317.3,259,316.8,259.7,316.8z"/>
						<linearGradient id="SVGID_70_" gradientUnits="userSpaceOnUse" x1="193.253" y1="273.8609" x2="340.602" y2="361.6748">
							<stop  offset="1.396650e-02" style="stop-color:#FFBAC0"/>
							<stop  offset="0.8138" style="stop-color:#F75F98"/>
							<stop  offset="1" style="stop-color:#F54A8F"/>
						</linearGradient>
						<path class="st77" d="M269.2,316.8h4c1,0,1.8,1,1.5,1.9l-0.8,3.3c-0.2,0.7-0.8,1.2-1.5,1.2h-4.1c-1,0-1.8-1-1.5-2l0.9-3.3
							C267.9,317.3,268.5,316.8,269.2,316.8z"/>
					</g>
					<g>
						<linearGradient id="SVGID_71_" gradientUnits="userSpaceOnUse" x1="176.5378" y1="301.9098" x2="323.8846" y2="389.7224">
							<stop  offset="1.396650e-02" style="stop-color:#FFBAC0"/>
							<stop  offset="0.8138" style="stop-color:#F75F98"/>
							<stop  offset="1" style="stop-color:#F54A8F"/>
						</linearGradient>
						<path class="st78" d="M219.8,325.4h4c1,0,1.8,1,1.5,1.9l-0.8,3.3c-0.2,0.7-0.8,1.2-1.5,1.2h-4.1c-1,0-1.8-1-1.5-2l0.9-3.3
							C218.4,325.9,219.1,325.4,219.8,325.4z"/>
						<linearGradient id="SVGID_72_" gradientUnits="userSpaceOnUse" x1="179.0243" y1="297.7364" x2="326.3728" y2="385.55">
							<stop  offset="1.396650e-02" style="stop-color:#FFBAC0"/>
							<stop  offset="0.8138" style="stop-color:#F75F98"/>
							<stop  offset="1" style="stop-color:#F54A8F"/>
						</linearGradient>
						<path class="st79" d="M229.3,325.4h4c1,0,1.8,1,1.5,1.9l-0.8,3.3c-0.2,0.7-0.8,1.2-1.5,1.2h-4.1c-1,0-1.8-1-1.5-2l0.9-3.3
							C227.9,325.9,228.6,325.4,229.3,325.4z"/>
						<linearGradient id="SVGID_73_" gradientUnits="userSpaceOnUse" x1="181.5113" y1="293.5632" x2="328.8598" y2="381.3769">
							<stop  offset="1.396650e-02" style="stop-color:#FFBAC0"/>
							<stop  offset="0.8138" style="stop-color:#F75F98"/>
							<stop  offset="1" style="stop-color:#F54A8F"/>
						</linearGradient>
						<path class="st80" d="M238.7,325.4h4c1,0,1.8,1,1.5,1.9l-0.8,3.3c-0.2,0.7-0.8,1.2-1.5,1.2h-4.1c-1,0-1.8-1-1.5-2l0.9-3.3
							C237.4,325.9,238,325.4,238.7,325.4z"/>
						<linearGradient id="SVGID_74_" gradientUnits="userSpaceOnUse" x1="183.999" y1="289.3905" x2="331.3459" y2="377.2032">
							<stop  offset="1.396650e-02" style="stop-color:#FFBAC0"/>
							<stop  offset="0.8138" style="stop-color:#F75F98"/>
							<stop  offset="1" style="stop-color:#F54A8F"/>
						</linearGradient>
						<path class="st81" d="M248.2,325.4h4c1,0,1.8,1,1.5,1.9l-0.8,3.3c-0.2,0.7-0.8,1.2-1.5,1.2h-4.1c-1,0-1.8-1-1.5-2l0.9-3.3
							C246.9,325.9,247.5,325.4,248.2,325.4z"/>
						<linearGradient id="SVGID_75_" gradientUnits="userSpaceOnUse" x1="186.4852" y1="285.2169" x2="333.8337" y2="373.0306">
							<stop  offset="1.396650e-02" style="stop-color:#FFBAC0"/>
							<stop  offset="0.8138" style="stop-color:#F75F98"/>
							<stop  offset="1" style="stop-color:#F54A8F"/>
						</linearGradient>
						<path class="st82" d="M257.7,325.4h4c1,0,1.8,1,1.5,1.9l-0.8,3.3c-0.2,0.7-0.8,1.2-1.5,1.2h-4.1c-1,0-1.8-1-1.5-2l0.9-3.3
							C256.4,325.9,257,325.4,257.7,325.4z"/>
						<linearGradient id="SVGID_76_" gradientUnits="userSpaceOnUse" x1="188.9732" y1="281.0444" x2="336.3203" y2="368.8572">
							<stop  offset="1.396650e-02" style="stop-color:#FFBAC0"/>
							<stop  offset="0.8138" style="stop-color:#F75F98"/>
							<stop  offset="1" style="stop-color:#F54A8F"/>
						</linearGradient>
						<path class="st83" d="M267.2,325.4h4c1,0,1.8,1,1.5,1.9l-0.8,3.3c-0.2,0.7-0.8,1.2-1.5,1.2h-4.1c-1,0-1.8-1-1.5-2l0.9-3.3
							C265.9,325.9,266.5,325.4,267.2,325.4z"/>
					</g>
				</g>
			</g>
		</g>
		<g>
			<defs>
				<path id="SVGID_77_" d="M303.4,122.4c84.4,18.5,137.6,77.9,144.7,160.6c7,81.1-107.2,45.6-167,89.9
					c-59.4,43.9-143.3,43.9-190.8,3.3c-47.5-40.6-42.6-115.6-17.4-161C115.8,138.1,194.9,98.6,303.4,122.4z"/>
			</defs>
			<clipPath id="SVGID_78_">
				<use xlink:href="#SVGID_77_"  style="overflow:visible;"/>
			</clipPath>
			<g class="st84">
				<g>
					<polygon class="st85" points="194.9,248 175.8,250 172.3,273.5 128.9,266.1 137.3,237 156.4,221.2 					"/>
					<g>
						<defs>
							<polygon id="SVGID_79_" points="194.9,248 175.8,250 172.3,273.5 128.9,266.1 137.3,237 156.4,221.2 							"/>
						</defs>
						<clipPath id="SVGID_80_">
							<use xlink:href="#SVGID_79_"  style="overflow:visible;"/>
						</clipPath>
						<linearGradient id="SVGID_81_" gradientUnits="userSpaceOnUse" x1="185.1979" y1="252.5231" x2="111.1553" y2="208.3528">
							<stop  offset="0" style="stop-color:#FFBFCD"/>
							<stop  offset="1" style="stop-color:#E16D90"/>
						</linearGradient>
						<path class="st86" d="M151.7,222.5c1.5,35,27.8,44.2,27.8,44.2l22.7-22.1l-46.9-25.1L151.7,222.5z"/>
					</g>
					<path class="st85" d="M198.4,170.3c4.1,8.9,6,27.3,6,27.3l6.9,12.1c1.7,2.5,0.4,2.7-0.7,3.4l-4.2,2.6c0,0,7,32.5-14.3,32.6
						c-9.5,0-36-7.7-38.6-30.5c-2.6-22.8-6.4-54.2,16.1-54C192.2,164,198.4,170.3,198.4,170.3z"/>
					<linearGradient id="SVGID_82_" gradientUnits="userSpaceOnUse" x1="127.8792" y1="266.9425" x2="176.5597" y2="151.1983">
						<stop  offset="0" style="stop-color:#2A3264"/>
						<stop  offset="1" style="stop-color:#4F61A5"/>
					</linearGradient>
					<path class="st87" d="M126.3,174c-0.8-14,10.2-23.2,24-22.7c13.8,0.5,31.4-4.3,42.9-8.7c11.5-4.3,20.9,1.3,14.8,9.7
						c13.3,0.3,14,13.3,1.9,18.4c-12.1,5.1-40.5,5.1-40.5,5.1s-3.1,28.3-13.8,30.1l-0.3,14.6c-0.1,5.8-3.7,10.9-9,13l-9.1,3.6
						c0,0-12.5-22.7-17.9-33.2C114.1,193.4,113.5,177.3,126.3,174z"/>
					<g>
						<path class="st85" d="M160.1,218.5c0,0-7.8,8.6-16.7,0.5c-9-8.1-1.6-20.6,6-20.4c7.6,0.3,10.3,9.9,10.3,9.9L160.1,218.5z"/>
						<path class="st88" d="M145.9,206.6c5-3.1,8.8,4.7,5.4,8.6"/>
					</g>
					<path class="st89" d="M190.2,203.6c0,1.3,1,2.3,2.3,2.3c1.3,0,2.3-1,2.3-2.3c0-1.3-1-2.3-2.3-2.3
						C191.3,201.3,190.2,202.4,190.2,203.6z"/>
					<path class="st90" d="M196.6,192c0,0-2.3-3.5-7.6-2.9c-5.2,0.6-6.4,4.1-6.4,4.1"/>
					<path class="st0" d="M201.7,228.4l-15.3-3.4c0,0-1,6.4,6.9,7.4S201.7,228.4,201.7,228.4z"/>
				</g>
				<g>
					<path class="st0" d="M119.7,264.5c0,0,5-12,19-11s33,6,39,13s6,11,6,11l-65-13"/>
					<g>
						<linearGradient id="SVGID_83_" gradientUnits="userSpaceOnUse" x1="219.5379" y1="260.9308" x2="104.8143" y2="588.42">
							<stop  offset="2.700000e-07" style="stop-color:#79D0FF"/>
							<stop  offset="0.3756" style="stop-color:#5198F9"/>
							<stop  offset="1" style="stop-color:#0E3BF0"/>
						</linearGradient>
						<polygon class="st91" points="235.7,336.8 264.6,397 198.2,430.7 90.3,406.6 115.8,292.2 						"/>
						<g>
							<path class="st85" d="M204.7,373.8c0,0,12.2,27.3,31.9,30.7c19.7,3.4,75.6-38.5,89.9-51.1c14.3-12.6,25-19.7,25.5-26.2
								c0.5-6.5,0.7-13.8,5.3-10.7c0.9-9.7-4.1-12.9-6.3-10.9c-3.6-4.1-7.8-2.4-9.9-0.6c-2.7-5.4-7.3-4.2-7.3-4.2s-0.3-5.5-5.4-5.7
								c-5.1-0.2-7.6,7.3-11.1,12.8c-3.5,5.4-6,8.4-16,15.1c-10.1,6.8-49.8,28.7-49.8,28.7l-5.6-9.4L219.4,357L204.7,373.8z"/>
							<path class="st92" d="M333.9,300.9c-5.2,0.2-6.3,4.1-6.3,4.1s0.2-6.8,2.2-7.7C331.8,296.4,333.4,297.1,333.9,300.9"/>
							<path class="st92" d="M341.2,305c-3.4,2.6-4.6,4.4-4.6,4.4s-1.4-5,0.5-6.1S341.2,305,341.2,305z"/>
							<path class="st92" d="M351.1,305.6c-3.5,3.2-4.5,5.5-4.5,5.5s-0.7-5.3,0.9-6.3C349.1,303.9,351.1,305.6,351.1,305.6z"/>
							<linearGradient id="SVGID_84_" gradientUnits="userSpaceOnUse" x1="246.2852" y1="350.4692" x2="155.902" y2="398.2141">
								<stop  offset="0" style="stop-color:#FFBFCD"/>
								<stop  offset="1" style="stop-color:#E16D90"/>
							</linearGradient>
							<polygon class="st93" points="251.5,351.8 207,379.5 204.7,373.8 245.9,342.4 							"/>
						</g>
						<linearGradient id="SVGID_85_" gradientUnits="userSpaceOnUse" x1="183.7659" y1="286.4342" x2="88.2765" y2="456.9875">
							<stop  offset="2.700000e-07" style="stop-color:#79D0FF"/>
							<stop  offset="0.3756" style="stop-color:#5198F9"/>
							<stop  offset="1" style="stop-color:#0E3BF0"/>
						</linearGradient>
						<path class="st94" d="M100.8,269.4c10.5-8.6,36-8.7,66.4,0c30.4,8.7,51.6,11.7,66.1,40.9c14.6,29.1,14.6,30.6,14.6,30.6
							l-46.1,35.2c0,0-6.5-44.2-48.1-41.1c-41.6,3.1-71-28.3-71-28.3S89.8,278.4,100.8,269.4z"/>
						<g>
							<defs>
								<path id="SVGID_86_" d="M233.5,403.1c-16.5-3.7-28.8-29.3-28.8-29.3l43.1-32.9c0,0,0-1.5-14.6-30.6
									c-14.6-29.1-35.7-32.2-66.1-40.9c-30.4-8.7-55.9-8.6-66.4,0c-3.2,2.6-6.1,6.8-8.5,11.6l0,0c0,0-0.1,0.2-0.3,0.5
									c-2.4,4.6-4.3,9.6-5.8,13.9c-3.8,10-8.2,23.9-9.6,37.4c-2.6,25,99.1,79.1,99.1,79.1S255,407.9,233.5,403.1z"/>
							</defs>
							<clipPath id="SVGID_87_">
								<use xlink:href="#SVGID_86_"  style="overflow:visible;"/>
							</clipPath>
							
								<ellipse transform="matrix(0.829 -0.5592 0.5592 0.829 -128.6355 106.1768)" class="st95" cx="109.3" cy="263.5" rx="27.1" ry="27.1"/>
							
								<ellipse transform="matrix(0.8242 -0.5662 0.5662 0.8242 -117.524 150.2835)" class="st95" cx="183.3" cy="264.5" rx="27.1" ry="27.1"/>
							
								<ellipse transform="matrix(0.8242 -0.5662 0.5662 0.8242 -139.5667 191.2696)" class="st95" cx="238.3" cy="320.5" rx="27.1" ry="27.1"/>
							
								<ellipse transform="matrix(0.8242 -0.5662 0.5662 0.8242 -155.7559 149.1139)" class="st95" cx="162.3" cy="325.5" rx="27.1" ry="27.1"/>
							
								<ellipse transform="matrix(0.8242 -0.5662 0.5662 0.8242 -192.444 172.9179)" class="st95" cx="182.3" cy="396.5" rx="27.1" ry="27.1"/>
							
								<ellipse transform="matrix(0.8283 -0.5603 0.5603 0.8283 -170.8455 111.3849)" class="st95" cx="96.3" cy="334.5" rx="27.1" ry="27.1"/>
						</g>
						<path class="st96" d="M204.7,373.8c0,0-16.9-41.5-48.8-57c-31.9-15.5-40.1-11.1-55.1-18c-15.1-6.9-8.5-17.8-8.5-17.8
							s-13.1,26.7-15.7,51.8c-2.6,25,99.1,79.1,99.1,79.1s79.4-4,58-8.8C217,399.5,204.7,373.8,204.7,373.8z"/>
						<linearGradient id="SVGID_88_" gradientUnits="userSpaceOnUse" x1="117.0004" y1="238.5326" x2="133.6812" y2="464.575">
							<stop  offset="1.396690e-02" style="stop-color:#FFB8A4"/>
							<stop  offset="0.9911" style="stop-color:#F54F6E"/>
						</linearGradient>
						<path class="st97" d="M63.8,364.3c0,0-10.2-50.4-11.9-65.4c-1.7-15,5.4-25.5,15.3-14.3c9.9,11.2,29.6,24.2,70.5,24.2
							c40.9,0,40.3-1,45,21.8c4.7,22.8,17.3,87.8,17.3,87.8S100.9,421.9,63.8,364.3z"/>
						<g>
							<defs>
								<path id="SVGID_89_" d="M63.8,364.3c0,0-10.2-50.4-11.9-65.4c-1.7-15,5.4-25.5,15.3-14.3c9.9,11.2,29.6,24.2,70.5,24.2
									c40.9,0,40.3-1,45,21.8c4.7,22.8,17.3,87.8,17.3,87.8S100.9,421.9,63.8,364.3z"/>
							</defs>
							<clipPath id="SVGID_90_">
								<use xlink:href="#SVGID_89_"  style="overflow:visible;"/>
							</clipPath>
							<linearGradient id="SVGID_91_" gradientUnits="userSpaceOnUse" x1="195.1909" y1="445.089" x2="46.5956" y2="256.6637">
								<stop  offset="0" style="stop-color:#2A3264"/>
								<stop  offset="1" style="stop-color:#4F61A5;stop-opacity:0.15"/>
							</linearGradient>
							<path class="st98" d="M41.8,352.4c75.2-44.8,82,30.6,140.6,32.2c58.6,1.5,58.6,1.5,58.6,1.5l-7.8,55.7l-139.3-8.2L41.8,352.4
								z"/>
						</g>
					</g>
				</g>
			</g>
		</g>
		<g>
			<defs>
				<path id="SVGID_92_" d="M63.8,364.3c0,0-10.2-50.4-11.9-65.4c-1.7-15,5.4-25.5,15.3-14.3c9.9,11.2,29.6,24.2,70.5,24.2
					c40.9,0,40.3-1,45,21.8c4.7,22.8,17.3,87.8,17.3,87.8S100.9,421.9,63.8,364.3z"/>
			</defs>
			<clipPath id="SVGID_93_">
				<use xlink:href="#SVGID_92_"  style="overflow:visible;"/>
			</clipPath>
		</g>
	</g>
</g>
</svg>
