<?xml version="1.0" encoding="utf-8"?>
<!-- Generator: Adobe Illustrator 24.3.0, SVG Export Plug-In . SVG Version: 6.00 Build 0)  -->
<svg version="1.1" xmlns="http://www.w3.org/2000/svg" xmlns:xlink="http://www.w3.org/1999/xlink" x="0px" y="0px"
	 viewBox="0 0 500 500" style="enable-background:new 0 0 500 500;" xml:space="preserve">
<style type="text/css">
	.st0{fill:#FFFFFF;}
	.st1{fill:none;stroke:url(#XMLID_408_);stroke-width:5;stroke-linecap:round;stroke-miterlimit:10;}
	.st2{fill:url(#XMLID_411_);}
	.st3{fill:#2E7BCE;}
	.st4{fill:#80BAF9;}
	.st5{fill:url(#XMLID_413_);}
	.st6{fill:#FFFBB0;}
	.st7{fill:#FFCC10;}
	.st8{fill:#D3A600;}
	.st9{fill:#FFCB28;}
	.st10{fill:#8A6900;}
	.st11{fill:#634901;}
	.st12{fill:none;stroke:url(#XMLID_414_);stroke-width:5;stroke-linecap:round;stroke-miterlimit:10;}
	.st13{fill:url(#XMLID_415_);}
	.st14{fill:url(#XMLID_416_);}
	.st15{fill:url(#XMLID_419_);}
	.st16{fill:#56A1FF;}
	.st17{fill:#E9FFEE;}
	.st18{fill:#3288D6;}
	.st19{fill:url(#XMLID_420_);}
	.st20{fill:url(#XMLID_421_);}
	.st21{fill:none;stroke:url(#XMLID_422_);stroke-width:5;stroke-linecap:round;stroke-miterlimit:10;}
	.st22{fill:url(#XMLID_423_);}
	.st23{fill:#D8D17C;}
	.st24{fill:#BCB25B;}
	.st25{fill:url(#XMLID_424_);}
	.st26{fill:url(#XMLID_425_);}
	.st27{fill:#FFBA68;}
	.st28{fill:#04273F;}
	.st29{fill:#000117;}
	.st30{fill:#00335C;}
	.st31{fill:url(#XMLID_426_);}
</style>
<g id="BACKGROUND">
	<rect id="XMLID_784_" class="st0" width="500" height="500"/>
</g>
<g id="OBJECT">
	<g id="XMLID_185_">
		<linearGradient id="XMLID_408_" gradientUnits="userSpaceOnUse" x1="128.1339" y1="206.5853" x2="198.8839" y2="206.5853">
			<stop  offset="0" style="stop-color:#5083C2;stop-opacity:0"/>
			<stop  offset="1" style="stop-color:#AAD7FF"/>
		</linearGradient>
		<line id="XMLID_517_" class="st1" x1="196.4" y1="225.7" x2="130.6" y2="187.5"/>
		<linearGradient id="XMLID_411_" gradientUnits="userSpaceOnUse" x1="65.6659" y1="185.7427" x2="169.0052" y2="185.7427">
			<stop  offset="0" style="stop-color:#AAD7FF"/>
			<stop  offset="1" style="stop-color:#5083C2;stop-opacity:0"/>
		</linearGradient>
		<path id="XMLID_619_" class="st2" d="M109.6,214.2l58.5-33.9c1.2-0.7,1.2-2.5-0.1-3.2l-37.6-20c-1.3-0.7-2.8-0.6-4.1,0.1
			l-60.1,35.3c-0.9,0.5-0.9,1.8,0.1,2.3l37.7,19.6C105.8,215.2,107.9,215.1,109.6,214.2z"/>
		<path id="XMLID_618_" class="st3" d="M105.7,199.3l59.3-34.4c1-0.6,1.3-3.8,0.3-4.3L124.7,141l-62.1,34.6c-0.8,0.5-1,3.6-0.2,4
			l38.1,19.8C102.2,200.3,104.1,200.2,105.7,199.3z"/>
		<path id="XMLID_594_" class="st4" d="M105.9,197l58.5-33.9c1.2-0.7,1.2-2.5-0.1-3.2l-37.6-20c-1.3-0.7-2.8-0.6-4.1,0.1l-60.1,35.3
			c-0.9,0.5-0.9,1.8,0.1,2.3l37.7,19.6C102.1,198,104.2,198,105.9,197z"/>
		<linearGradient id="XMLID_413_" gradientUnits="userSpaceOnUse" x1="76.3743" y1="168.2499" x2="148.2968" y2="168.2499">
			<stop  offset="0" style="stop-color:#1572FF"/>
			<stop  offset="1" style="stop-color:#5083C2;stop-opacity:0"/>
		</linearGradient>
		<path id="XMLID_532_" class="st5" d="M106.9,188l40.7-23.6c0.9-0.5,0.8-1.8,0-2.2l-26.2-13.9c-0.9-0.5-2-0.4-2.8,0.1l-41.8,24.5
			c-0.6,0.4-0.6,1.3,0,1.6l26.2,13.6C104.3,188.7,105.7,188.7,106.9,188z"/>
		<g id="XMLID_445_">
			<polygon id="XMLID_392_" class="st6" points="105.1,141.5 151.1,114.9 120.5,98.7 74.6,125.6 			"/>
			<polygon id="XMLID_191_" class="st7" points="104.7,141.7 104.5,184.6 151.1,157.4 151.1,114.9 			"/>
			<polygon id="XMLID_412_" class="st8" points="105.1,141.5 104.5,184.6 74.6,167.4 74.6,125.6 			"/>
			<path id="XMLID_418_" class="st8" d="M91.4,130.5c0,0,1.9,3.2,8.4,3.1l3.1-14.4C102.8,119.3,92.7,122.8,91.4,130.5z"/>
			<path id="XMLID_432_" class="st8" d="M119.3,114.3c0,0,1.9,3.2,8.4,3.1l3.1-14.4C130.8,103,120.6,106.5,119.3,114.3z"/>
			<path id="XMLID_431_" class="st8" d="M91.4,119.5V94.8c0-4.4,2.3-8.6,6.2-10.8l22.6-11.6c6.2-2.6,15.1,2.6,15.1,7.3l-7,28.8
				l-9,5.7V86.3c0-1.7-1.8-2.8-3.3-1.9l-12.1,6.8c-1.9,1.1-3,3-3,5.2v28.2l-9.5,5.9V119.5z"/>
			<path id="XMLID_417_" class="st9" d="M99.7,122.6V97.9c0-4.4,2.3-8.6,6.2-10.8l21.6-11.5c3.7-1.8,9.1,0.8,9.1,5.5l0.1,30.5
				c0,0-0.7,5.6-9,5.7V89.5c0-1.7-1.8-2.8-3.3-1.9l-12.1,6.8c-1.9,1.1-3,3-3,5.2v28.2c0,0-1.9,4.9-9.5,5.9V122.6z"/>
			<path id="XMLID_453_" class="st10" d="M133.3,155.9l2.3,5l-11,6.2l1.2-5.6l0.5-2.5c-1.7,0.1-3.3-0.3-4.6-1.3
				c-0.4-0.3-0.8-0.7-1.1-1.1c-0.9-1.2-1.5-2.8-1.7-4.8c-0.9-9.6,7.2-18.9,14.6-18.1c0.1,0,0.2,0,0.3,0c5.1,0.8,6.8,6.6,5.4,12.2
				C138.5,149.6,136.2,153.3,133.3,155.9z"/>
			<path id="XMLID_444_" class="st11" d="M128.9,153.4l2.3,5l-5.4,3.1l0.5-2.5c-1.7,0.1-3.3-0.3-4.6-1.3l0.2-1.1c-0.4,0-0.9,0-1.3,0
				c-0.9-1.2-1.5-2.8-1.7-4.8c-0.9-9.6,7.2-18.9,14.6-18.1c1.8,2.4,2.3,6.1,1.4,9.8C134.1,147.2,131.8,150.9,128.9,153.4z"/>
		</g>
	</g>
	<g id="XMLID_184_">
		<linearGradient id="XMLID_414_" gradientUnits="userSpaceOnUse" x1="98.3062" y1="325.5706" x2="172.0958" y2="325.5706">
			<stop  offset="0" style="stop-color:#5083C2;stop-opacity:0"/>
			<stop  offset="1" style="stop-color:#AAD7FF"/>
		</linearGradient>
		<line id="XMLID_513_" class="st12" x1="169.6" y1="305.8" x2="100.8" y2="345.3"/>
		
			<linearGradient id="XMLID_415_" gradientUnits="userSpaceOnUse" x1="32.2506" y1="372.785" x2="159.0896" y2="372.785" gradientTransform="matrix(-1 0 0 1 198.1657 0)">
			<stop  offset="0" style="stop-color:#AAD7FF"/>
			<stop  offset="1" style="stop-color:#5083C2;stop-opacity:0"/>
		</linearGradient>
		<path id="XMLID_516_" class="st13" d="M112,407.7L40.2,366c-1.5-0.9-1.5-3.1,0.1-3.9l46.2-24.5c1.6-0.8,3.5-0.8,5,0.1l73.7,43.3
			c1.1,0.6,1.1,2.2-0.1,2.8l-46.3,24.1C116.7,408.9,114.1,408.9,112,407.7z"/>
		<path id="XMLID_514_" class="st3" d="M116.8,389.4L44,347.2c-1.2-0.7-1.6-4.6-0.4-5.3l49.8-24.1l76.2,42.5c1,0.6,1.2,4.4,0.2,4.9
			l-46.8,24.3C121.1,390.6,118.8,390.5,116.8,389.4z"/>
		<path id="XMLID_515_" class="st4" d="M116.6,386.6l-71.8-41.7c-1.5-0.9-1.5-3.1,0.1-3.9l46.2-24.5c1.6-0.8,3.5-0.8,5,0.1
			l73.7,43.3c1.1,0.6,1.1,2.2-0.1,2.8l-46.3,24.1C121.2,387.8,118.6,387.8,116.6,386.6z"/>
		
			<linearGradient id="XMLID_416_" gradientUnits="userSpaceOnUse" x1="64.9208" y1="355.3535" x2="140.8925" y2="355.3535" gradientTransform="matrix(0.9997 -2.620000e-02 2.620000e-02 0.9997 -10.9671 3.2507)">
			<stop  offset="0" style="stop-color:#1572FF"/>
			<stop  offset="1" style="stop-color:#5083C2;stop-opacity:0"/>
		</linearGradient>
		<path id="XMLID_622_" class="st14" d="M127,377.2l-63.6-35.8c-0.8-0.5-0.8-1.6,0-2.1l8.5-4.9c0.8-0.5,1.8-0.5,2.6,0l64.6,36.7
			c0.6,0.3,0.6,1.2,0,1.5l-8.6,4.7C129.5,377.8,128.1,377.8,127,377.2z"/>
		<g id="XMLID_520_">
			<polygon id="XMLID_528_" class="st10" points="54.5,295.2 62.9,290.3 68,295.9 			"/>
			<polygon id="XMLID_525_" class="st10" points="66.4,331.9 71,329 70.3,322 66.5,320.8 			"/>
			<path id="XMLID_521_" class="st10" d="M110.9,315.8l-43.4-25.2c-3.4-2-7.7,0.5-7.7,4.4l-0.2,23.7l14.3,8.2l-0.2-16.5l4.2,2.5
				v11.6l9.5,5.7l0.2-11.8l20.3,12.5L110.9,315.8z"/>
			<path id="XMLID_519_" class="st10" d="M156.3,342.8c1.7,16.2-5.3,28.1-15.3,28.9c-9.9,0.8-21.5-9.4-26.7-25
				c-6.2-18.8-1.1-38.2,12.7-39.6C141,305.6,154.3,323.4,156.3,342.8z"/>
			<path id="XMLID_512_" class="st7" d="M148.9,345.8c1.1,16-6.3,27.6-16.4,28.1c-10,0.5-21.3-9.9-26-25.6
				c-5.6-18.8,0.2-37.7,14.2-38.7C134.8,308.6,147.6,326.5,148.9,345.8z"/>
			<g id="XMLID_747_">
				<path id="XMLID_547_" class="st10" d="M131.5,357.4c-1.1,1-2.4,1.7-3.9,1.7c-4.6,0.3-9.9-5-12.1-12.9c-2.6-9.4,0.1-19,6.5-19.5
					c0.8-0.1,1.6,0,2.3,0.2c5.5,1.5,10.2,9.5,10.8,18C135.5,350.6,134,355.1,131.5,357.4z"/>
				<path id="XMLID_538_" class="st11" d="M131.5,357.4c-4-1.2-8-6-9.8-12.6c-2-7.3-0.9-14.6,2.7-17.8c5.5,1.5,10.2,9.5,10.8,18
					C135.5,350.6,134,355.1,131.5,357.4z"/>
			</g>
			<path id="XMLID_518_" class="st7" d="M108.8,323.4l-49.4-28.4c-3.1-1.8-7,0.4-7,4l-0.1,20.9c0,2.3,1.2,4.3,3.1,5.5l11.1,6.4
				l-0.2-16.5l4.2,2.5v11.6l9.8,5.8l0.2-11.8l25.3,15.2L108.8,323.4z"/>
			<polygon id="XMLID_526_" class="st10" points="80.4,335.2 87.5,331.1 87.5,327.5 80.6,323.3 			"/>
		</g>
	</g>
	<g id="XMLID_183_">
		<g id="XMLID_189_">
			<linearGradient id="XMLID_419_" gradientUnits="userSpaceOnUse" x1="118.5266" y1="285.4289" x2="359.4028" y2="285.4289">
				<stop  offset="0" style="stop-color:#AAD7FF"/>
				<stop  offset="1" style="stop-color:#5083C2;stop-opacity:0"/>
			</linearGradient>
			<path id="XMLID_443_" class="st15" d="M121.1,277l133.5,77.4c4,2.3,8.9,2.3,12.8,0l88.6-51.6c4.6-2.7,4.6-9.3,0-12l-130-74.5
				c-3.9-2.2-8.7-2.2-12.6-0.1l-92.2,51.7C117.7,270,117.6,275,121.1,277z"/>
			<g id="XMLID_187_">
				<path id="XMLID_434_" class="st3" d="M121.4,246.4l133.4,77.4c4,2.3,8.9,2.3,12.8,0l89.7-52.2c8.9-5.2,2.4-16.2-3.8-16.9
					l-127.4-68.9c-3.9-2.2-8.7-2.2-12.6-0.1l-92.4,46.7C117.6,234.3,115.4,243.1,121.4,246.4z"/>
				<path id="XMLID_430_" class="st16" d="M121.1,241l133.5,77.4c4,2.3,8.9,2.3,12.8,0l88.6-51.6c4.6-2.7,4.6-9.3,0-12l-130-74.5
					c-3.9-2.2-8.7-2.2-12.6-0.1l-92.2,51.7C117.7,234,117.6,239,121.1,241z"/>
				<polygon id="XMLID_435_" class="st17" points="129.7,236.6 248.5,305.5 337.6,253.8 219.6,186.2 				"/>
				<ellipse id="XMLID_433_" class="st18" cx="302" cy="285.3" rx="8.7" ry="6"/>
				<path id="XMLID_436_" class="st16" d="M159.9,216.5l31.8-18.5l6.8,3.9c1.4,0.8,1.4,2.9,0,3.7l-25.3,15.3
					c-2.3,1.4-5.2,1.3-7.4-0.3L159.9,216.5z"/>
			</g>
		</g>
		<g id="XMLID_188_">
			<linearGradient id="XMLID_420_" gradientUnits="userSpaceOnUse" x1="194.1481" y1="252.6617" x2="281.0647" y2="252.6617">
				<stop  offset="0" style="stop-color:#AAD7FF"/>
				<stop  offset="1" style="stop-color:#5083C2;stop-opacity:0"/>
			</linearGradient>
			<polygon id="XMLID_449_" class="st19" points="228.8,277 281.1,246.7 246.4,228.3 194.1,259 			"/>
			<g id="XMLID_531_">
				<path id="XMLID_550_" class="st8" d="M293.2,88.5l-16-7.4c-21.3,16.1-45.7,2-45.7,2c-19.3,40.2-45.7,48-45.7,48
					s-6.3,60.2,2,92.5s44.9,32.7,44.9,32.7c15.6-15.2,26.2-32.4,33.1-46.6c7.6-15.7,11.4-32.9,11.4-50.4V95.9
					C281.9,95.5,288,93.8,293.2,88.5z"/>
				<path id="XMLID_530_" class="st7" d="M293.2,88.5v78.2c0,17.4-3.8,34.7-11.4,50.4c-6.9,14.3-17.5,31.4-33.1,46.6
					c0,0-36.6-0.4-44.9-32.7c-8.3-32.3-2-92.5-2-92.5s26.4-7.9,45.7-48C247.5,90.5,271.9,104.6,293.2,88.5z"/>
				<path id="XMLID_536_" class="st6" d="M285.2,107.2l-1.2,64.2c-0.2,13-3.1,25.8-8.6,37.5c-5.5,11.8-14.2,26.4-27.3,39.1
					c0,0-28.4-0.8-34.3-27c-5.9-26.2-0.2-74.7-0.2-74.7s20.6-6,36.1-38.1C249.8,108.2,268.5,120,285.2,107.2z"/>
				<path id="XMLID_537_" class="st11" d="M274.7,178c-3.4,16.8-14.4,31.2-25.8,34.5c-12.5,3.6-23.6-6.8-23.6-26.2
					c0-23.3,15.2-46,31.8-46C271.8,140.2,278.7,158.5,274.7,178z"/>
				<polygon id="XMLID_534_" class="st6" points="227,186.1 232.9,178.8 241.5,185.9 267.6,151.5 270.3,158.4 242.8,198.6 				"/>
			</g>
		</g>
	</g>
	<g id="XMLID_186_">
		<linearGradient id="XMLID_421_" gradientUnits="userSpaceOnUse" x1="346.2761" y1="195.7567" x2="449.6154" y2="195.7567">
			<stop  offset="0" style="stop-color:#AAD7FF"/>
			<stop  offset="1" style="stop-color:#5083C2;stop-opacity:0"/>
		</linearGradient>
		<path id="XMLID_565_" class="st20" d="M390.2,224.2l58.5-33.9c1.2-0.7,1.2-2.5-0.1-3.2l-37.6-20c-1.3-0.7-2.8-0.6-4.1,0.1
			l-60.1,35.3c-0.9,0.5-0.9,1.8,0.1,2.3l37.7,19.6C386.4,225.2,388.5,225.2,390.2,224.2z"/>
		<path id="XMLID_551_" class="st3" d="M386.3,209.3l59.3-34.4c1-0.6,1.3-3.8,0.3-4.3L405.3,151l-62.1,34.6c-0.8,0.5-1,3.6-0.2,4
			l38.1,19.8C382.8,210.3,384.7,210.2,386.3,209.3z"/>
		<path id="XMLID_540_" class="st4" d="M386.5,207L445,173c1.2-0.7,1.2-2.5-0.1-3.2l-37.6-20c-1.3-0.7-2.8-0.6-4.1,0.1l-60.1,35.3
			c-0.9,0.5-0.9,1.8,0.1,2.3l37.7,19.6C382.7,208,384.8,208,386.5,207z"/>
		<linearGradient id="XMLID_422_" gradientUnits="userSpaceOnUse" x1="254.3146" y1="221.3203" x2="370.3146" y2="221.3203">
			<stop  offset="0" style="stop-color:#5083C2;stop-opacity:0"/>
			<stop  offset="1" style="stop-color:#AAD7FF"/>
		</linearGradient>
		<polyline id="XMLID_549_" class="st21" points="256.8,234.6 293.3,213.6 324.8,232.1 367.8,208.1 		"/>
		<linearGradient id="XMLID_423_" gradientUnits="userSpaceOnUse" x1="361.1923" y1="177.1428" x2="427.7086" y2="177.1428">
			<stop  offset="0" style="stop-color:#1572FF"/>
			<stop  offset="1" style="stop-color:#5083C2;stop-opacity:0"/>
		</linearGradient>
		<path id="XMLID_794_" class="st22" d="M380.2,195.3l46.9-26.6c0.9-0.5,0.8-1.8,0-2.2l-14.6-7.6c-0.9-0.5-2-0.4-2.8,0.1l-47.9,27.5
			c-0.6,0.4-0.6,1.3,0,1.6l14.7,7.3C377.6,196,379,196,380.2,195.3z"/>
		<g id="XMLID_792_">
			<path id="XMLID_779_" class="st10" d="M411.1,110.2c0-2.8-3-4.5-5.4-3.2l-44.4,25v46l12.8,5.3v-12.6l37-21.3V110.2z"/>
			<g id="XMLID_786_">
				<polygon id="XMLID_791_" class="st23" points="366.6,108.2 366.5,154.1 398,135.7 398,90 				"/>
				<polygon id="XMLID_790_" class="st24" points="370,111.2 369.9,116.2 394.2,102 394.2,97.2 				"/>
				<polygon id="XMLID_789_" class="st24" points="370,119.7 369.9,124.7 394.2,110.5 394.2,105.7 				"/>
				<polygon id="XMLID_788_" class="st24" points="370,127.6 369.9,132.6 394.2,118.4 394.2,113.7 				"/>
				<polygon id="XMLID_787_" class="st24" points="370,135.8 369.9,140.8 394.2,126.6 394.2,121.8 				"/>
			</g>
			<g id="XMLID_752_">
				<polygon id="XMLID_750_" class="st6" points="376.7,115.8 376.6,161.7 408.1,143.3 408.1,97.6 				"/>
				<polygon id="XMLID_778_" class="st23" points="380.1,118.9 380,123.8 404.3,109.6 404.3,104.9 				"/>
				<polygon id="XMLID_780_" class="st23" points="380.1,127.3 380,132.3 404.3,118.1 404.3,113.3 				"/>
				<polygon id="XMLID_782_" class="st23" points="380.1,135.3 380,140.3 404.3,126.1 404.3,121.3 				"/>
				<polygon id="XMLID_783_" class="st23" points="380.1,143.4 380,148.4 404.3,134.2 404.3,129.4 				"/>
			</g>
			<path id="XMLID_749_" class="st7" d="M374.1,137.3v46l49.8-28.6V117c0-3.4-3.7-5.6-6.7-3.9L374.1,137.3z"/>
			<polygon id="XMLID_785_" class="st10" points="361.3,132 374.1,137.3 374.1,164.5 361.4,160.1 			"/>
		</g>
	</g>
	<g id="XMLID_410_">
		<g id="XMLID_409_">
			<linearGradient id="XMLID_424_" gradientUnits="userSpaceOnUse" x1="257.1926" y1="395.3679" x2="432.1674" y2="395.3679">
				<stop  offset="0" style="stop-color:#AAD7FF"/>
				<stop  offset="1" style="stop-color:#5083C2;stop-opacity:0"/>
			</linearGradient>
			<path id="XMLID_193_" class="st25" d="M300.4,442.8l130.9-72c1.2-0.7,1.2-2.5-0.1-3.2l-37.6-20c-1.3-0.7-2.8-0.6-4.1,0.1
				L329.5,383c-0.9,0.5-73.2,39.9-72.3,40.3l37.7,19.6C296.6,443.8,298.7,443.8,300.4,442.8z"/>
			<path id="XMLID_192_" class="st3" d="M301,430.3l127.2-74.8c1-0.6,1.3-3.8,0.3-4.3l-40.6-19.6l-129.9,75c-0.8,0.5-1,3.6-0.2,4
				l38.1,19.8C297.5,431.3,299.4,431.2,301,430.3z"/>
			<path id="XMLID_190_" class="st4" d="M300.7,427.8l126.8-74.2c1.2-0.7,1.2-2.5-0.1-3.2l-37.6-20c-1.3-0.7-2.8-0.6-4.1,0.1
				L257.5,406c-0.9,0.5-0.9,1.8,0.1,2.3l37.7,19.6C297,428.8,299,428.8,300.7,427.8z"/>
			<g id="XMLID_195_">
				<linearGradient id="XMLID_425_" gradientUnits="userSpaceOnUse" x1="374.6607" y1="353.6392" x2="407.4943" y2="353.6392">
					<stop  offset="0" style="stop-color:#1572FF"/>
					<stop  offset="1" style="stop-color:#5083C2;stop-opacity:0"/>
				</linearGradient>
				<path id="XMLID_725_" class="st26" d="M374.9,357.2c0,0-0.6,2.1,5.8,3.2c6.4,1.1,7-4.5,9.9-5.8c6.2-2.7,14.2-0.6,16.5-2.2
					c2.2-1.6-5.9-5.8-8.5-5.8c-2.6,0-5.9,1.8-8.2,3.4C388.2,351.6,372.4,353.7,374.9,357.2z"/>
				<path id="XMLID_697_" class="st27" d="M407,252.7c0,0,1.7,11.7-1.9,16.2c-3.6,4.5-12.1-0.7-12.1-0.7l-0.2-6.7l7.3,1.1l-2.1-4.6
					L407,252.7z"/>
				<path id="XMLID_696_" class="st28" d="M397.6,235.6c8.6-0.6,10.9,18.6,10.9,18.6l-6.8,5.9C401.7,260.2,391.2,236.1,397.6,235.6z
					"/>
				<path id="XMLID_695_" class="st27" d="M367.7,264.8c0,0-3.5,9.7,0.4,14c3.8,4.3,13.7-1.1,13.7-1.1l-0.1-6.7l-7.2,1.4l1.9-4.7
					L367.7,264.8z"/>
				<path id="XMLID_694_" class="st29" d="M403,276l-3.1,62.4c0,0,1.4,2.9-6.6,0.3l-1.4-44.5l-1.3,2.1l-5.4,26.2
					c0,0-3.4,2.6-8.2-1.1l3-42.3L403,276z"/>
				<path id="XMLID_681_" class="st30" d="M386.5,234.5c0,0-12.7,9.1-12.7,9.8s6.2,34.8,6.2,34.8s14.6,5,23-3.1l0.7-31.6
					c0.1-4.2-2.6-8.1-6.6-9.3C394.4,234.2,390.9,233.8,386.5,234.5z"/>
				<path id="XMLID_680_" class="st27" d="M398.1,219.3c0,0,1.9,1,1.6,8.6c-0.3,7.6-4.4,7.4-4.4,7.4l-0.8,4.2c0,0-1.4,1-4.1,1
					c-2.7,0-4.2-1.5-4.2-1.5v-5.3c0,0-2.3-7.3-1.6-11.1C385.3,218.8,391.4,213.9,398.1,219.3z"/>
				<path id="XMLID_679_" class="st29" d="M393.1,309c0,0-2.6,8.3-1.6,17.4c1,9.1,2.6,16.5,2.6,16.5s4.3,1.6,6.6,1.4l0.8-36.2
					L393.1,309z"/>
				<path id="XMLID_678_" class="st29" d="M391,224.9c0,0-0.1,2.8-1.8,3.9c0,0-0.7-1.9-1.6-1.9c-0.9,0-1.1,3.7,0.5,4l-2,2
					c0,0-2.5-5.6-1.6-9.8C384.5,223,390.5,224.1,391,224.9z"/>
				<path id="XMLID_677_" class="st29" d="M377.2,319.1c0,0-5.3,14.7-2.4,30.4c0,0,3.2,1.9,6.9,1.3l3.5-28.2L377.2,319.1z"/>
				<path id="XMLID_676_" class="st30" d="M384.5,223c0,0,2.1,1.8,8.3,1.9c6.2,0.1,7.5-1.3,7.5-1.3s-0.8-5-2.1-6.7
					c-1.3-1.7-10-0.2-10-0.2S384.8,218.1,384.5,223z"/>
				<path id="XMLID_675_" class="st28" d="M389.1,224.6c0,0,3.1,2.1,6.6,2.2c3.5,0.1,6.6-1,7-1.5c0.4-0.5-1.6-2.1-3.4-2.8
					S392.1,224.8,389.1,224.6z"/>
				<path id="XMLID_673_" class="st30" d="M374.8,244.7c0,0,5.5,3.2,5.9,10.6c0.4,7.3-4.8,14.8-4.8,14.8l-9-5.4l6.8-20.3
					L374.8,244.7z"/>
				<path id="XMLID_671_" class="st29" d="M394.7,342.7c0,0,0.3,2.1,0.2,3.8c-0.1,1.7-0.1,2.4-0.1,2.4s0.2,1.2,2.3,1.4
					c2.2,0.2,3,0.7,4.4,1.4c1.4,0.6,5.2,1.9,6.9,0.8c1.7-1.1-2.6-3.5-4.9-5c-2.2-1.4-4.1-2.7-4-4.6
					C399.7,341.1,394.7,342.7,394.7,342.7z"/>
				<path id="XMLID_670_" class="st29" d="M380.3,349.7c0,0-0.1,2.6,1.7,4.7c1.8,2.2,5.9,4.5,4.9,6.5c-0.7,1.3-6.3-0.4-8.1-1.3
					c-1.8-0.8-3.4-1.2-3.7-2.6c-0.2-1.3,0.4-6.2,0.6-7.6C375.8,347.9,380.3,349.7,380.3,349.7z"/>
			</g>
		</g>
		<g id="XMLID_391_">
			<linearGradient id="XMLID_426_" gradientUnits="userSpaceOnUse" x1="285.4543" y1="403.1376" x2="318.2878" y2="403.1376">
				<stop  offset="0" style="stop-color:#1572FF"/>
				<stop  offset="1" style="stop-color:#5083C2;stop-opacity:0"/>
			</linearGradient>
			<path id="XMLID_407_" class="st31" d="M285.7,406.7c0,0-0.6,2.1,5.8,3.2c6.4,1.1,7-4.5,9.9-5.8c6.2-2.7,14.2-0.6,16.5-2.2
				c2.2-1.6-5.9-5.8-8.5-5.8c-2.6,0-5.9,1.8-8.2,3.4C299,401.1,283.2,403.2,285.7,406.7z"/>
			<path id="XMLID_406_" class="st27" d="M317.7,302.2c0,0,1.7,11.7-1.9,16.2c-3.6,4.5-12.1-0.7-12.1-0.7l-0.2-6.7l7.3,1.1l-2.1-4.6
				L317.7,302.2z"/>
			<path id="XMLID_405_" class="st28" d="M308.4,285.1c8.6-0.6,10.9,18.6,10.9,18.6l-6.8,5.9C312.5,309.7,302,285.6,308.4,285.1z"/>
			<path id="XMLID_404_" class="st27" d="M278.5,314.3c0,0-3.5,9.7,0.4,14c3.8,4.3,13.7-1.1,13.7-1.1l-0.1-6.7l-7.2,1.4l1.9-4.7
				L278.5,314.3z"/>
			<path id="XMLID_403_" class="st29" d="M313.8,325.5l-3.1,62.4c0,0,1.4,2.9-6.6,0.3l-1.4-44.5l-1.3,2.1l-5.4,26.2
				c0,0-3.4,2.6-8.2-1.1l3-42.3L313.8,325.5z"/>
			<path id="XMLID_402_" class="st30" d="M297.3,284c0,0-12.7,9.1-12.7,9.8c0,0.7,6.2,34.8,6.2,34.8s14.6,5,23-3.1l0.7-31.6
				c0.1-4.2-2.6-8.1-6.6-9.3C305.2,283.7,301.7,283.3,297.3,284z"/>
			<path id="XMLID_401_" class="st27" d="M308.9,268.8c0,0,1.9,1,1.6,8.6c-0.3,7.6-4.4,7.4-4.4,7.4l-0.8,4.2c0,0-1.4,1-4.1,1
				c-2.7,0-4.2-1.5-4.2-1.5v-5.3c0,0-2.3-7.3-1.6-11.1S302.2,263.4,308.9,268.8z"/>
			<path id="XMLID_400_" class="st29" d="M303.9,358.5c0,0-2.6,8.3-1.6,17.4c1,9.1,2.6,16.5,2.6,16.5s4.3,1.6,6.6,1.4l0.8-36.2
				L303.9,358.5z"/>
			<path id="XMLID_399_" class="st29" d="M301.8,274.4c0,0-0.1,2.8-1.8,3.9c0,0-0.7-1.9-1.6-1.9c-0.9,0-1.1,3.7,0.5,4l-2,2
				c0,0-2.5-5.6-1.6-9.8C295.3,272.5,301.3,273.6,301.8,274.4z"/>
			<path id="XMLID_398_" class="st29" d="M288,368.6c0,0-5.3,14.7-2.4,30.4c0,0,3.2,1.9,6.9,1.3l3.5-28.2L288,368.6z"/>
			<path id="XMLID_397_" class="st30" d="M295.3,272.5c0,0,2.1,1.8,8.3,1.9c6.2,0.1,7.5-1.3,7.5-1.3s-0.8-5-2.1-6.7
				c-1.3-1.7-10-0.2-10-0.2S295.6,267.6,295.3,272.5z"/>
			<path id="XMLID_396_" class="st28" d="M299.9,274.1c0,0,3.1,2.1,6.6,2.2c3.5,0.1,6.6-1,7-1.5c0.4-0.5-1.6-2.1-3.4-2.8
				C308.2,271.4,302.9,274.3,299.9,274.1z"/>
			<path id="XMLID_395_" class="st30" d="M285.6,294.2c0,0,5.5,3.2,5.9,10.6c0.4,7.3-4.8,14.8-4.8,14.8l-9-5.4l6.8-20.3L285.6,294.2
				z"/>
			<path id="XMLID_394_" class="st29" d="M305.5,392.2c0,0,0.3,2.1,0.2,3.8c-0.1,1.7-0.1,2.4-0.1,2.4s0.2,1.2,2.3,1.4
				c2.2,0.2,3,0.7,4.4,1.4c1.4,0.6,5.2,1.9,6.9,0.8s-2.6-3.5-4.9-5c-2.2-1.4-4.1-2.7-4-4.6C310.5,390.6,305.5,392.2,305.5,392.2z"/>
			<path id="XMLID_393_" class="st29" d="M291.1,399.2c0,0-0.1,2.6,1.7,4.7c1.8,2.2,5.9,4.5,4.9,6.5c-0.7,1.3-6.3-0.4-8.1-1.3
				c-1.8-0.8-3.4-1.2-3.7-2.6c-0.2-1.3,0.4-6.2,0.6-7.6C286.6,397.4,291.1,399.2,291.1,399.2z"/>
		</g>
	</g>
</g>
</svg>
